<svg width="40" height="40" viewBox="0 0 40 40" fill="none" xmlns="http://www.w3.org/2000/svg">
<circle cx="20" cy="20" r="18" fill="#F08719" fill-opacity="0.1"/>
<path d="M19.9996 38.9993C30.4925 38.9993 38.9993 30.4918 38.9993 19.9996C38.9993 9.50751 30.4925 1 19.9996 1C9.50675 1 1 9.50751 1 19.9996C1 30.4918 9.50675 38.9993 19.9996 38.9993Z" fill="#F0F0F0" stroke="#1B143B" stroke-width="2"/>
<mask id="path-3-outside-1_10628_716" maskUnits="userSpaceOnUse" x="0" y="19.9996" width="40" height="20" fill="black">
<rect fill="white" y="19.9996" width="40" height="20"/>
<path d="M37.9993 19.9996C37.9993 29.9395 29.9395 37.9993 19.9996 37.9993C10.0598 37.9993 2 29.9402 2 19.9996"/>
</mask>
<path d="M37.9993 19.9996C37.9993 29.9395 29.9395 37.9993 19.9996 37.9993C10.0598 37.9993 2 29.9402 2 19.9996" fill="#D80027"/>
<path d="M35.9993 19.9996C35.9993 28.8349 28.835 35.9993 19.9996 35.9993V39.9993C31.0441 39.9993 39.9993 31.0441 39.9993 19.9996H35.9993ZM19.9996 35.9993C11.1643 35.9993 4 28.8356 4 19.9996H0C0 31.0448 8.95525 39.9993 19.9996 39.9993V35.9993Z" fill="#1B143B" mask="url(#path-3-outside-1_10628_716)"/>
<g clip-path="url(#clip0_10628_716)">
<path d="M20 38C29.9411 38 38 29.9411 38 20C38 10.0589 29.9411 2 20 2C10.0589 2 2 10.0589 2 20C2 29.9411 10.0589 38 20 38Z" fill="#F0F0F0"/>
<path d="M5.72097 9.04123C4.30705 10.8808 3.24091 13.0011 2.62012 15.3045H11.9842L5.72097 9.04123Z" fill="#0052B4"/>
<path d="M37.3796 15.3045C36.7588 13.0012 35.6926 10.8809 34.2787 9.04131L28.0156 15.3045H37.3796Z" fill="#0052B4"/>
<path d="M2.62012 24.6958C3.24098 26.9991 4.30712 29.1193 5.72097 30.9588L11.984 24.6958H2.62012Z" fill="#0052B4"/>
<path d="M30.9585 5.72101C29.1189 4.30709 26.9987 3.24095 24.6953 2.62009V11.9841L30.9585 5.72101Z" fill="#0052B4"/>
<path d="M9.04102 34.279C10.8806 35.6929 13.0009 36.7591 15.3042 37.3799V28.016L9.04102 34.279Z" fill="#0052B4"/>
<path d="M15.3041 2.62009C13.0008 3.24095 10.8805 4.30709 9.04102 5.72094L15.3041 11.984V2.62009Z" fill="#0052B4"/>
<path d="M24.6953 37.3799C26.9986 36.7591 29.1189 35.6929 30.9584 34.2791L24.6953 28.016V37.3799Z" fill="#0052B4"/>
<path d="M28.0156 24.6958L34.2787 30.9589C35.6926 29.1194 36.7588 26.9991 37.3796 24.6958H28.0156Z" fill="#0052B4"/>
<path d="M37.8476 17.6522H22.3479H22.3479V2.15237C21.5793 2.05231 20.7957 2 20 2C19.2041 2 18.4207 2.05231 17.6522 2.15237V17.6521V17.6521H2.15237C2.05231 18.4207 2 19.2043 2 20C2 20.7959 2.05231 21.5793 2.15237 22.3478H17.6521H17.6521V37.8476C18.4207 37.9477 19.2041 38 20 38C20.7957 38 21.5793 37.9478 22.3478 37.8476V22.3479V22.3479H37.8476C37.9477 21.5793 38 20.7959 38 20C38 19.2043 37.9477 18.4207 37.8476 17.6522Z" fill="#D80027"/>
<path d="M24.6953 24.6957L32.7275 32.728C33.097 32.3587 33.4494 31.9726 33.7856 31.5724L26.9089 24.6957H24.6953V24.6957Z" fill="#D80027"/>
<path d="M15.3047 24.6958H15.3046L7.27246 32.7279C7.64174 33.0973 8.02783 33.4497 8.42805 33.786L15.3047 26.9091V24.6958Z" fill="#D80027"/>
<path d="M15.3041 15.3045V15.3043L7.27193 7.27203C6.90251 7.64131 6.5501 8.0274 6.21387 8.42762L13.0906 15.3044L15.3041 15.3045Z" fill="#D80027"/>
<path d="M24.6953 15.3045L32.7276 7.2721C32.3583 6.90268 31.9722 6.55028 31.572 6.21411L24.6953 13.0909V15.3045Z" fill="#D80027"/>
</g>
<defs>
<clipPath id="clip0_10628_716">
<rect width="36" height="36" fill="white" transform="translate(2 2)"/>
</clipPath>
</defs>
</svg>
