<svg width="40" height="40" viewBox="0 0 40 40" fill="none" xmlns="http://www.w3.org/2000/svg">
<circle cx="20" cy="20" r="18" fill="#F08719" fill-opacity="0.1"/>
<path d="M19.9999 38.9993C30.4928 38.9993 38.9995 30.4918 38.9995 19.9996C38.9995 9.50751 30.4928 1 19.9999 1C9.507 1 1.00024 9.50751 1.00024 19.9996C1.00024 30.4918 9.507 38.9993 19.9999 38.9993Z" fill="#F0F0F0" stroke="#1B143B" stroke-width="2"/>
<mask id="path-3-outside-1_10613_277" maskUnits="userSpaceOnUse" x="0.000488281" y="19.9996" width="40" height="20" fill="black">
<rect fill="white" x="0.000488281" y="19.9996" width="40" height="20"/>
<path d="M37.9998 19.9996C37.9998 29.9395 29.94 37.9993 20.0001 37.9993C10.0603 37.9993 2.00049 29.9402 2.00049 19.9996"/>
</mask>
<path d="M37.9998 19.9996C37.9998 29.9395 29.94 37.9993 20.0001 37.9993C10.0603 37.9993 2.00049 29.9402 2.00049 19.9996" fill="#D80027"/>
<path d="M35.9998 19.9996C35.9998 28.8349 28.8355 35.9993 20.0001 35.9993V39.9993C31.0446 39.9993 39.9998 31.0441 39.9998 19.9996H35.9998ZM20.0001 35.9993C11.1648 35.9993 4.00049 28.8356 4.00049 19.9996H0.000488281C0.000488281 31.0448 8.95573 39.9993 20.0001 39.9993V35.9993Z" fill="#1B143B" mask="url(#path-3-outside-1_10613_277)"/>
</svg>
