<?xml version="1.0" standalone="no"?>
<!DOCTYPE svg PUBLIC "-//W3C//DTD SVG 20010904//EN"
 "http://www.w3.org/TR/2001/REC-SVG-20010904/DTD/svg10.dtd">
<svg version="1.0" xmlns="http://www.w3.org/2000/svg"
 width="972.000000pt" height="972.000000pt" viewBox="0 0 972.000000 972.000000"
 preserveAspectRatio="xMidYMid meet">
<metadata>
Created by potrace 1.14, written by Peter Selinger 2001-2017
</metadata>
<g transform="translate(0.000000,972.000000) scale(0.100000,-0.100000)"
fill="#000000" stroke="none">
<path d="M4838 9579 c-14 -8 -17 -132 -4 -165 3 -8 2 -13 -2 -10 -4 2 -6 -235
-5 -527 2 -662 -1 -596 21 -593 9 2 27 -3 39 -11 12 -8 28 -11 34 -7 8 4 9 3
5 -4 -4 -7 -2 -12 4 -12 21 0 210 -98 222 -115 4 -5 8 -7 8 -3 0 6 51 -23 85
-49 66 -51 87 -63 97 -57 7 4 8 3 4 -4 -4 -7 3 -17 18 -24 14 -6 26 -18 26
-26 0 -9 3 -13 6 -9 4 3 13 -1 21 -9 9 -8 22 -13 29 -10 8 3 11 0 8 -9 -4 -9
10 -25 35 -42 22 -15 40 -34 41 -42 0 -8 3 -12 6 -9 6 7 94 -80 94 -93 0 -4 3
-9 8 -11 4 -1 25 -23 47 -48 22 -25 43 -44 48 -42 5 1 6 -2 2 -8 -3 -5 -1 -10
5 -10 6 0 8 -5 5 -10 -3 -6 1 -13 9 -16 9 -3 16 -12 16 -19 0 -7 4 -15 8 -17
10 -3 83 -113 94 -140 4 -10 12 -18 18 -18 6 0 9 -4 6 -9 -3 -5 2 -19 12 -32
10 -13 29 -47 42 -76 13 -28 28 -49 34 -46 5 4 7 -1 3 -9 -3 -9 3 -33 13 -54
38 -81 50 -111 75 -193 15 -46 28 -91 30 -100 2 -9 11 -43 19 -76 9 -32 16
-69 16 -82 0 -12 8 -27 18 -32 9 -6 12 -11 5 -11 -9 0 -16 -40 -6 -40 1 0 19
30 39 68 21 37 44 75 52 84 8 10 12 24 9 32 -4 10 -1 13 9 9 7 -3 14 0 14 6 0
7 16 37 35 67 20 30 32 60 29 66 -4 7 -2 8 4 4 7 -4 16 2 22 16 5 13 28 51 49
86 22 34 38 62 35 62 -3 0 4 10 16 22 11 12 20 28 20 35 0 7 4 13 9 13 5 0 14
12 21 28 20 48 35 72 44 72 4 0 3 7 -4 15 -11 13 -10 14 4 9 9 -3 16 -1 16 5
0 19 3 25 22 45 10 11 18 25 18 32 0 7 4 14 8 16 15 6 52 80 46 90 -4 6 -3 8
3 5 8 -5 73 82 73 98 0 3 16 29 35 59 19 30 35 60 35 66 0 5 5 10 10 10 6 0
10 4 10 9 0 5 23 46 50 90 28 44 50 85 50 90 0 5 4 11 8 13 17 7 113 178 106
189 -4 7 -3 9 3 6 16 -10 97 128 87 146 -4 7 -4 9 1 5 8 -8 42 30 47 53 2 7 8
19 13 26 6 7 15 18 21 25 21 26 44 81 37 91 -3 5 -1 7 4 4 15 -9 54 59 47 81
-5 13 -4 14 4 3 8 -11 11 -10 19 5 14 29 11 39 -27 70 -47 38 -57 47 -74 61
-8 7 -23 10 -33 7 -13 -4 -15 -3 -5 4 11 7 8 14 -13 30 -15 12 -32 19 -39 15
-6 -3 -8 -3 -4 2 7 7 -14 35 -27 35 -3 0 -18 11 -33 25 -15 14 -33 23 -40 20
-7 -3 -10 -1 -7 4 5 10 -75 71 -93 71 -6 0 -12 4 -14 9 -4 11 -165 111 -178
111 -5 0 -10 4 -10 9 0 5 -8 11 -17 14 -10 3 -42 20 -70 36 -29 17 -53 27 -53
23 0 -4 -4 -2 -8 4 -7 10 -176 96 -187 94 -3 0 -20 7 -38 17 -17 9 -35 18 -39
19 -5 1 -11 3 -15 4 -5 1 -11 2 -15 1 -5 0 -8 4 -8 9 0 6 -9 10 -19 10 -11 0
-23 5 -26 10 -9 15 -27 12 -20 -2 4 -7 1 -6 -7 3 -14 17 -78 42 -78 31 0 -4
-4 -1 -9 6 -5 8 -20 15 -34 15 -14 1 -23 6 -19 11 3 5 -2 7 -10 3 -9 -3 -19
-3 -23 1 -4 4 -10 7 -13 8 -4 0 -14 3 -22 7 -53 21 -192 61 -204 58 -4 -1 -13
2 -20 6 -6 5 -20 8 -31 8 -11 0 -22 3 -25 6 -3 4 -23 10 -45 13 -22 3 -51 8
-65 11 -14 4 -34 8 -45 9 -11 2 -27 6 -35 9 -8 3 -37 8 -65 12 -27 3 -61 8
-75 11 -14 2 -54 6 -88 8 -35 3 -66 7 -70 10 -3 3 -12 0 -20 -7 -13 -9 -14 -9
-8 1 5 8 -2 12 -26 13 -18 1 -60 3 -93 5 -130 9 -244 10 -257 3z m137 -259
c-3 -5 -12 -10 -18 -10 -7 0 -6 4 3 10 19 12 23 12 15 0z m315 -154 c0 -2 -7
-7 -16 -10 -8 -3 -12 -2 -9 4 6 10 25 14 25 6z m1280 -166 c0 -5 -5 -10 -11
-10 -5 0 -7 5 -4 10 3 6 8 10 11 10 2 0 4 -4 4 -10z m320 -154 c0 -2 -7 -7
-16 -10 -8 -3 -12 -2 -9 4 6 10 25 14 25 6z m-1764 -86 c0 -12 -4 -16 -9 -11
-5 5 -6 14 -3 20 10 15 12 14 12 -9z m1362 -5 c-3 -3 -9 2 -12 12 -6 14 -5 15
5 6 7 -7 10 -15 7 -18z m-1028 11 c0 -2 -8 -10 -17 -17 -16 -13 -17 -12 -4 4
13 16 21 21 21 13z m390 -6 c0 -5 -5 -10 -11 -10 -5 0 -7 5 -4 10 3 6 8 10 11
10 2 0 4 -4 4 -10z m-875 -80 c-3 -5 -12 -10 -18 -10 -7 0 -6 4 3 10 19 12 23
12 15 0z m955 -160 c0 -5 -2 -10 -4 -10 -3 0 -8 5 -11 10 -3 6 -1 10 4 10 6 0
11 -4 11 -10z m0 -160 c0 -5 -5 -10 -11 -10 -5 0 -7 5 -4 10 3 6 8 10 11 10 2
0 4 -4 4 -10z m-409 -93 c-10 -9 -11 -8 -5 6 3 10 9 15 12 12 3 -3 0 -11 -7
-18z m-236 -56 c3 -5 2 -12 -3 -15 -5 -3 -9 1 -9 9 0 17 3 19 12 6z m565 -91
c0 -5 -2 -10 -4 -10 -3 0 -8 5 -11 10 -3 6 -1 10 4 10 6 0 11 -4 11 -10z m0
-480 c0 -5 -2 -10 -4 -10 -3 0 -8 5 -11 10 -3 6 -1 10 4 10 6 0 11 -4 11 -10z
m478 -565 c-3 -3 -9 2 -12 12 -6 14 -5 15 5 6 7 -7 10 -15 7 -18z"/>
<path d="M4586 9573 c-1 -1 -28 -4 -61 -7 -33 -4 -80 -9 -105 -12 -25 -3 -58
-7 -75 -9 -16 -2 -32 -4 -35 -5 -3 -1 -8 -2 -12 -1 -6 1 -84 -13 -138 -24 -14
-3 -36 -7 -50 -10 -23 -3 -104 -21 -140 -31 -8 -2 -40 -10 -70 -17 -79 -20
-324 -98 -330 -106 -3 -3 -14 -8 -25 -10 -11 -1 -29 -8 -40 -14 -11 -6 -26
-12 -33 -13 -8 -1 -30 -10 -49 -19 -20 -10 -41 -18 -47 -19 -13 -2 -329 -157
-336 -165 -3 -3 -25 -17 -50 -30 -79 -43 -84 -46 -97 -57 -6 -7 -9 -15 -5 -19
4 -5 1 -5 -6 -1 -7 4 -41 -12 -83 -41 -39 -26 -78 -52 -87 -58 -18 -11 -23
-15 -77 -55 -22 -16 -47 -36 -56 -45 -9 -8 -21 -15 -27 -15 -7 0 -12 -4 -12
-8 0 -5 -19 -23 -42 -40 -24 -17 -62 -48 -85 -69 -23 -21 -64 -57 -92 -81
l-49 -44 29 -46 c16 -26 34 -58 41 -72 7 -14 15 -27 18 -30 10 -9 41 -65 47
-82 3 -10 9 -18 14 -18 5 0 9 -7 9 -15 0 -8 5 -15 10 -15 6 0 10 -4 10 -9 0
-5 23 -47 51 -93 27 -46 54 -90 59 -98 5 -8 36 -58 67 -111 l59 -97 44 40 c55
50 183 148 228 173 17 11 32 23 32 27 0 4 4 8 9 8 5 0 48 23 96 50 48 28 89
50 91 50 3 0 29 11 57 23 89 41 228 94 270 103 4 1 8 3 10 4 1 1 11 4 22 6 52
8 80 16 83 24 2 5 10 6 17 4 8 -3 20 -2 27 2 7 4 24 9 38 10 26 1 96 11 140
19 104 19 385 20 510 1 129 -20 228 -40 239 -50 12 -9 13 -8 6 4 -7 12 -6 13
6 4 8 -6 34 -16 59 -23 25 -7 53 -14 62 -17 16 -5 17 39 17 625 l0 629 -81 -1
c-44 -1 -80 -3 -82 -4z"/>
<path d="M7398 8555 c-6 -14 -14 -25 -18 -25 -3 0 -12 -16 -20 -35 -8 -19 -17
-35 -22 -35 -4 0 -8 -4 -8 -10 0 -5 -19 -40 -43 -77 -24 -38 -46 -75 -50 -83
-4 -8 -16 -28 -27 -45 -11 -16 -30 -49 -42 -72 -12 -24 -26 -43 -30 -43 -4 0
-8 -5 -8 -10 0 -6 -12 -29 -27 -53 -41 -62 -51 -79 -65 -107 -6 -14 -21 -38
-33 -55 -24 -36 -51 -81 -67 -115 -7 -14 -16 -27 -19 -30 -10 -7 -59 -92 -66
-112 -3 -10 -9 -18 -14 -18 -5 0 -9 -4 -9 -10 0 -5 -20 -41 -45 -80 -25 -39
-45 -75 -45 -80 0 -6 -4 -10 -9 -10 -5 0 -13 -10 -17 -22 -4 -13 -17 -37 -30
-54 -13 -17 -24 -34 -24 -38 0 -4 -20 -39 -45 -77 -25 -38 -45 -72 -45 -75 0
-4 -16 -30 -87 -141 -18 -28 -33 -54 -33 -57 0 -4 -12 -25 -27 -49 -27 -42
-78 -125 -100 -162 -6 -11 -33 -56 -60 -100 -26 -43 -50 -84 -52 -90 -2 -5
-12 -20 -21 -32 -14 -18 -17 -40 -14 -122 1 -55 5 -105 8 -109 3 -5 3 -12 -1
-15 -3 -4 -7 -39 -9 -79 -4 -82 -12 -183 -14 -183 -2 0 -6 -20 -14 -65 -3 -19
-8 -48 -12 -65 -3 -16 -7 -34 -8 -40 -1 -5 -4 -14 -7 -20 -4 -5 -5 -20 -4 -32
1 -13 -2 -23 -7 -23 -4 0 -8 -7 -8 -15 0 -53 -137 -386 -193 -467 -10 -16 -16
-28 -12 -28 3 0 -3 -10 -15 -22 -11 -12 -20 -28 -20 -35 0 -7 -4 -13 -8 -13
-5 0 -14 -11 -20 -25 -7 -14 -30 -49 -52 -78 -34 -46 -39 -58 -33 -90 7 -44
16 -52 36 -32 9 8 18 15 21 15 9 0 181 114 184 122 2 4 9 8 15 8 12 0 260 161
265 172 2 4 10 8 18 8 8 0 14 5 14 12 0 6 3 9 6 5 4 -3 21 5 39 18 17 14 37
25 43 25 14 0 14 -1 16 63 1 27 -2 51 -6 53 -5 3 -5 11 -1 17 4 6 8 63 9 127
1 63 7 141 13 174 6 32 8 62 5 67 -3 5 -1 9 3 9 5 0 17 30 28 67 58 204 220
422 406 548 24 16 47 34 50 38 3 5 9 8 13 8 3 -1 29 10 56 24 27 14 52 25 55
25 3 1 24 9 48 19 92 40 245 65 382 64 195 -3 384 -59 540 -163 58 -38 73 -44
90 -35 18 9 105 65 189 121 16 10 45 29 65 40 19 12 37 27 39 33 2 6 10 11 19
11 8 0 29 11 47 25 18 14 38 25 44 25 14 0 -60 270 -98 355 -5 11 -23 60 -41
108 -17 48 -36 90 -40 93 -5 3 -9 12 -9 19 0 16 -123 268 -176 360 -18 33 -37
67 -41 75 -4 8 -10 20 -15 25 -4 6 -45 67 -91 136 -47 70 -89 133 -96 140 -6
8 -34 43 -62 79 -80 104 -111 142 -155 187 -22 24 -39 43 -37 43 2 0 -45 50
-106 110 -60 61 -112 110 -115 110 -4 0 -12 -11 -18 -25z"/>
<path d="M2177 8456 c-20 -19 -37 -40 -37 -46 0 -6 -4 -8 -10 -5 -5 3 -10 -1
-10 -10 0 -9 -4 -13 -10 -10 -5 3 -10 3 -10 -2 0 -4 -19 -29 -42 -54 -24 -26
-50 -55 -58 -66 -8 -10 -37 -44 -63 -76 -27 -31 -45 -57 -41 -57 4 0 -3 -8
-14 -19 -12 -10 -22 -21 -22 -25 0 -3 -9 -15 -21 -27 -11 -11 -18 -27 -15 -34
3 -10 0 -12 -11 -8 -12 5 -15 2 -10 -10 3 -9 2 -16 -2 -14 -8 2 -111 -135
-111 -148 0 -3 -13 -24 -30 -47 -16 -22 -30 -47 -30 -55 0 -7 -4 -13 -10 -13
-5 0 -10 -9 -10 -19 0 -11 -4 -21 -8 -23 -16 -7 -53 -78 -46 -89 4 -7 3 -9 -3
-6 -5 3 -25 -26 -44 -66 -19 -40 -40 -78 -47 -86 -7 -7 -11 -20 -8 -27 3 -8 1
-14 -4 -14 -8 0 -19 -23 -21 -45 0 -5 -8 -18 -16 -28 -9 -9 -13 -20 -10 -24 4
-3 -1 -15 -10 -26 -10 -10 -17 -22 -17 -26 1 -3 -2 -17 -7 -31 -11 -28 -15
-40 -20 -55 -1 -5 -8 -21 -15 -34 -7 -14 -11 -28 -8 -33 3 -4 1 -8 -4 -8 -9 0
-27 -62 -25 -87 0 -7 -2 -11 -6 -9 -6 4 -35 -84 -45 -134 -2 -8 -6 -22 -9 -30
-8 -18 -19 -68 -20 -92 -1 -10 -5 -18 -10 -18 -4 0 -6 -4 -3 -8 2 -4 1 -14 -4
-22 -9 -14 10 -40 29 -40 5 0 14 -7 19 -16 6 -11 17 -15 30 -12 14 4 19 2 15
-7 -2 -8 10 -20 31 -30 20 -10 36 -20 36 -24 0 -3 15 -12 33 -20 17 -8 34 -17
37 -21 10 -13 159 -110 170 -110 5 0 10 -4 10 -9 0 -16 32 -22 49 -9 14 11 14
11 3 -4 -15 -18 0 -34 21 -22 6 4 9 4 5 -1 -8 -8 113 -95 132 -95 5 0 10 -5
10 -12 0 -6 3 -9 6 -6 3 3 17 -5 31 -18 14 -13 32 -24 39 -24 8 0 14 -4 14
-10 0 -5 6 -10 14 -10 8 0 21 -6 28 -13 7 -7 25 -20 39 -29 l26 -16 -4 156
c-1 87 -5 162 -7 169 -3 6 -2 14 2 17 3 4 7 19 8 34 1 15 5 47 9 72 3 25 8 61
11 80 8 65 13 95 14 95 2 0 9 31 14 60 2 11 6 27 9 35 16 43 35 125 31 132 -3
4 0 8 5 8 6 0 11 6 11 14 0 14 34 107 51 139 5 10 7 23 3 29 -5 7 -2 8 6 3 10
-6 12 -4 7 8 -3 10 -3 17 2 17 9 0 48 82 43 89 -2 2 0 7 6 10 8 5 22 28 76
126 51 91 148 220 238 318 43 46 56 67 51 82 -3 11 -9 22 -12 25 -4 3 -20 28
-35 55 -16 28 -35 57 -42 65 -7 8 -14 22 -16 30 -2 8 -7 19 -11 25 -30 38 -86
132 -87 143 0 7 -4 10 -10 7 -5 -3 -10 1 -10 9 0 16 -60 119 -72 124 -5 2 -8
10 -8 18 0 9 -4 12 -10 9 -6 -3 -7 1 -4 9 4 9 -1 18 -10 22 -9 3 -14 9 -11 13
7 13 -26 52 -37 45 -7 -4 -8 -2 -4 4 4 6 1 23 -7 37 l-13 26 -37 -35z m307
-662 c3 -8 2 -12 -4 -9 -6 3 -10 10 -10 16 0 14 7 11 14 -7z m-483 -487 c-10
-9 -11 -8 -5 6 3 10 9 15 12 12 3 -3 0 -11 -7 -18z m-158 -302 c-3 -9 -8 -14
-10 -11 -3 3 -2 9 2 15 9 16 15 13 8 -4z m-313 1 c0 -3 -4 -8 -10 -11 -5 -3
-10 -1 -10 4 0 6 5 11 10 11 6 0 10 -2 10 -4z m-235 -326 c3 -6 -1 -7 -9 -4
-18 7 -21 14 -7 14 6 0 13 -4 16 -10z"/>
<path d="M3949 8306 c-2 -2 -35 -7 -74 -10 -38 -4 -87 -11 -107 -15 -20 -5
-39 -6 -42 -3 -19 18 -13 -40 14 -139 17 -63 33 -123 35 -134 3 -11 25 -96 51
-189 25 -93 47 -176 50 -185 14 -59 56 -217 59 -219 2 -2 61 13 131 32 71 20
143 38 159 41 17 2 41 7 55 10 14 3 45 8 70 11 25 3 52 7 60 9 13 3 63 8 214
20 27 2 52 7 57 12 5 5 66 107 135 228 178 309 176 305 172 316 -5 14 -154 80
-267 118 -189 64 -413 100 -631 100 -76 0 -139 -2 -141 -3z"/>
<path d="M3505 8219 c-125 -41 -275 -108 -395 -177 -52 -31 -194 -127 -229
-157 -129 -107 -218 -197 -305 -306 -85 -106 -87 -109 -108 -145 l-17 -30 37
-20 c20 -10 185 -105 367 -210 181 -105 341 -196 353 -203 22 -12 29 -8 96 56
132 126 235 197 404 280 62 31 114 58 116 62 2 3 -17 78 -41 166 -24 88 -46
169 -48 180 -2 11 -13 54 -25 95 -89 326 -108 399 -109 418 -1 16 -24 14 -96
-9z"/>
<path d="M4960 7802 c-74 -129 -136 -241 -138 -248 -3 -10 10 -14 50 -15 125
-2 293 -14 358 -26 131 -22 188 -127 141 -260 -49 -142 -77 -294 -76 -418 0
-66 3 -79 15 -77 8 2 22 5 30 7 8 2 92 24 185 50 94 26 180 49 192 51 12 2 34
9 48 14 14 5 25 8 25 5 0 -2 24 4 53 14 28 10 55 19 59 20 5 1 21 4 38 7 16 4
30 10 30 15 0 40 -138 343 -202 444 -147 231 -358 448 -573 592 -108 72 -82
91 -235 -175z"/>
<path d="M4627 7424 c-1 -1 -36 -5 -77 -8 -89 -8 -148 -15 -175 -20 -11 -2
-40 -7 -65 -11 -132 -20 -336 -82 -483 -146 -447 -193 -759 -576 -815 -999 -9
-69 -9 -280 0 -340 10 -68 27 -151 32 -159 3 -4 7 -18 10 -32 2 -13 48 -175
101 -359 53 -184 105 -364 115 -400 92 -334 186 -642 205 -676 29 -50 76 -91
130 -115 51 -22 113 -30 122 -16 16 26 1 121 -27 171 -42 77 -41 75 -169 556
-11 42 -31 118 -45 170 -14 52 -37 138 -51 190 -15 52 -28 102 -30 110 -2 8
-11 44 -20 80 -9 36 -19 78 -21 93 -4 35 -13 102 -19 147 -25 181 -34 397 -22
507 7 60 46 182 85 262 127 266 413 516 795 695 167 79 191 89 317 135 63 24
122 45 130 48 8 4 17 7 20 8 3 0 58 18 124 39 65 21 130 40 144 42 14 3 33 9
41 14 13 8 11 10 -9 11 -37 3 -340 6 -343 3z"/>
<path d="M5235 7363 c-57 -14 -351 -98 -420 -121 -44 -15 -82 -27 -85 -27 -10
-2 -56 -17 -75 -25 -11 -4 -81 -31 -155 -60 -482 -186 -813 -427 -965 -703
-74 -134 -110 -262 -121 -420 l-5 -82 41 69 c112 188 268 310 475 371 50 15
97 28 105 30 8 2 53 13 100 25 155 41 331 33 477 -22 70 -26 179 -89 222 -130
34 -32 36 -29 21 53 -49 285 -45 496 15 654 62 165 187 282 363 340 39 12 52
21 48 32 -3 8 -6 17 -6 19 0 4 -5 4 -35 -3z"/>
<path d="M2331 7188 c-67 -142 -100 -233 -135 -373 -22 -89 -29 -128 -41 -215
-21 -151 -21 -401 0 -515 2 -11 6 -46 10 -77 12 -97 0 -95 250 -27 121 33 227
61 236 63 87 21 225 60 230 65 4 3 9 40 13 81 3 41 8 85 10 96 2 12 7 37 10
56 18 116 100 311 186 441 27 43 50 81 50 85 0 4 -30 24 -68 44 -110 62 -157
89 -375 216 -114 67 -212 122 -217 122 -4 0 -10 3 -12 8 -1 4 -22 17 -46 30
l-43 24 -58 -124z"/>
<path d="M5168 7165 c-26 -14 -67 -44 -92 -67 -48 -46 -116 -164 -116 -202 0
-12 -3 -26 -7 -29 -12 -13 -16 -62 -17 -217 -1 -212 29 -378 137 -765 25 -88
48 -173 53 -190 4 -16 8 -32 9 -35 1 -3 5 -18 10 -35 151 -567 195 -739 201
-775 3 -25 23 -72 43 -105 20 -33 47 -82 60 -110 13 -27 25 -52 27 -54 2 -2
21 11 44 29 82 65 129 164 130 272 1 70 1 69 -24 153 -10 33 -20 67 -21 75 -2
8 -13 44 -23 80 -11 36 -41 135 -66 220 -25 85 -50 171 -56 190 -27 92 -162
556 -164 565 -6 26 -38 133 -47 155 -5 14 -11 34 -14 45 -2 11 -11 52 -20 90
-24 112 -30 171 -30 325 0 172 8 252 33 343 22 76 20 78 -50 42z"/>
<path d="M5942 6809 c-13 -5 -35 -11 -48 -13 -14 -3 -75 -19 -137 -35 -221
-61 -447 -121 -452 -121 -5 0 2 -81 10 -110 3 -8 7 -33 11 -55 3 -22 11 -49
17 -60 6 -11 10 -21 9 -22 -1 -2 -2 -4 -1 -5 0 -2 2 -11 4 -21 2 -10 17 -64
34 -120 48 -162 121 -411 125 -427 2 -8 12 -42 22 -75 10 -33 19 -62 19 -65
21 -88 13 -80 180 -173 27 -16 60 -35 72 -43 12 -8 27 -14 33 -14 31 0 168
379 185 512 2 15 6 35 9 45 2 10 7 39 10 66 3 26 8 66 12 90 12 95 6 348 -10
446 -32 184 -39 211 -60 210 -12 0 -31 -4 -44 -10z"/>
<path d="M8453 6622 c-28 -20 -49 -40 -47 -44 3 -4 -1 -5 -9 -2 -8 3 -20 -2
-27 -11 -7 -8 -18 -15 -26 -15 -7 0 -17 -6 -21 -14 -4 -8 -12 -16 -18 -17 -27
-7 -74 -42 -68 -52 3 -6 1 -7 -5 -3 -6 4 -29 -5 -52 -20 l-40 -27 35 -26 c19
-14 34 -31 35 -36 0 -6 9 -17 20 -25 11 -8 20 -19 20 -24 0 -5 8 -16 18 -25
22 -21 57 -74 54 -83 -1 -5 1 -8 6 -8 4 0 16 -17 27 -37 11 -21 24 -41 30 -45
5 -4 6 -8 2 -8 -5 0 1 -16 13 -35 12 -19 18 -35 15 -35 -4 0 -3 -6 2 -12 6 -7
16 -37 24 -65 7 -29 16 -53 19 -53 4 0 6 -10 5 -22 -1 -13 2 -36 8 -53 12 -39
17 -303 6 -333 -7 -17 -6 -21 4 -16 9 6 9 5 0 -7 -7 -8 -15 -30 -18 -49 -4
-19 -8 -39 -9 -45 -1 -5 -4 -14 -8 -20 -3 -5 -9 -26 -13 -45 -4 -19 -13 -44
-20 -55 -7 -11 -12 -30 -10 -43 1 -13 -3 -26 -8 -29 -6 -4 -7 0 -3 8 4 8 1 5
-8 -5 -8 -10 -13 -23 -10 -27 3 -5 0 -9 -5 -9 -6 0 -11 -6 -11 -14 0 -7 -7
-19 -15 -26 -9 -7 -13 -15 -10 -18 2 -3 -2 -10 -11 -16 -8 -6 -16 -21 -17 -33
0 -12 -4 -20 -8 -17 -4 2 -20 -13 -35 -34 -38 -50 -142 -153 -177 -176 -20
-12 -27 -23 -22 -34 5 -13 3 -14 -6 -5 -9 9 -16 7 -32 -8 -11 -10 -27 -19 -34
-19 -7 0 -13 -4 -13 -8 0 -4 -16 -14 -35 -21 -19 -7 -33 -17 -30 -22 3 -5 0
-6 -8 -3 -8 3 -22 -2 -31 -11 -9 -9 -16 -13 -16 -9 0 3 -6 2 -12 -4 -7 -6 -17
-11 -23 -11 -5 -1 -41 -11 -80 -23 -78 -23 -122 -31 -177 -32 -21 -1 -38 -4
-38 -7 0 -3 -18 -5 -40 -4 -23 1 -40 -3 -40 -9 0 -7 -3 -7 -8 -1 -4 6 -14 10
-22 10 -8 0 -18 -4 -22 -10 -5 -6 -8 -5 -8 2 0 7 -10 12 -22 12 -37 -1 -121
11 -150 23 -15 6 -34 8 -43 4 -8 -3 -15 0 -15 6 0 6 -3 8 -7 5 -3 -4 -12 -2
-18 3 -7 6 -24 11 -39 12 -14 1 -26 6 -26 11 0 4 -4 5 -10 2 -5 -3 -10 -1 -10
5 0 7 -6 10 -14 7 -8 -3 -17 1 -20 10 -4 8 -13 13 -21 9 -8 -3 -15 -1 -15 5 0
6 -8 8 -17 5 -10 -4 -14 -4 -10 0 5 6 -22 26 -89 67 -9 5 -12 -34 -13 -142 -1
-148 -1 -148 21 -147 13 0 26 6 30 11 5 6 8 5 8 -3 0 -9 10 -12 29 -9 29 5 48
-13 35 -34 -3 -5 1 -9 8 -9 9 0 10 -2 2 -8 -7 -4 -11 -25 -10 -47 l1 -40 310
-1 c267 0 313 2 330 15 18 15 19 15 6 -2 -13 -16 -12 -18 10 -15 13 2 29 7 35
10 6 4 14 4 18 0 4 -4 218 -7 474 -7 l467 0 -1 130 c0 72 -3 136 -7 142 -4 5
-4 13 0 17 10 10 10 116 1 116 -5 0 -6 6 -2 12 11 17 12 148 2 154 -4 3 -3 14
3 25 7 14 7 24 0 33 -6 7 -8 16 -4 19 11 12 13 58 1 51 -6 -4 -5 3 2 15 8 16
8 26 1 35 -6 7 -8 16 -4 20 10 9 11 136 1 142 -5 3 -5 10 -1 17 10 16 11 117
1 117 -5 0 -6 6 -2 12 11 17 12 148 2 154 -4 3 -3 14 3 25 7 14 7 24 0 33 -6
7 -8 16 -4 19 11 12 13 58 1 51 -6 -4 -5 3 2 15 8 17 8 26 0 36 -6 7 -7 16 -2
18 7 5 8 88 1 123 -1 5 -1 11 1 14 4 12 5 80 0 80 -3 0 -6 39 -8 88 -1 48 -4
103 -7 122 -2 19 -6 62 -10 95 -3 33 -8 67 -11 75 -3 8 -8 37 -11 65 -2 27 -9
51 -13 53 -5 2 -5 14 0 26 5 14 5 27 -1 33 -5 5 -11 24 -13 43 -3 19 -6 36 -7
38 -3 3 -6 21 -8 37 -2 23 -21 17 -78 -23z m117 -416 c0 -3 -4 -8 -10 -11 -5
-3 -10 -1 -10 4 0 6 5 11 10 11 6 0 10 -2 10 -4z m-240 -1526 c0 -5 -2 -10 -4
-10 -3 0 -8 5 -11 10 -3 6 -1 10 4 10 6 0 11 -4 11 -10z m-5 -160 c3 -5 1 -10
-4 -10 -6 0 -11 5 -11 10 0 6 2 10 4 10 3 0 8 -4 11 -10z"/>
<path d="M1169 6565 c-1 -8 -2 -18 -3 -22 -1 -5 -6 -33 -11 -63 -5 -30 -10
-59 -11 -65 -1 -5 -3 -12 -4 -15 -1 -3 -3 -18 -4 -35 -2 -16 -7 -55 -11 -85
-4 -30 -9 -68 -11 -85 -13 -105 -17 -372 -18 -1065 l-1 -785 1113 -1 1113 -1
-6 21 c-4 12 -9 31 -12 44 -3 12 -12 22 -19 22 -18 0 -174 77 -231 113 -24 15
-47 27 -53 27 -5 0 -10 4 -10 8 0 5 -19 19 -42 32 -24 13 -52 32 -62 42 -11
10 -28 20 -38 24 -10 3 -18 10 -18 15 0 5 -8 13 -17 16 -31 12 -241 215 -298
288 -16 21 -40 49 -52 61 -13 13 -23 26 -23 29 0 9 -53 79 -62 83 -5 2 -8 8
-8 12 0 5 -18 37 -40 71 -35 54 -129 239 -150 294 -4 11 -12 31 -18 45 -16 37
-59 170 -68 210 -10 43 -9 42 -17 60 -3 8 -9 33 -12 55 -11 91 -27 131 -46
119 -5 -3 -9 -1 -9 4 0 8 -156 114 -195 132 -5 3 -45 29 -87 58 -43 29 -78 49
-78 45 0 -4 -6 0 -12 9 -7 8 -29 24 -48 34 -19 11 -43 27 -54 37 -11 9 -26 17
-33 17 -7 0 -13 4 -13 9 0 5 -13 14 -30 21 -16 7 -30 16 -30 20 0 4 -8 10 -17
14 -22 7 -48 23 -86 54 -16 12 -35 22 -43 22 -8 0 -14 3 -14 8 0 7 -82 62 -94
62 -3 0 -7 -7 -7 -15z"/>
<path d="M7280 6555 c-200 -39 -369 -132 -509 -281 -129 -137 -206 -293 -241
-491 -9 -50 -15 -762 -11 -1245 l1 -58 105 0 105 0 1 33 c1 17 1 139 1 270 1
130 3 237 7 237 5 0 24 -15 103 -85 113 -100 278 -178 440 -209 69 -13 273
-14 333 -2 363 76 639 339 734 701 20 76 28 255 16 345 -51 366 -323 671 -690
770 -96 27 -295 34 -395 15z m275 -209 c53 -4 125 -22 125 -31 0 -2 -34 -68
-75 -147 -41 -78 -88 -169 -103 -200 -15 -32 -30 -58 -33 -58 -4 0 -22 30 -42
68 -19 37 -67 128 -106 203 l-71 137 32 12 c18 6 67 14 108 17 41 3 77 7 78 9
2 1 9 1 15 -1 7 -2 39 -6 72 -9z m317 -123 c155 -123 235 -236 284 -398 18
-62 25 -261 12 -335 -15 -84 -97 -257 -156 -329 l-19 -24 -11 64 c-6 35 -23
132 -38 214 -14 83 -27 159 -29 170 -6 38 -16 90 -20 105 -2 8 -6 33 -10 55
-7 51 -24 146 -40 225 -2 14 -7 39 -9 55 -3 17 -12 71 -21 120 -20 112 -23
135 -18 135 2 0 36 -26 75 -57z m-737 22 c-3 -14 -8 -37 -11 -52 -3 -16 -8
-41 -10 -58 -2 -16 -6 -41 -9 -55 -8 -38 -13 -64 -19 -106 -3 -22 -8 -50 -11
-64 -12 -59 -31 -160 -40 -220 -3 -19 -8 -46 -10 -60 -11 -52 -11 -53 -80
-459 -2 -13 -6 -25 -8 -27 -4 -5 -96 148 -118 197 -67 146 -79 330 -33 488 42
145 110 248 234 356 109 94 124 102 115 60z m249 -636 c44 -66 82 -116 86
-112 16 17 135 199 142 216 8 20 28 23 29 5 1 -17 1 -21 55 -291 26 -127 48
-241 50 -252 1 -11 10 -53 18 -93 9 -40 16 -78 16 -83 0 -19 -100 -54 -210
-74 -99 -18 -259 1 -365 43 -60 24 -60 25 -21 209 9 40 18 86 21 103 3 16 14
74 24 127 11 54 22 109 24 123 4 20 17 84 22 110 1 3 5 24 9 48 4 23 11 42 14
42 4 0 43 -54 86 -121z"/>
<path d="M7430 6225 c0 -2 8 -20 17 -39 l16 -36 19 30 c25 43 23 50 -17 50
-19 0 -35 -2 -35 -5z"/>
<path d="M7954 5944 c5 -11 8 -23 31 -154 16 -88 23 -128 30 -170 3 -14 8 -42
11 -62 11 -62 21 -34 22 55 0 124 -35 262 -81 319 -10 13 -16 18 -13 12z"/>
<path d="M6937 5907 c-32 -49 -59 -161 -62 -257 -4 -111 8 -162 20 -90 4 25 9
54 11 65 2 11 7 34 9 50 3 17 12 66 20 110 29 162 29 163 2 122z"/>
<path d="M7349 5423 c-2 -28 -7 -52 -24 -128 -9 -38 -18 -83 -20 -100 -3 -16
-7 -41 -10 -55 -15 -67 -15 -69 6 -80 12 -7 38 -13 59 -15 21 -1 42 -5 46 -7
9 -5 95 -2 147 5 15 2 37 4 50 5 51 5 51 7 12 203 -20 101 -38 185 -40 187 -2
2 -9 -7 -16 -20 -6 -12 -15 -25 -18 -28 -13 -11 -65 -95 -63 -102 1 -5 -2 -8
-7 -8 -5 0 -32 36 -60 80 -29 44 -54 80 -56 80 -3 0 -6 -8 -6 -17z"/>
<path d="M4245 6322 c-114 -19 -375 -97 -433 -129 -216 -118 -343 -332 -344
-577 0 -83 17 -186 42 -251 5 -14 12 -38 15 -53 3 -15 14 -58 24 -97 10 -38
37 -141 60 -227 22 -86 45 -168 51 -182 5 -14 7 -26 5 -26 -2 0 0 -12 6 -27 6
-16 12 -37 15 -48 10 -53 59 -221 66 -230 6 -7 9 -7 7 0 -8 27 65 193 122 277
46 68 148 174 205 214 22 16 42 33 45 38 2 5 -19 10 -47 11 -63 2 -100 27
-116 78 -10 34 -8 45 29 135 23 53 44 106 48 117 9 27 23 125 17 125 -2 0 -17
-11 -34 -25 -70 -59 -209 -70 -286 -22 -38 25 -82 71 -82 87 0 5 20 19 44 33
l45 25 22 -24 c71 -76 198 -40 243 68 11 25 21 35 33 33 10 -2 35 -4 55 -4 34
-1 38 -4 54 -47 18 -49 24 -158 12 -229 -4 -22 -25 -84 -47 -139 l-40 -98 222
6 c391 11 411 11 462 3 137 -20 286 -83 412 -173 24 -17 24 -18 8 46 -3 11 -7
28 -9 38 -2 9 -11 42 -20 73 -9 31 -19 65 -21 75 -2 11 -18 69 -35 129 -17 61
-33 121 -36 135 -3 14 -16 66 -30 115 -13 50 -34 126 -45 170 -47 177 -84 258
-159 347 -121 145 -295 229 -485 232 -44 1 -89 0 -100 -2z m436 -539 c10 -28
-32 -128 -73 -170 -70 -73 -171 -100 -254 -68 -53 20 -109 66 -130 106 -14 28
-14 29 33 53 l48 24 30 -35 c71 -81 197 -47 226 62 13 48 16 51 70 49 33 -1
44 -5 50 -21z"/>
<path d="M2790 5964 c-47 -12 -85 -24 -85 -24 0 -1 -7 -3 -15 -5 -8 -1 -35 -8
-60 -15 -25 -7 -52 -13 -60 -15 -8 -2 -55 -14 -105 -28 -49 -14 -127 -36 -173
-48 -68 -18 -82 -24 -77 -38 4 -9 8 -23 10 -32 2 -8 10 -32 19 -52 8 -21 16
-41 17 -45 24 -104 215 -453 274 -502 8 -7 15 -17 15 -21 0 -11 40 -57 145
-168 77 -81 251 -227 313 -264 l30 -17 62 107 61 107 -20 76 c-11 41 -29 107
-41 145 -12 39 -23 78 -26 88 -2 9 -6 25 -9 35 -2 9 -25 89 -51 177 -68 235
-102 364 -108 415 -3 25 -8 54 -10 65 -3 11 -5 35 -5 53 -1 17 -4 32 -8 31 -5
-1 -46 -12 -93 -25z"/>
<path d="M5634 5413 c39 -138 60 -203 66 -203 4 0 26 29 48 65 l41 64 -27 19
c-37 25 -119 72 -127 72 -3 0 -4 -8 -1 -17z"/>
<path d="M6310 5240 c-41 -27 -84 -57 -95 -68 -12 -10 -26 -17 -33 -14 -7 2
-12 -3 -12 -10 0 -8 -6 -15 -13 -15 -14 0 -100 -53 -105 -65 -2 -5 -8 -8 -13
-8 -6 0 -15 -5 -22 -10 -7 -6 -64 -44 -127 -84 -75 -48 -115 -79 -114 -90 1
-9 -1 -16 -5 -16 -4 0 -6 -15 -6 -32 1 -18 -5 -48 -12 -65 -8 -20 -9 -33 -3
-33 5 0 1 -9 -10 -20 -11 -11 -20 -25 -20 -31 0 -35 -119 -168 -171 -191 -15
-7 -25 -16 -23 -20 3 -4 0 -8 -6 -8 -6 0 -8 -5 -5 -10 4 -6 12 -32 18 -58 l12
-47 364 0 c355 0 364 0 371 20 4 11 4 27 0 34 -4 8 -4 25 1 38 6 15 5 23 -2
23 -8 0 -8 4 0 13 6 8 7 18 3 23 -4 4 0 4 8 -2 8 -6 37 -10 64 -9 l50 0 0 93
c1 50 -3 92 -8 92 -5 0 -3 7 4 15 10 12 10 15 -1 15 -12 0 -12 2 -1 9 15 9 15
20 0 39 -6 7 -7 12 -1 12 5 0 10 7 10 15 0 8 -5 15 -10 15 -5 0 -4 7 3 15 10
12 10 15 -1 15 -9 0 -10 3 -4 8 9 6 12 56 5 72 -1 3 -1 10 0 15 8 38 8 45 -1
50 -5 4 -7 11 -4 16 12 18 14 49 3 49 -7 0 -6 5 1 14 8 10 9 16 1 21 -6 3 -7
12 -3 18 10 17 10 137 0 137 -5 0 -4 7 3 15 10 12 10 15 -1 15 -9 0 -10 3 -4
8 15 11 17 32 3 32 -7 0 -47 -22 -88 -50z m-220 -240 c0 -5 -2 -10 -4 -10 -3
0 -8 5 -11 10 -3 6 -1 10 4 10 6 0 11 -4 11 -10z m238 -165 c-3 -3 -9 2 -12
12 -6 14 -5 15 5 6 7 -7 10 -15 7 -18z m-393 5 c-3 -5 -12 -10 -18 -10 -7 0
-6 4 3 10 19 12 23 12 15 0z m-85 -240 c0 -5 -2 -10 -4 -10 -3 0 -8 5 -11 10
-3 6 -1 10 4 10 6 0 11 -4 11 -10z"/>
<path d="M4616 5043 c-1 -1 -29 -4 -61 -6 -164 -12 -334 -90 -464 -212 -189
-177 -283 -463 -235 -715 22 -117 113 -439 143 -505 53 -115 146 -235 233
-297 l31 -22 -7 30 c-5 16 -9 36 -11 44 -2 8 -13 49 -24 90 -12 41 -41 152
-66 245 -25 94 -56 213 -70 265 -59 219 -64 306 -27 440 54 194 194 341 387
405 266 90 570 -34 703 -286 26 -49 70 -181 97 -289 6 -24 51 -194 90 -335 31
-115 41 -152 49 -190 1 -5 10 -37 20 -70 l18 -60 24 54 c13 30 26 63 28 75 2
12 9 41 16 66 18 62 20 223 5 300 -15 80 -79 322 -107 410 -106 329 -381 541
-731 563 -21 1 -40 1 -41 0z"/>
<path d="M3173 4695 c-18 -31 -33 -60 -33 -63 0 -7 100 -62 112 -62 8 0 5 16
-24 108 l-23 74 -32 -57z"/>
<path d="M4608 4725 c-1 -1 -24 -6 -50 -9 -135 -18 -255 -94 -331 -209 -52
-78 -54 -94 -21 -128 121 -126 319 -150 502 -62 102 50 184 157 197 259 l6 49
-44 27 c-56 36 -119 57 -182 64 -27 3 -55 7 -62 9 -6 2 -13 2 -15 0z m182 -95
c16 0 32 -41 25 -67 -12 -48 -278 -149 -447 -170 -55 -6 -80 11 -80 54 0 35
20 49 100 63 83 16 225 62 306 100 33 15 67 26 74 24 8 -2 18 -4 22 -4z"/>
<path d="M5006 4488 c-14 -77 -125 -208 -222 -262 -168 -94 -392 -100 -543
-14 -30 16 -61 36 -69 44 -23 23 -28 16 -25 -33 3 -51 16 -127 22 -135 2 -2 5
-14 7 -28 2 -14 16 -65 29 -115 46 -167 133 -489 166 -614 32 -121 33 -124 68
-138 19 -8 42 -16 50 -18 9 -2 31 -8 49 -14 29 -9 36 -7 34 10 -4 30 -11 58
-87 339 -37 135 -67 249 -68 254 -3 13 93 40 103 29 6 -7 122 -425 135 -486 2
-10 6 -26 9 -35 3 -9 12 -43 21 -75 l17 -59 71 5 c40 3 73 6 75 6 6 2 -7 65
-33 161 -14 52 -27 102 -29 111 -2 8 -11 38 -19 65 -8 27 -15 52 -16 57 0 4
-1 8 -2 10 0 1 -2 11 -5 22 -2 11 -13 52 -23 90 -21 77 -19 82 37 91 15 3 33
7 39 9 8 2 17 -12 24 -38 15 -60 127 -476 137 -512 6 -21 13 -29 26 -27 28 5
126 52 126 60 0 4 -7 32 -16 62 -8 30 -17 62 -19 71 -4 21 -61 231 -75 279 -6
19 -23 84 -39 143 l-29 108 25 10 c14 5 39 10 56 12 l30 2 34 -125 c19 -69 35
-132 37 -140 14 -57 68 -256 71 -261 2 -3 7 -21 10 -40 3 -19 10 -38 15 -43 8
-8 104 74 120 104 5 10 -4 63 -26 145 -19 72 -37 137 -39 145 -2 8 -13 49 -24
90 -12 41 -39 143 -61 225 -22 83 -48 180 -59 218 -11 37 -17 67 -13 67 3 0 1
5 -6 12 -7 7 -12 21 -12 31 0 19 -53 133 -70 150 -4 5 -10 -7 -14 -25z"/>
<path d="M6397 4316 c0 -28 2 -54 2 -58 1 -5 105 -8 231 -8 l231 0 -3 58 -3
57 -230 1 -230 1 2 -51z"/>
<path d="M1113 4260 c-15 -4 -18 -15 -17 -75 1 -38 3 -74 4 -80 1 -5 1 -14 0
-20 -7 -32 -6 -56 2 -61 4 -3 5 -10 2 -16 -10 -16 -11 -379 -1 -385 4 -2 5 -9
1 -14 -10 -17 -12 -59 -2 -65 4 -3 5 -10 1 -17 -9 -15 -10 -378 0 -384 4 -2 5
-9 1 -14 -10 -17 -12 -59 -2 -65 4 -3 5 -10 2 -16 -10 -16 -11 -379 -1 -385 4
-2 5 -9 1 -14 -10 -17 -12 -59 -2 -65 4 -3 5 -10 1 -17 -9 -15 -10 -378 0
-384 4 -2 5 -9 1 -14 -10 -17 -12 -59 -2 -65 4 -3 5 -10 2 -16 -9 -15 -12 -98
-3 -103 6 -4 82 40 125 72 18 14 49 33 64 40 27 12 165 107 168 115 2 4 8 8
14 8 6 0 36 17 67 38 31 21 61 41 66 43 29 12 115 72 115 80 0 6 5 7 10 4 6
-3 13 1 16 9 3 9 10 14 14 11 5 -3 16 2 24 11 9 8 16 13 16 9 0 -3 10 3 22 15
12 11 28 20 35 20 7 0 13 4 13 9 0 5 9 13 20 16 11 4 17 11 14 17 -5 7 -2 8 6
3 7 -4 15 -4 19 1 9 14 119 84 131 84 5 0 10 5 10 10 0 6 5 10 11 10 17 0 99
62 94 71 -3 4 4 5 15 2 11 -3 20 -1 20 4 0 5 12 15 26 21 15 7 22 17 18 24 -4
6 -3 8 4 4 6 -3 36 9 66 29 30 19 59 35 65 35 5 0 18 10 28 23 10 12 24 23 31
25 24 5 62 34 56 43 -3 5 3 6 13 2 10 -3 15 -3 11 1 -9 11 181 199 267 265 39
30 72 57 73 62 2 5 8 9 13 9 11 0 72 42 77 53 2 4 7 7 11 7 4 0 46 22 92 50
46 27 89 50 95 50 15 0 57 88 49 101 -4 5 -1 8 7 7 8 -2 13 6 12 19 0 12 3 20
7 18 9 -6 39 40 39 60 0 8 4 15 8 15 12 0 44 59 37 70 -4 6 1 7 11 3 14 -5 16
-3 11 11 -4 10 -3 15 3 11 13 -8 43 42 34 57 -6 10 -3 9 9 -1 11 -9 17 -9 17
-2 0 6 20 31 45 57 25 25 45 49 45 55 0 5 7 9 15 9 9 0 18 7 21 15 3 8 15 17
25 20 16 5 18 9 8 21 -9 12 -9 13 3 9 9 -4 22 0 29 7 8 7 31 24 51 38 21 14
38 27 38 30 0 3 -19 6 -42 7 -23 2 -46 7 -52 13 -5 5 -18 10 -28 10 -10 0 -18
3 -18 8 0 4 -14 13 -30 20 -40 18 -113 92 -142 144 l-23 42 -67 1 c-39 1 -65
-2 -61 -8 3 -5 -5 -4 -17 3 -18 10 -21 10 -14 -2 6 -10 5 -11 -7 -2 -15 11
-118 12 -136 1 -5 -4 -13 -4 -16 0 -11 10 -256 9 -250 -1 4 -5 0 -6 -7 -1 -21
13 -121 14 -113 2 4 -6 1 -7 -7 -2 -21 13 -121 14 -113 2 3 -6 1 -7 -5 -3 -21
13 -54 15 -73 6 -12 -7 -20 -7 -24 0 -5 8 -11 8 -19 1 -7 -6 -16 -8 -19 -5
-10 10 -107 11 -100 1 3 -5 -2 -6 -13 0 -21 10 -185 10 -201 0 -6 -4 -13 -4
-16 0 -11 10 -216 10 -210 -1 4 -5 1 -6 -7 -1 -20 12 -120 14 -113 2 4 -6 1
-7 -7 -2 -21 13 -121 14 -113 2 4 -6 1 -7 -7 -2 -21 13 -81 15 -73 2 4 -6 1
-7 -7 -2 -20 12 -120 14 -113 2 4 -6 1 -7 -7 -2 -18 11 -121 15 -115 4 3 -4
-3 -6 -12 -4 -10 2 -18 4 -18 5 0 4 -136 4 -152 0z m417 -60 c0 -5 -2 -10 -4
-10 -3 0 -8 5 -11 10 -3 6 -1 10 4 10 6 0 11 -4 11 -10z m320 0 c0 -5 -2 -10
-4 -10 -3 0 -8 5 -11 10 -3 6 -1 10 4 10 6 0 11 -4 11 -10z m1284 2 c3 -5 -1
-9 -9 -9 -8 0 -12 4 -9 9 3 4 7 8 9 8 2 0 6 -4 9 -8z m-1369 -642 c3 -5 1 -10
-4 -10 -6 0 -11 5 -11 10 0 6 2 10 4 10 3 0 8 -4 11 -10z m485 -154 c0 -2 -7
-7 -16 -10 -8 -3 -12 -2 -9 4 6 10 25 14 25 6z m-403 -91 c0 -8 -4 -12 -9 -9
-4 3 -8 9 -8 15 0 5 4 9 8 9 5 0 9 -7 9 -15z m878 -75 c3 -5 1 -10 -4 -10 -6
0 -11 5 -11 10 0 6 2 10 4 10 3 0 8 -4 11 -10z m-962 -155 c-3 -9 -8 -14 -10
-11 -3 3 -2 9 2 15 9 16 15 13 8 -4z m-82 -258 c-10 -9 -11 -8 -5 6 3 10 9 15
12 12 3 -3 0 -11 -7 -18z m564 -75 c-3 -3 -11 0 -18 7 -9 10 -8 11 6 5 10 -3
15 -9 12 -12z"/>
<path d="M5570 4255 c0 -37 23 -81 47 -92 15 -7 31 -13 36 -13 17 0 190 -91
248 -131 32 -22 59 -38 59 -36 0 3 17 -11 38 -30 20 -20 51 -44 67 -54 17 -10
27 -19 23 -19 -5 0 16 -24 45 -54 75 -77 117 -125 117 -134 0 -5 8 -17 18 -28
23 -25 122 -196 122 -211 0 -7 4 -14 8 -17 10 -6 9 185 0 200 -4 6 -4 14 0 18
11 12 9 70 -3 78 -7 5 -7 8 1 8 12 0 12 79 1 98 -5 6 -4 12 0 12 5 0 8 63 8
140 0 118 -2 140 -15 141 -8 1 -34 2 -58 4 -23 1 -45 5 -49 8 -8 9 -10 77 -2
77 3 0 4 10 2 23 l-4 22 -355 0 c-230 0 -354 -3 -354 -10z"/>
<path d="M6981 4260 c-12 -8 -11 -101 1 -94 5 3 4 -3 -3 -13 -9 -16 -23 -19
-68 -19 l-56 1 -3 -527 -2 -527 27 -18 c16 -10 33 -22 39 -28 7 -5 26 -21 44
-35 41 -32 140 -133 140 -142 0 -5 4 -8 9 -8 4 0 58 -33 119 -74 61 -41 113
-72 116 -68 3 3 6 0 6 -6 0 -7 7 -12 15 -12 8 0 15 -4 15 -8 0 -5 12 -15 28
-23 15 -8 29 -17 32 -20 3 -3 34 -23 69 -45 35 -21 73 -46 86 -54 13 -8 58
-37 101 -65 44 -27 81 -52 84 -55 3 -3 13 -9 22 -15 10 -5 63 -39 118 -75 55
-36 108 -70 117 -75 10 -6 56 -35 103 -66 177 -116 290 -189 296 -189 2 0 10
-5 17 -11 25 -21 162 -107 167 -104 3 2 5 538 5 1191 l-1 1189 -818 0 c-450 0
-821 -2 -825 -5z"/>
<path d="M6525 4131 c-3 -2 -5 -483 -5 -1068 0 -1005 1 -1063 18 -1064 57 -4
184 0 189 5 7 6 11 2088 5 2117 -3 13 -20 16 -103 15 -55 0 -102 -2 -104 -5z"/>
<path d="M5615 3932 c0 -59 -3 -127 -7 -152 -18 -121 -97 -299 -179 -407 -193
-250 -528 -385 -832 -337 -113 18 -130 22 -190 45 -245 94 -433 277 -527 513
-17 43 -33 86 -35 95 -3 17 -52 204 -61 234 -5 15 -10 14 -50 -14 -25 -17 -72
-53 -105 -81 l-61 -50 7 -69 c3 -39 10 -81 15 -94 5 -14 8 -25 5 -25 -8 0 45
-142 75 -202 45 -88 83 -140 161 -221 65 -68 69 -70 87 -54 37 34 61 22 166
-82 111 -109 132 -119 294 -145 84 -13 763 -15 841 -2 353 59 645 301 756 626
12 36 23 68 24 73 0 4 1 8 2 10 5 15 13 103 13 141 l1 49 -89 72 c-48 40 -137
97 -196 129 -59 31 -109 56 -111 56 -2 0 -4 -48 -4 -108z"/>
<path d="M3397 3568 c-86 -130 -105 -175 -101 -232 12 -157 105 -300 275 -427
37 -27 73 -49 80 -49 8 0 49 35 91 78 l77 77 -68 70 c-74 76 -146 176 -190
264 -41 80 -87 229 -90 289 -2 27 -22 8 -74 -70z"/>
<path d="M6117 3613 c-21 -129 -98 -308 -182 -418 -153 -203 -349 -333 -604
-403 l-96 -27 -443 0 -443 0 58 -56 58 -55 390 1 c409 2 491 6 631 35 169 34
333 96 464 174 121 72 245 197 293 296 20 41 39 88 41 104 20 116 21 110 -26
199 -44 82 -116 187 -129 187 -3 0 -9 -17 -12 -37z"/>
<path d="M3060 3203 c-74 -44 -223 -157 -291 -221 -61 -58 -63 -61 -34 -58 33
4 59 -6 91 -36 22 -20 22 -19 135 29 84 36 113 53 115 68 2 11 5 40 8 65 5 43
21 126 32 163 7 23 -3 21 -56 -10z"/>
<path d="M6384 3204 c-92 -291 -405 -521 -838 -616 -56 -12 -103 -23 -105 -25
-5 -3 25 -115 119 -438 44 -154 83 -287 85 -295 5 -21 42 -152 190 -665 69
-242 128 -447 130 -455 2 -8 12 -44 23 -80 24 -80 53 -179 83 -285 12 -44 30
-110 41 -146 l19 -66 137 1 137 1 0 435 0 435 -45 2 c-111 7 -200 78 -219 176
-5 29 -9 185 -7 347 2 326 4 340 67 401 39 38 91 61 144 65 22 1 45 3 51 3 12
1 14 1204 2 1217 -4 4 -10 -2 -14 -12z"/>
<path d="M3217 3144 c-2 -5 -8 -29 -12 -54 -3 -25 -9 -58 -12 -75 -3 -16 -6
-120 -7 -230 l-3 -200 50 -47 c28 -27 53 -48 56 -48 14 0 285 283 275 287 -6
2 -35 22 -64 43 -114 85 -203 185 -253 284 -13 26 -27 44 -30 40z"/>
<path d="M3522 2557 c-237 -238 -432 -440 -432 -450 0 -9 64 -80 141 -158 105
-106 149 -143 168 -144 57 -3 92 -18 120 -50 32 -37 47 -89 36 -124 -15 -49
18 -19 114 103 30 38 31 40 14 59 -10 10 -91 93 -180 183 -90 89 -163 166
-163 170 0 3 138 145 307 315 l308 309 622 -622 c343 -343 623 -625 623 -628
0 -8 -611 -620 -619 -620 -3 0 -56 50 -116 110 -60 61 -113 110 -117 110 -4 0
-14 -13 -23 -30 -8 -16 -36 -53 -61 -81 l-46 -52 153 -153 c85 -85 161 -154
170 -154 15 0 870 848 878 871 3 10 -1446 1469 -1459 1469 -3 0 -200 -195
-438 -433z"/>
<path d="M6848 2907 c-7 -67 1 -77 95 -118 48 -20 87 -33 87 -28 0 10 -128
142 -161 167 -15 11 -17 8 -21 -21z"/>
<path d="M3006 2811 l-59 -26 59 -52 c32 -29 60 -51 62 -49 5 5 6 145 1 150
-2 2 -30 -8 -63 -23z"/>
<path d="M2675 2787 c-11 -7 -21 -12 -22 -13 -2 0 9 -54 23 -120 14 -65 27
-129 29 -141 2 -11 6 -30 9 -41 4 -11 9 -33 11 -48 2 -16 15 -78 29 -139 45
-206 47 -210 104 -221 25 -5 36 -1 58 21 l27 27 -6 126 c-6 153 -18 190 -114
362 -123 221 -113 208 -148 187z"/>
<path d="M2335 2680 c-22 -16 -44 -33 -50 -37 -5 -4 -22 -14 -37 -22 -16 -8
-28 -18 -28 -23 0 -4 -4 -8 -10 -8 -15 0 -200 -121 -200 -131 0 -5 -3 -8 -7
-7 -9 1 -46 -13 -53 -21 -12 -14 -70 -51 -80 -51 -5 0 -10 -4 -10 -10 0 -5 -4
-10 -9 -10 -6 0 -38 -19 -73 -43 -35 -23 -85 -56 -112 -72 -77 -47 -78 -48
-144 -93 -35 -23 -67 -42 -71 -42 -4 0 -16 -9 -28 -19 -11 -10 -35 -27 -53
-36 -18 -9 -42 -26 -53 -36 -12 -10 -26 -19 -31 -19 -6 0 -24 -11 -39 -25 -15
-14 -27 -24 -27 -21 0 5 -58 -31 -95 -59 -10 -8 -22 -15 -25 -15 -11 0 -4
-1464 8 -1503 36 -127 148 -217 290 -233 94 -11 251 -11 245 -1 -4 6 -1 7 8 1
15 -9 499 -13 499 -4 0 3 -26 30 -58 61 -31 31 -71 76 -87 100 -17 24 -32 46
-35 49 -16 14 -80 168 -80 191 0 10 -3 19 -7 19 -16 0 -24 233 -10 300 3 19
11 55 16 80 5 25 7 48 5 52 -2 4 0 9 5 12 5 3 12 27 16 53 5 27 9 53 11 58 7
28 37 172 39 185 1 8 5 26 9 40 4 14 8 36 10 50 2 14 6 32 10 41 4 9 6 20 5
25 -1 5 1 16 4 24 5 12 38 162 52 237 2 10 4 20 5 23 1 3 3 10 4 15 2 10 15
74 23 110 2 11 5 25 7 30 5 16 19 89 21 105 1 8 5 22 8 30 4 8 8 31 11 50 2
19 5 35 6 35 1 0 3 7 5 15 4 22 46 213 49 225 2 6 8 23 14 38 7 16 12 33 12
38 0 5 5 9 12 9 6 0 8 3 5 6 -4 4 2 19 13 34 11 16 20 31 20 34 0 3 10 17 23
32 12 14 20 28 19 31 -2 3 0 9 5 12 4 3 16 22 25 41 9 19 22 45 28 58 13 28
13 28 -35 -8z"/>
<path d="M6849 2686 c0 -9 -1 -69 -2 -133 l0 -118 54 -3 c139 -8 267 -53 350
-123 l48 -40 -11 38 c-30 110 -110 219 -203 278 -27 17 -86 47 -130 65 -44 19
-86 38 -92 43 -9 7 -13 4 -14 -7z"/>
<path d="M7251 2630 c16 -27 36 -51 44 -54 8 -3 15 -11 15 -18 0 -8 8 -21 18
-30 23 -22 42 -46 42 -53 0 -3 7 -22 16 -43 10 -20 18 -40 19 -44 2 -5 4 -11
5 -15 1 -5 2 -11 1 -15 0 -5 3 -8 7 -8 4 0 9 -15 10 -32 1 -18 7 -46 12 -63 5
-16 14 -57 20 -90 13 -74 29 -134 41 -157 6 -11 6 -18 0 -18 -11 0 5 -57 23
-79 8 -11 8 -13 -1 -7 -18 10 -16 -10 3 -28 8 -9 11 -16 6 -16 -5 0 -7 -11 -4
-25 2 -14 7 -23 11 -21 3 2 6 -10 7 -27 0 -18 4 -45 8 -62 4 -16 9 -43 12 -59
2 -17 10 -33 17 -38 9 -6 9 -8 -2 -8 -10 0 -11 -3 -2 -13 6 -8 9 -16 6 -19 -3
-2 0 -20 6 -39 12 -42 18 -65 24 -104 2 -16 7 -43 11 -60 3 -16 7 -36 7 -42 0
-7 4 -13 8 -13 4 0 6 -8 5 -17 -2 -10 3 -40 10 -68 7 -27 15 -63 18 -80 2 -16
5 -31 6 -32 4 -5 7 -22 9 -44 1 -13 5 -18 14 -13 9 6 9 5 0 -8 -7 -8 -10 -18
-6 -21 3 -4 8 -21 10 -39 2 -18 7 -34 11 -37 4 -4 7 -15 8 -26 1 -23 11 -89
19 -125 13 -59 2 -247 -15 -264 -13 -13 -13 -29 1 -21 5 4 1 -10 -10 -31 -12
-21 -21 -47 -21 -56 0 -10 -5 -18 -11 -18 -6 0 -8 -7 -5 -15 3 -9 -1 -18 -9
-21 -8 -4 -12 -10 -9 -15 3 -5 -2 -12 -10 -15 -9 -3 -14 -10 -11 -14 2 -4 -4
-18 -15 -30 -11 -13 -20 -26 -20 -29 0 -9 -117 -131 -121 -126 -2 1 -10 -3
-17 -11 -15 -17 -17 -16 35 -19 27 -1 40 2 36 8 -4 6 -1 7 7 2 22 -13 121 -14
113 -1 -3 7 -1 6 7 -1 9 -9 19 -9 33 -2 11 6 17 7 14 2 -3 -4 30 -8 73 -8 44
0 76 4 72 9 -3 5 1 6 8 1 18 -11 121 -15 115 -4 -3 4 3 6 12 4 10 -2 18 -4 18
-5 0 -1 21 -3 47 -4 28 -1 45 1 41 7 -4 6 -1 7 7 2 20 -12 121 -14 114 -3 -4
6 0 6 12 0 16 -8 51 -8 152 0 6 1 12 5 12 10 0 4 3 7 8 6 12 -3 82 23 82 31 0
4 11 14 25 21 13 7 22 17 19 22 -3 4 2 8 11 8 9 0 13 5 10 10 -3 6 -1 10 4 10
6 0 11 7 11 15 0 7 6 18 14 22 8 4 14 10 14 13 0 3 5 24 11 48 7 23 9 47 6 52
-3 6 -2 10 3 10 5 0 9 7 9 15 0 8 -5 15 -11 15 -7 0 -7 3 -1 8 13 9 15 92 3
92 -7 0 -7 4 -1 13 13 15 13 47 0 47 -5 0 -4 7 3 15 9 11 10 18 1 28 -6 8 -8
17 -4 20 11 12 13 58 1 51 -6 -4 -5 3 2 15 8 16 8 26 1 35 -6 7 -8 16 -4 20
10 9 10 277 1 282 -5 3 -3 14 3 25 7 14 7 24 0 33 -7 9 -7 16 2 26 10 10 9 11
-2 5 -10 -6 -12 -4 -5 6 11 19 13 78 2 85 -5 3 -4 12 3 20 9 11 8 14 -2 14 -9
0 -10 3 -4 8 14 10 14 53 1 45 -6 -4 -5 0 2 9 9 12 10 18 2 23 -8 5 -8 10 0
20 8 10 8 15 0 20 -8 5 -8 10 0 20 8 10 7 14 -2 18 -10 4 -10 6 -1 6 9 1 10 8
3 25 -6 17 -5 26 3 29 9 3 9 8 -1 19 -10 12 -10 18 -1 23 8 6 7 10 -2 16 -8 5
-9 9 -4 9 11 0 14 124 3 135 -4 4 -3 16 3 26 8 15 5 24 -15 44 -14 14 -30 25
-36 25 -5 0 -10 5 -10 10 0 6 -5 10 -11 10 -6 0 -24 9 -40 21 -16 11 -29 18
-29 15 0 -3 -11 5 -24 17 -13 13 -37 29 -53 37 -15 8 -30 18 -33 21 -3 4 -30
21 -60 40 -30 18 -57 36 -60 39 -3 3 -30 21 -60 39 -30 19 -58 38 -61 43 -3 5
-10 10 -15 10 -5 0 -49 27 -97 60 -49 32 -94 59 -100 61 -7 1 -15 5 -18 10
-15 20 -143 96 -153 90 -6 -3 -7 -2 -3 2 9 10 -152 117 -165 109 -5 -3 -7 0
-6 8 2 7 -3 12 -9 11 -7 -2 -13 1 -13 6 0 8 -95 71 -108 71 -4 0 -16 9 -25 21
-10 11 -25 18 -33 15 -10 -4 -12 -2 -8 6 5 8 2 9 -9 5 -9 -3 -16 -2 -14 2 2
10 -68 61 -83 61 -6 0 -10 4 -10 9 0 5 -9 11 -19 14 -17 4 -16 -1 10 -43z
m194 -230 c3 -5 1 -10 -4 -10 -6 0 -11 5 -11 10 0 6 2 10 4 10 3 0 8 -4 11
-10z m1126 -837 c13 -16 12 -17 -3 -4 -10 7 -18 15 -18 17 0 8 8 3 21 -13z
m-240 -80 c13 -16 12 -17 -3 -4 -10 7 -18 15 -18 17 0 8 8 3 21 -13z m164 -83
c3 -6 -1 -7 -9 -4 -18 7 -21 14 -7 14 6 0 13 -4 16 -10z m-721 -478 c3 -5 -1
-9 -9 -9 -8 0 -12 4 -9 9 3 4 7 8 9 8 2 0 6 -4 9 -8z m561 -82 c3 -6 -1 -7 -9
-4 -18 7 -21 14 -7 14 6 0 13 -4 16 -10z m150 -160 c3 -5 1 -10 -4 -10 -6 0
-11 5 -11 10 0 6 2 10 4 10 3 0 8 -4 11 -10z m0 -320 c3 -5 1 -10 -4 -10 -6 0
-11 5 -11 10 0 6 2 10 4 10 3 0 8 -4 11 -10z m-795 -156 c0 -8 -19 -13 -24 -6
-3 5 1 9 9 9 8 0 15 -2 15 -3z"/>
<path d="M2942 2623 c2 -5 19 -39 39 -78 31 -61 50 -115 64 -188 3 -10 5 -39
6 -63 l3 -45 78 78 78 77 -29 26 c-15 14 -41 36 -57 50 -168 145 -192 164
-182 143z"/>
<path d="M2504 2586 c-63 -42 -137 -126 -168 -191 -23 -47 -48 -132 -60 -200
-3 -16 -8 -39 -10 -50 -3 -11 -14 -65 -26 -120 -11 -55 -25 -116 -30 -135 -5
-19 -12 -50 -15 -67 -3 -18 -12 -61 -20 -95 -8 -35 -17 -79 -20 -98 -3 -19
-10 -53 -16 -75 -15 -61 -18 -74 -34 -155 -21 -104 -20 -99 -54 -260 -17 -80
-36 -161 -41 -180 -5 -19 -12 -53 -15 -75 -4 -22 -8 -48 -11 -57 -9 -32 -6
-173 6 -223 47 -208 208 -380 415 -445 65 -21 92 -22 368 -24 l297 -2 0 137 0
136 -47 6 c-95 12 -172 40 -261 95 -285 175 -408 525 -292 833 62 167 215 308
388 360 23 7 41 16 40 19 -2 4 -37 44 -79 88 -84 89 -112 139 -128 228 -17 98
-18 104 -49 239 -16 72 -40 178 -52 238 -13 59 -26 107 -29 106 -3 0 -29 -15
-57 -33z"/>
<path d="M3727 2381 c-125 -126 -227 -232 -227 -235 0 -4 63 -70 140 -148 113
-112 143 -138 154 -129 8 7 24 14 37 16 23 5 149 122 149 139 0 5 -29 38 -65
73 -65 62 -66 63 -49 86 10 13 28 31 41 41 23 17 24 16 76 -36 93 -92 79 -91
157 -13 l70 69 40 -39 40 -39 -70 -71 -71 -71 162 -163 161 -163 -38 -39 -38
-39 -25 23 c-13 12 -86 84 -162 160 l-138 138 -42 -38 -41 -37 26 -22 c14 -12
40 -46 58 -76 18 -29 42 -67 53 -84 11 -17 56 -103 100 -190 l80 -159 137
-140 137 -140 233 233 233 232 -545 545 -545 545 -228 -229z"/>
<path d="M4632 2540 l-52 -5 268 -268 268 -268 0 265 c-1 145 -4 267 -7 270
-8 8 -406 13 -477 6z"/>
<path d="M5230 2211 l0 -326 165 -165 c97 -97 167 -175 170 -190 4 -20 -23
-51 -165 -195 l-170 -172 2 -514 3 -514 388 -1 c264 0 387 3 387 10 0 6 -32
121 -71 256 -39 135 -72 252 -74 260 -2 8 -22 78 -45 155 -23 77 -43 148 -45
158 -2 10 -16 57 -30 105 -15 47 -28 93 -30 102 -2 8 -40 141 -85 294 -45 154
-83 287 -85 295 -2 9 -27 95 -55 191 -28 96 -58 198 -66 225 -7 28 -33 118
-57 200 l-43 150 -47 1 -47 1 0 -326z"/>
<path d="M6862 2283 c3 -35 5 -38 38 -40 74 -5 101 -15 133 -48 71 -73 71
-203 0 -267 -46 -42 -76 -46 -378 -46 -159 0 -302 -1 -317 -1 -33 -1 -88 -54
-88 -84 l0 -22 240 0 c161 1 240 -2 243 -9 2 -10 2 -60 -2 -92 -1 -8 -73 -11
-236 -11 -130 0 -239 -3 -242 -7 -4 -4 -8 -27 -8 -52 0 -32 4 -44 15 -45 8 0
117 -1 242 -1 157 -1 228 -4 230 -12 3 -10 3 -45 -1 -86 -1 -14 -30 -16 -223
-15 -123 0 -232 -1 -243 -3 -18 -3 -21 -10 -20 -48 1 -24 4 -47 8 -50 3 -4
113 -6 244 -6 l239 1 -2 -47 c-1 -26 -2 -52 -3 -57 -1 -7 -84 -10 -241 -10
-239 1 -240 0 -240 -21 0 -30 46 -72 85 -80 42 -7 600 1 638 10 253 60 366
224 361 521 -8 476 -109 634 -421 661 l-54 4 3 -37z"/>
<path d="M6848 2113 c-2 -10 -1 -40 2 -67 5 -47 6 -50 35 -50 49 1 75 14 82
42 16 63 -7 92 -73 92 -32 0 -43 -4 -46 -17z"/>
<path d="M2991 1996 c-17 -21 -73 -45 -109 -48 -18 -1 -32 -3 -32 -4 0 -1 72
-75 160 -165 l160 -164 57 58 56 57 -34 36 c-47 50 -242 244 -244 244 -2 0 -8
-6 -14 -14z"/>
<path d="M3854 1770 c-12 -5 -61 -59 -110 -122 -49 -62 -99 -124 -111 -138
-12 -14 -31 -36 -43 -50 -54 -64 -178 -198 -208 -224 -59 -52 -122 -33 -122
38 0 34 63 168 129 276 26 41 50 83 54 92 6 17 -15 48 -33 48 -16 0 -201 -205
-262 -291 -122 -172 -163 -280 -156 -410 4 -66 10 -91 42 -152 58 -116 186
-233 306 -282 65 -26 197 -28 268 -4 55 19 136 62 158 84 7 6 25 22 40 36 16
13 61 60 99 104 39 44 73 82 76 85 3 3 62 74 132 158 128 154 140 176 121 226
-12 31 -18 27 -131 -101 -31 -34 -67 -75 -82 -91 -14 -15 -64 -71 -111 -122
-137 -152 -121 -142 -163 -104 -29 24 -28 35 4 64 3 3 27 32 55 65 47 57 87
104 109 129 6 6 44 52 85 101 41 50 82 98 91 107 10 10 29 33 44 52 l26 34
-22 43 -21 43 -42 -45 c-22 -25 -61 -70 -86 -99 -25 -29 -50 -58 -55 -64 -6
-6 -62 -72 -125 -146 -133 -157 -136 -160 -146 -160 -3 0 -24 15 -44 34 -36
32 -37 35 -22 53 10 10 39 45 67 78 27 33 62 74 77 90 32 36 52 60 97 115 19
24 40 48 46 54 6 6 48 55 93 108 l83 98 -31 30 c-30 29 -50 38 -50 23 0 -5
-15 -24 -33 -43 -18 -19 -86 -98 -152 -175 -66 -77 -124 -145 -130 -151 -23
-24 -108 -124 -120 -140 -11 -16 -16 -15 -54 15 -42 33 -51 54 -28 68 6 4 34
35 62 68 27 33 54 65 60 71 5 6 28 32 50 59 22 26 47 55 56 64 8 9 37 43 65
76 27 33 54 65 60 70 29 27 114 133 114 142 0 6 -10 13 -22 17 -28 7 -28 7
-54 -4z"/>
<path d="M2905 1596 c-105 -34 -154 -63 -220 -130 -104 -106 -147 -225 -141
-386 3 -52 11 -117 20 -143 63 -195 253 -373 430 -403 71 -12 71 -11 74 27 3
32 -4 44 -48 95 -100 114 -141 213 -145 348 -4 142 47 283 160 440 30 42 55
80 55 84 0 14 -85 92 -100 91 -8 0 -46 -11 -85 -23z"/>
<path d="M7442 1508 c-15 -214 -179 -411 -393 -472 -61 -18 -119 -28 -161 -28
-15 1 -31 -4 -34 -10 -5 -8 -9 -766 -5 -849 1 -15 16 -17 129 -14 139 3 195
14 290 56 235 105 382 377 341 629 -4 25 -21 108 -38 185 -91 424 -93 433
-106 485 -2 8 -4 23 -4 33 -2 30 -17 18 -19 -15z"/>
<path d="M4850 786 c-179 -176 -268 -257 -297 -270 -30 -13 -43 -25 -44 -40 0
-12 -1 -93 -2 -181 l-1 -160 305 0 304 0 1 448 c0 247 -2 450 -6 452 -3 2
-120 -110 -260 -249z"/>
<path d="M6520 569 l0 -436 98 1 c53 1 102 4 107 8 6 4 9 157 9 430 -1 232 -2
426 -3 429 -1 4 -48 6 -106 6 l-105 -1 0 -437z"/>
<path d="M4130 862 c0 -4 -22 -30 -50 -57 -27 -28 -50 -53 -50 -57 0 -3 49
-56 110 -117 126 -128 133 -130 230 -79 l61 32 -143 143 c-133 133 -158 155
-158 135z"/>
<path d="M3896 600 c-26 -27 -81 -69 -120 -92 l-72 -43 -43 -150 c-23 -82 -44
-157 -47 -166 -4 -13 38 -15 386 -15 214 0 390 3 391 6 4 23 3 274 -2 281 -3
6 -20 4 -40 -5 -43 -17 -105 -14 -149 9 -19 10 -80 64 -136 121 -55 57 -105
104 -110 104 -5 0 -31 -23 -58 -50z"/>
<path d="M3185 323 c0 -98 3 -180 7 -183 4 -3 71 -5 149 -5 115 0 144 3 150
15 9 16 79 254 79 267 0 5 -41 7 -90 6 -101 -2 -137 6 -226 48 -33 16 -63 29
-65 29 -2 0 -4 -80 -4 -177z"/>
</g>
</svg>
