<?xml version="1.0" encoding="UTF-8"?>
<svg id="_Шар_1" data-name="Шар 1" xmlns="http://www.w3.org/2000/svg" xmlns:xlink="http://www.w3.org/1999/xlink" version="1.1" viewBox="0 0 1020 244">
  <defs>
    <style>
      .cls-1 {
        isolation: isolate;
        opacity: .8;
      }

      .cls-1, .cls-2, .cls-3, .cls-4, .cls-5, .cls-6 {
        stroke-width: 0px;
      }

      .cls-1, .cls-4 {
        fill: #1b143b;
      }

      .cls-7 {
        clip-path: url(#clippath);
      }

      .cls-2 {
        fill: none;
      }

      .cls-3 {
        fill: #1b153b;
      }

      .cls-8 {
        mask: url(#mask);
      }

      .cls-5 {
        fill-rule: evenodd;
      }

      .cls-5, .cls-6 {
        fill: #fff;
      }
    </style>
    <clipPath id="clippath">
      <rect class="cls-2" y=".17" width="195" height="243"/>
    </clipPath>
    <mask id="mask" x="0" y=".17" width="195" height="243.01" maskUnits="userSpaceOnUse">
      <g id="mask0_279_18128" data-name="mask0 279 18128">
        <path class="cls-6" d="M195,.17H0v243h195V.17Z"/>
      </g>
    </mask>
  </defs>
  <g class="cls-7">
    <g class="cls-8">
      <g>
        <path class="cls-3" d="M9.94,243.16h174.12c6.6,0,10.94-4.36,10.94-10.97V97.87C195,43.92,151.34.17,97.5.17S0,43.92,0,97.87v134.34c0,6.61,4.34,10.97,10.94,10.97h-1,.01v-.02Z"/>
        <path class="cls-6" d="M81.43,211.46l-10.75,11.91-.95-.81-.81-.69.53-.63.93-1.1.09-.1.2-.24.65-.77,1.43-1.68,1.29-1.53.94-1.1.93-1.11,2.3-2.7,1.11-1.32.7-.83-1.15-2.19-1.19,1.38-.69.81-2.67,3.11-.07.08-.94,1.11-.94,1.1-.32.37-2.26,2.64-.14.17-.95,1.1-.19.23-.74.86-.08.1-2.18-1.88.23-.26.69-.83.23-.27.94-1.11,2.71-3.17.93-1.1.47-.54.47-.56,1.79-2.08.87-1.03.76-.9.62-.73,1.15-1.34.11-.13-.37-.38-.27-.27-.99-1-.33.38-1.57,1.82-.68.79-.14.16-2.61,3.04-.95,1.09-.94,1.1-2.72,3.13-.94,1.11-.25.29-.48.56-2.18-1.89.62-.72.25-.3.95-1.09,2.69-3.14.94-1.09.95-1.1,2.53-2.94.9-1.05,1.89-2.2.66-.77c-.55-.47-1.24-.62-1.87-.43-.37.11-.74.33-1.03.67l-.11.16c-.29.38-.59.78-.91,1.21l-.46.59-.22.29c-.08.1-.15.18-.22.27-.11.13-.21.28-.32.41-.09.12-.17.22-.26.34l-.05.05c-.1.12-.19.24-.29.37-.1.13-.19.24-.28.35-.35.45-.66.84-.92,1.15-.1.12-.19.23-.27.33-.49.6-.93,1.12-.93,1.12-.31.36-.61.72-.94,1.09-.85.99-1.78,2.01-2.76,3.06-.33.35-.66.69-.99,1.04-.1.1-.19.19-.29.29-.19.2-.38.4-.58.6-.04.04-.09.09-.13.12-.27.27-.61.56-.99.71-.23.09-.85.27-1.47-.13-.6-.4-.7-1.02-.72-1.24-.04-.46.11-.94.2-1.25.08-.24.18-.51.31-.79.06-.16.12-.32.19-.47.08-.17.16-.35.25-.53.06-.12.12-.26.19-.39.21-.43.45-.89.7-1.36.62-1.17,1.38-2.42,2.14-3.62.18-.28.37-.56.55-.84.11-.15.16-.32.16-.48.03-.31-.1-.61-.33-.77-.16-.13-.37-.17-.57-.14-.16.02-.32.1-.43.21-.23.23-.46.47-.68.7-.96.99-1.89,1.99-2.76,2.98-.33.38-.64.74-.94,1.11-.11.12-.19.23-.29.34-.21.26-.42.51-.62.77-.4.51-.78,1.02-1.15,1.53v.04c-.17.23-.33.46-.48.69-.25.36-.48.71-.7,1.08-.16.27-.32.54-.47.81-.15.26-.29.53-.43.8-.27.54-.51,1.08-.72,1.62-.11.3-.21.59-.31.88l-.19.7c-.08.35-.15.68-.21,1.02v.02c-.03.17-.05.35-.06.52-.02.12-.03.24-.03.37-.02.19-.03.38-.03.57v.1c0,.23,0,.45.03.68,0,.07,0,.13.02.19v.03c0,.15.03.32.06.48,0,.14.04.28.07.42v.03c.05.22.1.43.16.65v.05c.04.13.09.28.13.41,0,.05.03.1.05.15.02.05.03.1.05.14.05.13.1.24.14.37,0,.02.02.04.03.06.04.1.09.2.13.3,0,.03.03.07.04.1.07.15.14.3.23.45.11.22.25.45.38.68s.28.45.44.67c.02.03.04.05.06.08,0,0,.02.03.03.04.14.2.29.4.45.6.2.24.4.48.62.72.15.16.31.34.48.51.05.06.09.1.13.14,3.92,3.92,7.65,4.51,10.72,3.84.37-.09.75-.18,1.1-.3.59-.2,1.17-.44,1.7-.7.65-.35,1.27-.72,1.83-1.13,1.07-.76,1.96-1.62,2.6-2.39l.02-.03.37-.42.95-1.07.97-1.08,2.67-3.13.99-1.15,1-1.2,1.71-2.08s.22-.27.47-.56c.55-.67.65-1.6.24-2.37l-.32-.6h-.04Z"/>
        <path class="cls-6" d="M144.32,139.77v53.42h-5.32v-53.42h5.32Z"/>
        <path class="cls-6" d="M93.03,3.73c-.42.02-.84.04-1.26.07-.4.02-.79.05-1.21.08-.25,0-.49.03-.73.06-1.09.09-2.19.19-3.27.33-.33.04-.66.07-.98.12-.14,0-.29.03-.43.06-.27.03-.53.06-.78.11-.11,0-.23.03-.34.05-.22.03-.43.06-.64.1h-.04c-.58.09-1.17.17-1.74.28-.04,0-.09,0-.13.02-.45.08-.9.15-1.36.25-.84.15-1.69.32-2.53.51-.18.04-.36.08-.55.13-.64.13-1.29.28-1.93.44-.7.16-1.41.35-2.09.54-.54.14-1.07.29-1.61.44-.13.04-.26.08-.39.12-.11.04-.22.07-.33.1-1.26.38-2.51.77-3.75,1.2-.15.05-.31.1-.45.15-.15.05-.31.11-.46.16-.46.16-.93.34-1.4.51-.62.23-1.26.47-1.88.72-.63.25-1.27.51-1.9.78-.49.2-.97.41-1.46.64-.26.12-.51.23-.76.35-1.1.5-2.19,1.02-3.27,1.57-.6.3-1.21.61-1.8.93-.5.26-.99.53-1.49.81-.68.38-1.36.76-2.03,1.16-.52.3-1.03.61-1.55.93-.51.31-1,.63-1.51.94-.22.13-.43.28-.65.42-.55.36-1.1.72-1.65,1.1-.48.33-.97.67-1.45,1.01-.42.3-.84.6-1.27.92-.76.56-1.52,1.13-2.27,1.72-.36.29-.74.58-1.1.88-.81.66-1.63,1.33-2.41,2.01-.36.31-.72.63-1.07.94-.37.33-.74.66-1.1.99-.41.38-.81.75-1.22,1.14l10.33,17.13c6.03-5.65,13.48-9.94,21.98-12.22,10.13-2.72,20.37-2.25,29.64.82V3.66c-.56.02-1.12.04-1.68.07h-.05.02Z"/>
        <path class="cls-6" d="M68.22,142.66c-5.68,3.77-10.16,9.14-12.82,15.51-6.79,3.34-12.46,8.01-16.51,12.86L3.38,193.92v-57.38h56.34c1.44,3.52,4.8,5.85,8.49,6.12h.01Z"/>
        <path class="cls-6" d="M35.74,175.36c-.77,1.23-1.43,2.45-1.97,3.64-1.57,1.87-2.69,4.11-3.21,6.56l-7.62,35.45c-1.59,7.36,1.59,14.47,7.2,18.78H13.13c-1.73,0-3.46-.27-5.05-.96-.23-.1-.45-.21-.67-.33-.21-.12-.42-.25-.62-.39-.21-.14-.41-.29-.59-.44-.19-.15-.37-.33-.55-.5-.61-.61-1.12-1.32-1.5-2.11-.08-.15-.14-.32-.21-.48-.03-.07-.06-.13-.08-.21-.07-.15-.11-.32-.16-.49-.06-.19-.11-.4-.15-.6,0-.05-.02-.1-.03-.15-.04-.2-.07-.4-.09-.62v-.04c-.03-.25-.04-.49-.04-.74v-35.53l32.36-20.85h0Z"/>
        <path class="cls-6" d="M59.09,134.61H3.38v-36.72c0-1.66.04-3.31.12-4.94.05-.82.1-1.64.16-2.46.04-.6.1-1.19.15-1.78.02-.2.04-.4.06-.6.03-.29.06-.57.1-.85.06-.54.12-1.08.19-1.61.09-.66.17-1.31.28-1.96,0-.06,0-.12.02-.16.05-.32.1-.64.15-.94.05-.34.11-.68.17-1.02.06-.35.12-.68.18-1.02.11-.67.25-1.35.39-2.02l21.82,14.07c.28,1.84.67,3.67,1.17,5.51,4.33,16.21,15.84,28.59,30.18,34.58l.55,1.94.02-.02Z"/>
        <path class="cls-6" d="M26.87,90.07l-21.05-13.58c.16-.67.33-1.36.5-2.03.24-.96.5-1.92.77-2.87.17-.59.34-1.17.53-1.75.11-.37.23-.73.34-1.1.11-.37.24-.73.36-1.1.28-.82.55-1.63.85-2.43,0,0,0-.02.02-.04.27-.73.55-1.46.83-2.18.67-1.71,1.41-3.39,2.18-5.05.11-.26.24-.51.36-.77.35-.74.72-1.48,1.09-2.22.32-.63.64-1.24.97-1.85.41-.76.83-1.52,1.28-2.27.21-.38.43-.76.66-1.14.22-.38.45-.75.67-1.12.47-.77.95-1.53,1.45-2.28.24-.39.49-.76.75-1.14.41-.62.83-1.23,1.27-1.84.44-.63.89-1.24,1.36-1.85.49-.66.98-1.3,1.49-1.94.5-.65,1.01-1.27,1.54-1.9.28-.34.55-.67.84-1,.21-.26.43-.52.66-.77.22-.26.45-.52.68-.77.42-.48.85-.95,1.29-1.42.29-.32.58-.64.89-.94.6-.65,1.22-1.27,1.86-1.9l10.33,17.14c-10.77,10.89-16.49,26.31-14.8,42.14h.01l.02-.03Z"/>
        <path class="cls-6" d="M159.9,27.24l-30.02,49.77c-.28-1.95-.68-3.9-1.22-5.86-4.51-16.91-16.83-29.63-32.04-35.32V3.52h.87c.75,0,1.5,0,2.24.03.48,0,.95.02,1.43.05.27,0,.53.02.79.03,1.46.07,2.91.16,4.35.31.22.02.44.04.66.07.54.05,1.07.11,1.62.16.71.09,1.43.17,2.13.28.72.1,1.44.21,2.15.33.68.11,1.36.23,2.03.36.34.06.69.13,1.01.2.45.09.91.18,1.37.28.09,0,.17.03.25.05.36.08.73.15,1.08.25.05,0,.09,0,.13.03.63.14,1.27.3,1.89.46.92.22,1.84.46,2.74.72,1.45.41,2.88.87,4.3,1.35,1.14.39,2.26.79,3.37,1.21.5.19.99.39,1.49.59.53.21,1.05.43,1.59.66.71.3,1.42.61,2.1.92.69.31,1.4.64,2.08.97.68.33,1.37.67,2.04,1.01.68.35,1.36.7,2.02,1.07.67.37,1.34.73,1.99,1.11.65.39,1.31.77,1.96,1.17.24.14.48.29.72.44.42.25.83.52,1.24.78,1.18.75,2.32,1.53,3.46,2.34,2.11,1.49,4.16,3.07,6.14,4.74.68.57,1.36,1.15,2.02,1.74h.02Z"/>
        <path class="cls-6" d="M188.69,74.44l-10.77,6.94c-10.2-7.81-24.85-7.04-34.18,2.31-5.1,5.11-7.63,11.82-7.62,18.51v6.12l-16.15,10.42c-.07-.36-.15-.71-.26-1.07l-.29-.99c7.91-10.17,12-23.18,10.84-36.55v-.02l31.09-51.56c.46.42.92.85,1.37,1.28.46.43.9.87,1.35,1.31,1.35,1.34,2.63,2.72,3.87,4.13,1.25,1.41,2.47,2.86,3.61,4.35.34.44.7.9,1.04,1.35.47.62.93,1.23,1.39,1.87.1.13.19.26.28.4.44.62.87,1.25,1.31,1.89,1.26,1.88,2.47,3.81,3.6,5.78.75,1.31,1.48,2.65,2.17,4.01.34.67.68,1.36,1.01,2.04.33.68.65,1.38.96,2.07.32.7.62,1.4.92,2.1.3.71.58,1.42.86,2.13.13.36.28.71.41,1.08.14.36.28.71.4,1.08.29.76.55,1.53.8,2.3.23.67.45,1.36.66,2.04v.02c.23.77.46,1.54.68,2.32.22.76.43,1.53.62,2.3l.03.04Z"/>
        <path class="cls-6" d="M191.62,97.89v36.72h-41.3v-3.5h-3.12v-7.56c10.16,7.16,24.27,6.19,33.36-2.92,10.17-10.2,10.17-26.73,0-36.92-.35-.36-.71-.69-1.08-1.02l9.69-6.25c.19.81.36,1.62.54,2.44.35,1.71.64,3.42.89,5.15.04.2.07.4.09.6.03.18.06.38.08.56.08.49.13.98.19,1.48v.1c.07.52.12,1.04.17,1.56.05.44.09.9.12,1.35.07.78.12,1.56.17,2.35.03.34.05.67.06,1,.04.7.07,1.41.09,2.1v.65c.02.7.03,1.41.03,2.11h.02Z"/>
        <path class="cls-6" d="M110.55,61.26c.19-.51.28-1.03.28-1.54,0-2.19-1.65-4.18-3.97-4.45-3.56-.41-6.96-.63-10.22-.65v-.54l6.81-11.83c10.08,5.97,18.06,15.54,21.81,27.5l-16.94,4.55c-.1-4.44.65-8.88,2.23-13.04Z"/>
        <path class="cls-6" d="M136.12,110.62v20.48h-3.08v3.5h-18.44l-.82-3.08c4.06-2.03,6.49-6.16,6.42-10.62l15.93-10.28h-.01Z"/>
        <path class="cls-6" d="M85.81,232.31v7.49h-19.59l.11-.36,2.3-7.93c2.6-1.18,4.67-2.98,5.96-4.53l.22-.25,4.87,4.93v.02c.93.93,2.17,1.44,3.42,1.44.73,0,1.47-.16,2.15-.51l.56-.29h0Z"/>
        <path class="cls-6" d="M110.55,61.26c.19-.51.28-1.03.28-1.54,0-2.19-1.64-4.18-3.97-4.45-3.56-.41-6.96-.63-10.22-.65h-.31l.31-.54,6.81-11.83c10.08,5.97,18.06,15.54,21.82,27.5l-16.94,4.55c-.1-4.44.65-8.88,2.23-13.04h0Z"/>
        <path class="cls-5" d="M74.93,178h-.07l.03-.03.04.04h0Z"/>
        <path class="cls-5" d="M56.78,69.25h-.03v-.02l.02.02h0Z"/>
        <path class="cls-5" d="M163.71,87.4l-1.06,2.05-1.05-2.04c.7-.05,1.42-.06,2.12,0h0Z"/>
        <path class="cls-5" d="M170.72,85.92l.02.11.06-.04-.08-.07Z"/>
        <path class="cls-5" d="M167.32,116.63c-3.03.97-6.33.96-9.36-.05l1.89-9.58,1.59,2.41,1.19,1.82,1.21-1.82,1.58-2.41,1.91,9.63h0Z"/>
        <path class="cls-6" d="M113.65,146c-.04.71-.11,1.43-.23,2.13-.02.1-.04.2-.06.31-.35,1.87-.95,3.68-1.81,5.36l-1.45-5.36-.8-2.96-.75-2.77-.58-2.16-1.09-4.02-.52-1.93-.16-.59-.13-.5c-.26-.99-.61-1.93-1.05-2.81-.28-.59-.6-1.15-.95-1.68-.56-.84-1.19-1.62-1.89-2.32-.46-.47-.95-.91-1.46-1.3-1.22-.95-2.59-1.72-4.05-2.25-.62-.23-1.27-.42-1.92-.57-1.87-.4-3.84-.45-5.8-.08-.38.06-.76.15-1.15.25-.27.08-.54.15-.79.24-1.82.6-3.44,1.52-4.84,2.7-.51.42-.98.88-1.43,1.37-1.43,1.55-2.51,3.4-3.17,5.42v.02c-.23.69-.41,1.39-.54,2.1-.11.64-.19,1.28-.22,1.93-.07,1.55.09,3.13.51,4.71l.17.66.17.63.8,3.01.52,1.96.25.95,2.32,8.69.24.9.45,1.69.36,1.34c-.27-.19-.54-.4-.8-.6-.51-.4-1-.83-1.48-1.28-.33-.31-.64-.63-.94-.96-2.06-2.24-3.62-4.98-4.47-8.12,0-.04-.02-.07-.03-.11l-.41-1.56-.08-.28-1.63-6.05v-.05c-.34-1.26-.55-2.52-.63-3.77-.05-.6-.06-1.18-.04-1.76,0-.64.06-1.29.13-1.93.44-3.78,1.97-7.32,4.34-10.23.41-.5.84-.99,1.31-1.45,1.81-1.82,3.99-3.3,6.47-4.31.6-.25,1.21-.46,1.86-.65.16-.06.33-.11.51-.15,2.7-.72,5.41-.85,8.01-.45.65.09,1.29.22,1.92.39,2.44.62,4.72,1.69,6.75,3.16.53.37,1.02.78,1.52,1.21,1.34,1.19,2.52,2.54,3.5,4.08.03.05.07.1.1.15v.03c.32.49.6.96.87,1.49.62,1.22,1.13,2.54,1.51,3.92l.75,2.8.51,1.93.86,3.22c.05.19.1.39.14.58.45,1.9.6,3.81.49,5.67h.02-.01Z"/>
        <path class="cls-6" d="M65.33,173.94l-7.04,7.07-2.62-2.26v-7.37c0-2.48.29-4.88.82-7.19,1.5,3.81,4.62,7.11,8.67,9.65.06.04.11.07.17.11h0Z"/>
        <path class="cls-6" d="M58.45,158.42c1.09-2.43,2.49-4.69,4.15-6.75.16,1.22.42,2.42.76,3.58.18.65.39,1.27.62,1.89.28.74.59,1.47.94,2.17,1.59,3.24,3.84,6.11,6.57,8.44l-4.06,4.07c-.25-.15-.5-.3-.75-.45-4.68-2.92-7.57-6.68-8.19-10.7-.05-.3-.08-.59-.09-.88-.03-.25-.04-.51-.04-.76l.07-.62h.02Z"/>
        <path class="cls-6" d="M126.53,148.79c-.05,1.76-.27,3.44-.7,5.08-.08.3-.16.6-.26.89-.1.34-.21.68-.33,1.01-1.71,4.77-4.98,8.85-9.24,11.61-.54.36-1.08.68-1.65.99-3.42,1.87-7.38,2.93-11.59,2.93h-13.69c-3.01,0-5.89-.54-8.54-1.54l-2.71-2.71-1.78-1.78c-.55-.57-1.47-.57-2.04,0l-.44.44c-2.22-1.85-4.08-4.1-5.48-6.62-.62-1.13-1.16-2.31-1.59-3.55-.22-.63-.41-1.26-.56-1.91-.4-1.56-.63-3.17-.67-4.84l.33-.33c1.5-1.41,3.13-2.67,4.88-3.76l1,3.76.36,1.35.25.95c.09.34.18.66.29.98.78,2.5,1.96,4.76,3.44,6.75.88,1.19,1.87,2.26,2.95,3.23.48.44.98.86,1.5,1.24,4.08,3.09,9.16,4.78,14.44,4.6.63-.03,1.28-.08,1.92-.15,1.04-.12,2.1-.34,3.15-.62,3.96-1.06,7.38-3.11,10.09-5.82.48-.47.92-.96,1.36-1.47,1-1.18,1.87-2.49,2.61-3.85.98-1.82,1.71-3.78,2.16-5.81.11-.45.19-.91.26-1.37.04-.22.08-.44.1-.67.12-.95.18-1.91.18-2.87,0-.91-.06-1.81-.16-2.73,3.67,1.46,7.33,3.92,10.16,6.59Z"/>
        <path class="cls-6" d="M47.78,217.3v.57c0,.19,0,.39.02.58,0,.09,0,.17.02.26v.28c0,.06,0,.12.02.18,0,.15.03.31.06.46.03.2.07.4.11.6.07.32.14.64.23.95.06.2.11.4.19.59.04.14.1.27.14.4.09.24.19.48.3.72.12.28.25.55.4.82.14.28.31.56.48.83.2.33.41.65.64.96.18.25.37.5.57.75s.41.49.64.74c.24.27.49.54.76.81v.02c.13.13.26.26.39.38v1.93c-4.02-.38-7.48-2.39-9.86-5.26-.44-.54-.85-1.11-1.22-1.71-2.09-3.39-2.8-7.65-1.5-11.86,1.19-3.78,4.15-6.72,7.93-7.86l2.9-.87,1.76,1.77.15.15.46.48.02.02c-.22.26-.43.53-.63.8-1.69,2.19-3.1,4.45-4,6.79-.51,1.35-.86,2.73-.98,4.13-.02.18-.03.36-.04.54v.03l.04.02Z"/>
        <path class="cls-6" d="M56.23,183.05l-.57.58-1.39,1.38-.48.48-.94.95-.08.08-.44.44v-.35c0-.22,0-.44-.02-.67-.1-2.4-.75-4.72-1.91-6.82l-1.2-2.14,3.57,3.08,1.01.88.48.41,1.39,1.21.57.49h.01Z"/>
        <path class="cls-6" d="M49.46,186.62v3.19c0,.95-.74,1.75-1.69,1.82-.57.04-1.12-.19-1.5-.63-.03-.03-.05-.06-.08-.08v-.02c-.12-.13-.21-.28-.29-.44,0,0-.02-.06-.03-.09-.05-.11-.09-.21-.11-.32l-2.75-12.73-.18-.83-.24-1.11-.04-.15-.03-.17-.28-1.27,1.02-.39.54-.2.55,1.01.04.06.02.03.11.21.55,1,2.78,5.01c.39.7.71,1.44.95,2.19.41,1.25.62,2.56.62,3.89h.02l.02.02Z"/>
        <path class="cls-6" d="M52.78,172.2v4.05l-3.11-2.7,3.11-1.35Z"/>
        <path class="cls-6" d="M54.03,162.17c-.15.54-.29,1.09-.41,1.65-.38,1.69-.63,3.41-.76,5.19l-5.61,2.43-1.25-1.08c-.31-.27-.7-.38-1.08-.34h-.02s-.04,0-.07-.02c-.27-.07-.55-.05-.82.05l-.05.02-.41.15c2.89-2.94,6.45-5.74,10.52-8.05h-.04Z"/>
        <path class="cls-6" d="M54.9,71.49c-4.26,5.54-6.56,12.09-6.75,18.98l-14.56,3.91-2.52.67-.46.13c-.04-.16-.07-.32-.1-.48-.19-.87-.34-1.74-.48-2.6-1.74-11.21.49-22.3,5.76-31.67l19.1,11.06h0Z"/>
        <path class="cls-6" d="M55.04,120.5l-3.12,5.43c-9.7-6.27-17.23-15.96-20.62-27.95l3.04-.82,2.51-.67,11.34-3.04c.15,2.63.61,5.29,1.38,7.96l1.16,4.01.8,2.82,2.17,7.55,1.35,4.69v.02Z"/>
        <path class="cls-6" d="M57.5,129.05c-1.05-.49-2.09-1.04-3.1-1.61l1.76-3.06,1.35,4.67h0Z"/>
        <path class="cls-6" d="M101.26,57.67c-1.58.44-3.12.9-4.63,1.36-.64.2-1.29.4-1.92.61-11.16,3.62-20.3,8.02-26.61,13.77-2.03,1.84-3.78,3.83-5.19,5.98-.4.61-.77,1.22-1.13,1.86-1.04,1.88-1.87,3.88-2.42,6.01-1.42,5.35.76,18.25.76,18.25,0,0,.26,1.4.44,2.1l1.35,5.03.74,2.77,4.31,16.14c.29,1.07.65,2.08,1.09,3.06.31.67,1.14,1.93,1.14,1.93v.38c0,.94.06,1.9.18,2.85h-.45c-2.39,0-4.66-1.24-5.95-3.25-.36-.56-.64-1.17-.83-1.83l-.03-.1-5.62-19.61-1.25-4.36-.81-2.82-2.07-7.19c-2.83-9.86-1.09-19.54,4.71-27.21.4-.54.83-1.08,1.29-1.59.93-1.08,1.94-2.11,3.04-3.09,7.35-6.55,18.59-10.94,33.32-11.21h1.92c1.51,0,3.05.06,4.63.15h0Z"/>
        <path class="cls-6" d="M105.47,117.45l-5.43-20.31c-.67-2.53-1.91-4.75-3.51-6.59-.59-.67-1.24-1.29-1.93-1.85-3.93-3.21-9.28-4.55-14.55-3.13l-5.28,1.41c-2.16.58-4.1,1.57-5.76,2.86-.52.41-1,.83-1.47,1.29-4.05,3.99-5.89,10.01-4.32,15.9l2.17,8.12.72,2.75,3.49,13.09c.05.19.11.37.17.54.78-3.12,2.23-6.03,4.22-8.54.4-.51.83-.99,1.28-1.46,1.33-1.42,2.85-2.67,4.54-3.71h-2.09c-1.91,0-3.35-1.97-2.46-3.86.05-.13.12-.27.19-.4.7-1.51,1.46-3.12,1.87-4.8.09-.35.15-.7.2-1.04.07-.49.1-.96.08-1.42-.18.2-.38.39-.59.57-.77.63-1.67,1.08-2.59,1.35-2.52.7-5.57-.03-7.1-2.96l2.54-1.34c.78,1.47,2.28,1.93,3.79,1.51.7-.19,1.35-.57,1.84-1.09.53-.54.89-1.24,1-2.05.02-.11.02-.2.03-.29l2.87.15.06.07c1.12,2.15,1.22,4.36.85,6.36v.02c-.05.28-.11.56-.18.83-.14.59-.31,1.18-.51,1.73-.47,1.34-1.04,2.58-1.54,3.61-.03.05-.05.11-.08.15h9.07c2.54-.54,5.09-.61,7.54-.29.64.07,1.3.19,1.93.32,2.97.66,5.78,1.91,8.25,3.67.43.29.85.62,1.25.96l-.56-2.11h.01v-.02ZM88.37,104.7c-2.67.75-5.67-.34-7.22-3.53l2.59-1.26c.94,1.92,2.52,2.38,3.84,2,1.38-.39,2.64-1.73,2.66-3.88l2.88.03c-.03,3.42-2.14,5.88-4.75,6.64Z"/>
        <path class="cls-6" d="M109.5,157.11c-.34.45-.76.88-1.15,1.29-.64.69-1.34,1.34-2.09,1.94l-1.09-4.06-1.49-5.59-.59-2.25-1.04-3.92-1.78.48-.99.27.84,3.17,2.16,8.06,1.48,5.56c-1.12.64-2.3,1.17-3.56,1.58l-1.84-6.84-1.71-6.4-.39-1.47-1.53.4-1.25.34,1.25,4.68.71,2.68,1.21,4.51.76,2.82c-.26.05-.51.09-.76.12-.64.09-1.29.14-1.92.16-.26,0-.53.02-.78.02h-.44l-1.96-7.35-2.37-8.87-.04-.14-.08-.29-1.61.43-.77.21-.39.11.1.37.69,2.59,1.56,5.8,1.83,6.82c-1.53-.27-2.99-.72-4.4-1.35h.04l-1.39-5.18-.4-1.51-.69-2.57-1.42-5.28-.69-2.58-.52-1.95-.03-.13-.53-2.01-.33-1.27c-.35-1.33-.48-2.66-.4-3.96,0-.11.02-.2.02-.3.11.11.21.21.32.3,1.99,1.85,4.84,2.86,7.88,2.92,1.4.04,2.84-.12,4.26-.51.05,0,.1-.03.14-.04l.31-.1c2.65-.8,4.92-2.3,6.51-4.2l.19-.23c.85-1.07,1.5-2.25,1.88-3.51.07-.21.12-.43.17-.64.1.12.18.24.26.36.35.53.67,1.1.94,1.69.29.64.54,1.3.72,1.99l.1.34.52,1.93.13.49.9,3.36.08.3.66,2.46,1.44,5.29,2.05,7.55.02.08.28,1.04h.01Z"/>
        <path class="cls-6" d="M107.94,59.88c-2.39.65-4.55,1.63-6.36,3.11-1.97,1.61-3.42,3.77-4.29,6.59-.28.92-.5,1.91-.65,2.98-.35,2.44-.36,5.27,0,8.56.2,1.89.54,3.92.98,6.13-.32-.31-.64-.61-.98-.89-.6-.5-1.25-.97-1.92-1.4-4.39-2.81-9.88-3.84-15.31-2.38l-5.28,1.42c-2.43.67-4.62,1.74-6.52,3.16-.52.4-1.01.81-1.49,1.25-2.09,1.91-3.73,4.17-4.79,6.78-.07-2.58.21-4.98.8-7.22.35-1.34.81-2.61,1.4-3.85.32-.68.66-1.34,1.04-2,1.4-2.37,3.21-4.56,5.45-6.59,5.74-5.22,14.15-9.38,24.69-12.87.63-.21,1.28-.41,1.92-.62,3.49-1.11,7.19-2.14,11.1-3.12.16.28.23.61.2.94v.02Z"/>
        <path class="cls-6" d="M117.29,120.46c.06.82,0,1.63-.17,2.41-.5,2.43-2.02,4.57-4.25,5.83-.32-.83-.68-1.63-1.09-2.39-.29-.58-.61-1.13-.97-1.67-.29-.46-.59-.91-.92-1.33-.11-1.05-.29-2.11-.57-3.16l-.98-3.71-.69-2.57-4.71-17.65c-.16-.63-.36-1.23-.58-1.82h.04c-3.38-11.79-3.79-19.23-2.33-23.95.71-2.31,1.87-3.98,3.36-5.21.97-.8,2.12-1.45,3.44-1.96-.95,3.34-1.42,6.79-1.42,10.27s.52,7.31,1.57,10.88l6.01,20.56.74,2.51,3.21,11.02c.19.66.31,1.31.34,1.97h-.02v-.03Z"/>
        <path class="cls-6" d="M127.56,84.56c0,7.95-1.91,15.65-5.43,22.52l-6.04-3.49-.59-.35-.47-1.61-5.27-18.03c-.61-2.09-1.02-4.22-1.24-6.35l17.54-4.7c.72,2.83,1.18,5.68,1.38,8.5v.02c.1,1.17.14,2.33.14,3.49h-.02Z"/>
        <path class="cls-6" d="M116.66,107.25l4.08,2.36c-.72,1.23-1.5,2.43-2.33,3.6"/>
        <path class="cls-6" d="M100.93,40.87l-4.29,7.44-1.92,3.34-1.75,3.04c-6.92.27-13.13,1.43-18.56,3.33l-5.77-21.58c8.98-1.86,17.95-1.11,26.09,1.76.64.22,1.29.46,1.92.71,1.47.59,2.9,1.23,4.29,1.96h-.01Z"/>
        <path class="cls-6" d="M71.67,59.05c-4.74,1.95-8.83,4.5-12.19,7.51-.96.86-1.87,1.74-2.7,2.67l.02.02h-.03l-3.42-2-16.06-9.3c1.72-2.68,3.7-5.2,5.93-7.5.45-.48.92-.94,1.41-1.4,5.76-5.53,12.96-9.75,21.2-11.96l5.86,21.95h-.02Z"/>
        <path class="cls-6" d="M98.65,127.5c-.63-.48-1.32-.89-2.03-1.21-.61-.3-1.26-.54-1.92-.71-1.34-.38-2.74-.51-4.18-.39-.67.06-1.36.17-2.03.36-1.41.38-2.68.99-3.81,1.79-.54.4-1.05.83-1.53,1.3-1.09,1.11-2.08,2.59-2.69,4.04.34.79,1,1.33,1.72,1.92,1.21,1.03,2.86,1.73,4.77,1.93.75.08,1.55.09,2.36,0,.67-.07,1.36-.19,2.06-.38,4.36-1.18,6.97-4.36,7.28-7.42.04-.41.04-.82,0-1.22h0ZM89.2,132.53c-1.3.37-2.62.66-3.96.88l-.47.08c-.78.13-1.53-.4-1.66-1.2-.12-.78.41-1.52,1.2-1.66l.47-.08c.35-.06.71-.12,1.05-.19.87-.17,1.73-.38,2.58-.62.74-.21,1.47-.44,2.19-.7.61-.21,1.23-.45,1.83-.71.69-.28,1.37-.59,2.03-.93.09-.04.16-.08.25-.1.65-.19,1.37.11,1.69.74.35.71.07,1.58-.64,1.94h-.02c-.34.18-.7.36-1.04.51-.26.12-.51.24-.76.35-.59.26-1.21.51-1.81.73"/>
        <path class="cls-5" d="M150.16,94.2l-1.01,5.74-.46,2.58-.55,3.14c-.18-.83-.31-1.69-.35-2.56,0-.24-.02-.49-.02-.73v-.02c0-.53.03-1.06.1-1.59.23-2.3,1-4.55,2.3-6.56h0Z"/>
        <path class="cls-5" d="M174.87,94.2l1.01,5.74.46,2.58.55,3.14c.18-.83.31-1.69.35-2.56,0-.24.02-.49.02-.73v-.02c0-.53-.03-1.06-.1-1.59-.23-2.3-.99-4.55-2.3-6.56h0Z"/>
        <path class="cls-6" d="M178.53,85.75c-.51-.51-1.03-.99-1.58-1.45-.53-.44-1.07-.86-1.64-1.23-9.03-6.28-21.5-5.38-29.54,2.68-4.53,4.54-6.79,10.51-6.78,16.46v28.91h5.32v-13.8l2.4,2.15c9.1,8.17,23.07,7.88,31.81-.89,9.05-9.07,9.05-23.75,0-32.82h0ZM157.22,85.24c2.35-1.16,8.55-1.22,10.88-.03l-.88,1.7-1.08,2.09-1.8,3.44-.41.8-1.27,2.46-.84-1.62-.43-.84-.45-.88-2.82-5.43-.87-1.69h-.03ZM150.11,111.11l-.67,3.79-1.98-3.29c-1.26-2.09-2.06-4.4-2.39-6.75-.1-.72-.15-1.45-.17-2.18v-.31c0-4.57,1.74-9.17,5.22-12.65.46-.46.95-.9,1.45-1.3l2.98-2.41-.67,3.78-1.43,8-.45,2.58-1.9,10.73h0ZM169.51,118.91c-4.41,1.82-9.39,1.8-13.78-.07l-1.07-.46.23-1.15,2.81-14.23.68-3.46,1.93,2.95,2.31,3.51,2.3-3.51,1.93-2.95.68,3.46,2.83,14.29.23,1.16-1.1.45h.02ZM177.85,111.82l-1.99,3.19-.65-3.7-3.84-21.68-.27-1.55-.36-2.05.06-.04,1.6,1.25,1.27.99c.57.45,1.13.94,1.67,1.47,5.99,6.01,6.83,15.21,2.51,22.11h0Z"/>
        <path class="cls-6" d="M147.45,134h-11.52v2.88h11.52v-2.88Z"/>
        <path class="cls-6" d="M159.36,202.87c0,5.55-2.23,8.61-4.86,10.31-2.73,1.74-6.11,1.93-8.32,1.93h-11.35c-1.43,0-2.59-1.14-2.66-2.54h12.22v-2.89h-12.22v-2.58h12.22v-2.89h-12.22v-2.58h12.22v-2.89h-12.22c0-.21.04-.42.09-.62.18-.7.64-1.29,1.26-1.65.38-.22.83-.35,1.31-.35h14.1c1.39,0,2.51-.57,3.25-1.48.72-.88,1.04-1.99,1.04-3.04s-.32-2.16-1.04-3.04c-.75-.91-1.87-1.48-3.25-1.48h-1.44v-1.87c4.92.21,7.64,1.51,9.27,3.81,1.89,2.66,2.6,7.02,2.6,13.87h0v-.02Z"/>
        <path class="cls-6" d="M150.35,191.58c0,.48-.15.91-.38,1.18-.2.24-.51.43-1.03.43h-1.73v-3.25h1.73c.53,0,.83.2,1.03.44.23.27.38.7.38,1.19h0Z"/>
        <path class="cls-6" d="M158.57,237.99c-.55.31-1.15.58-1.75.82-.68.26-1.39.47-2.11.64-1.05.24-2.16.37-3.3.37h-4.21v-21.77c2.58.02,5.95-.58,8.85-2.44,3.32-2.12,5.9-5.8,6.17-11.68l3.82,17.73c1.46,6.78-1.88,13.28-7.45,16.34h-.02Z"/>
        <path class="cls-6" d="M144.32,239.82h-5.31v-21.82h5.31"/>
        <path class="cls-6" d="M158.46,186.52c-2.44-2.84-6.15-4.08-11.27-4.23v-6.54l4.09,1.77c3.64,1.57,6.27,4.79,7.11,8.68l.07.33h0Z"/>
        <path class="cls-6" d="M152.07,174.49l-4.86-2.1v-2.77c.62.46,1.21.95,1.76,1.46,1.18,1.06,2.2,2.21,3.1,3.41Z"/>
        <path class="cls-6" d="M191.62,232.06c0,4.27-3.43,7.74-7.68,7.74h-21.76c5.6-3.98,8.75-11.11,7.16-18.51l-7.62-35.66c-.63-2.98-2.12-5.64-4.23-7.7-.34-.7-.71-1.4-1.1-2.07l35.22,22.85"/>
        <path class="cls-6" d="M191.62,136.54v59.76l-38.02-24.51c-1.7-2.09-3.76-3.98-6.39-5.65v-26.35h3.12v-3.24h41.3-.01Z"/>
        <path class="cls-6" d="M136.12,139.78v17.8c-3.84-8.78-11.26-15.64-20.39-18.74l-.61-2.3h17.93v3.24h3.08-.01Z"/>
        <path class="cls-6" d="M106.78,239.81h19.61l-.11-.36-17.24-59.71h-2.25v16.34l7.97,7.98c.28.27.42.64.42,1.02s-.14.75-.42,1.02l-7.97,7.99"/>
        <path class="cls-5" d="M135.79,162.59c-.08.26-.36,1.18-.47,1.44-.09.24-.18.47-.29.7,0,.03-.03.07-.05.11-.08.18-.15.36-.25.53l-.14.29c-.11.21-.22.42-.34.64-.13.23-.27.46-.42.69,0,.02-.03.04-.05.07-.12.21-.27.41-.42.62,0,.03-.04.06-.06.09-.13.2-.28.4-.44.59-.04.06-.08.11-.12.16-.13.16-.27.33-.41.49-.05.07-.1.13-.17.2-.15.18-.32.36-.49.54-.34.38-.72.74-1.1,1.1-.24.22-.48.43-.73.65-.99.84-2.06,1.62-3.2,2.34-1.58.98-3.31,1.86-5.16,2.62l-1.83.68c-2.43.86-5.04,1.51-7.79,1.95l17.43,60.71h6.86v-21.81h-1.29c-3.05,0-5.54-2.49-5.54-5.55v-13.67c0-1.33.47-2.56,1.25-3.52l1.49-1.27c.82-.49,1.78-.77,2.8-.77h1.29v-30.43l-.3-.19h-.06Z"/>
        <path class="cls-6" d="M103.9,216.98v22.82h-15.22v-8.95l1.87-.93c.13-.07.27-.16.37-.28l.18-.18c.41-.19.78-.45,1.12-.79l2.47-2.48,1.92-1.92,7.27-7.29h.02Z"/>
        <path class="cls-6" d="M52.77,233.03v6.76h-12.4c-1.11,0-2.19-.12-3.22-.35-.88-.19-1.73-.46-2.53-.8-.59-.25-1.18-.54-1.72-.87-5.38-3.11-8.57-9.5-7.13-16.15l7.62-35.45c.8-3.75,3.31-6.88,6.76-8.51l2.82,13.01c.04.15.07.3.12.44v.04l.23,1.52c.06.43.16.83.29,1.23.06.18.12.36.2.53.11.26.22.52.36.76.05.11.11.21.17.31.3.5.66.98,1.08,1.41v.02l3.27,3.34-1.44.43c-4.7,1.41-8.4,5.06-9.85,9.77-1.74,5.58-.5,11.2,2.61,15.43.4.55.83,1.07,1.3,1.57,2.87,3.1,6.87,5.21,11.43,5.56h.03Z"/>
        <path class="cls-6" d="M65.32,232.54l-2,6.89-.11.36h-7.56v-9.28c3.35,2.14,6.68,2.58,9.66,2.02h0Z"/>
        <path class="cls-6" d="M85.78,227.66l.91.92.02.02-.93.47-1.87.93c-.27.14-.56.21-.85.21-.5,0-.99-.2-1.38-.58v-.02l-4.99-5.05,2.82-3.17"/>
        <path class="cls-6" d="M58.03,199.82v.02l-.07.11c-.76.8-1.54,1.62-2.29,2.45-.12.13-.24.26-.36.4h-.02l-.8-.82-.19-.2-.12-.12-.35-.37-.61-.63-.4-.41-.91-.92-4.37-4.43v-.02c-.13-.12-.25-.26-.35-.4.27.03.55.04.81.02,1.29-.09,2.42-.69,3.2-1.6.1.12.19.24.31.36l1.3,1.3,1.5,1.5,1.39,1.38,2.36,2.37h-.03Z"/>
        <path class="cls-6" d="M102.07,205.21l-.98.98-1.37,1.37-3.09,3.09-1.92,1.93-4.19,4.19-1.84-1.84-1.44-1.45-1.44-1.44-1.76-1.76-3.08-5.84-1.54-2.93-.02-.02-.38-.63-1.58-2.54-.02-.02s-.06-.09-.08-.12c-.05-.08-.11-.15-.16-.23-.09-.12-.18-.24-.28-.35-.09-.1-.17-.19-.27-.29-.09-.09-.18-.17-.28-.26-.19-.16-.39-.31-.6-.44l.26-.26,1.69-1.7.04.04,1.17,1.17,6.87,6.88,2.04-2.04-.56-.57-1.44-1.45-5.99-6-.08-.08.14-.15,3.38-3.38-1.86-1.87-.18-.18-3.53,3.54-.2-.2-3.33-3.34-2.04,2.05,3.54,3.53-1.85,1.84-1.02,1.03-.39.4-.04.04c-.33.04-.65.13-.97.25-.33.12-.64.28-.94.49l-.02-.02-6.54-6.55-.54-.54,1.2-1.2,1.01-1.01v-.02h.02l9.28-9.32.03-.03.04.04,4.76,4.77,1.15,1.16,1.18,1.17,3.79,3.79,2.88,2.89,6.03,6.03,1.92,1.93,4.96,4.97.47.47v.02h-.01Z"/>
        <path class="cls-6" d="M103.9,179.67v13.53l-7.27-7.29-1.92-1.92-4.3-4.32h13.5-.01Z"/>
        <path class="cls-6" d="M133.45,158.65c0,.64-.11,1.64-.22,2.27-.7,3.91-3.56,7.58-8.14,10.45-1.55.96-3.27,1.83-5.16,2.56-.59.24-1.22.47-1.85.69-4.12,1.37-8.86,2.15-13.91,2.15h-16.67l-2.95-2.96c1.46.25,2.96.38,4.49.38h13.69c4.74,0,9.21-1.21,13.08-3.35.56-.31,1.11-.64,1.65-.99,4.62-2.99,8.24-7.35,10.23-12.49.24-.61.45-1.22.64-1.86.1-.32.19-.65.27-.97.25-.93.47-1.9.6-2.87.68.86,1.33,1.74,1.93,2.67.88,1.37,1.66,2.81,2.32,4.32Z"/>
        <path class="cls-6" d="M106.76,200.14l4.91,4.92.02.04-.03.03-.03.03-1.39,1.38-3.47,3.48-2.88,2.89-7.27,7.28-1.92,1.93-4.5,4.51c-.17.17-.39.27-.62.27h-.03c-.25.02-.51-.08-.71-.27l-.15-.15-1.44-1.45-1.44-1.44-4.33-4.35,2.01-2.26c.11-.13.23-.27.33-.41.09-.12.17-.25.24-.38.03-.03.04-.05.05-.07.09-.15.16-.29.23-.43.04-.08.07-.15.11-.23.03-.08.06-.15.09-.24.04-.09.07-.17.1-.26l2.62,2.63,1.44,1.44,1.84,1.84,4.19-4.19,1.92-1.93,7.02-7.04,2.49-2.5-.28-.28-1.96-1.97-7.27-7.28-1.92-1.93-6.03-6.04-2.88-2.89-2.87-2.87-1.17-1.17-1.17-1.17-3.22-3.24-.96-.95-1.53-1.53-3.07,3.08-.03.05h-.02l-5.64,5.67-2.73,2.74-1.02,1.03-1.01,1.02-2.07,2.07,3.08,3.09,6.11,6.12-.33.44c-.1.14-.2.27-.31.4-.11.14-.21.27-.33.42-.36.45-.73.91-1.1,1.37-.4.5-.81,1-1.23,1.51-.26.32-.53.64-.78.95.24-.38.41-.81.5-1.24.31-1.41-.16-2.95-1.44-3.87-.89-.65-2-.85-3.01-.6l-.87-.88-1.41-1.41-2.5-2.5-1.87-1.87-.28-.28c-.35-.36-.37-.92-.06-1.29.02-.02.04-.04.06-.07l4.9-4.92,1.02-1.01,1.01-1.03,7.49-7.51,1.43-1.43.74-.74,3.69-3.7.61-.61.57-.58"/>
      </g>
    </g>
  </g>
  <path class="cls-4" d="M301.34,144.44c-.48-3.45-1.24-6.85-2.3-10.2-1.05-3.35-2.3-6.66-3.73-9.91l-28.44-66.65c-.1,1.34-.24,3.26-.43,5.75-.1,2.49-.14,5.55-.14,9.19v40.22c0,4.31.14,8.52.43,12.64.38,4.02.96,8.19,1.72,12.5h12.5c.38,1.72.38,3.49,0,5.31-4.02-.19-7.61-.29-10.77-.29h-13.64c-2.49,0-5.41.1-8.76.29-.38-1.82-.38-3.59,0-5.31h9.62c.77-4.31,1.29-8.48,1.58-12.5.38-4.12.57-8.33.57-12.64v-40.22c0-3.64-.19-7.47-.57-11.49-.29-4.12-.81-8.67-1.58-13.65h-9.62c-.38-1.82-.38-3.59,0-5.31,3.35.1,6.27.19,8.76.29h29.88c.77,3.45,1.63,6.89,2.58,10.34,1.05,3.45,2.25,6.7,3.59,9.77l20.68,47.97,18.1-45.39c1.72-4.4,3.11-8.43,4.17-12.07,1.15-3.64,2.06-7.18,2.73-10.63h27.43c4.02-.1,7.66-.19,10.92-.29.38,1.72.38,3.5,0,5.31h-9.62c-.48,3.93-.86,8.04-1.15,12.35-.19,4.21-.29,8.47-.29,12.78v40.22c0,4.31.1,8.62.29,12.93.29,4.21.67,8.28,1.15,12.21h9.62c.38,1.72.38,3.49,0,5.31-3.26-.19-6.9-.29-10.92-.29h-21.83c-3.93,0-7.57.1-10.92.29-.38-1.82-.38-3.59,0-5.31h9.62c.48-3.93.81-8,1.01-12.21.29-4.31.43-8.62.43-12.93v-40.22c0-3.64-.14-7.18-.43-10.63-.19-3.45-.38-5.84-.58-7.18l-27.43,69.52c-1.24,3.26-2.35,6.56-3.3,9.91-.96,3.35-1.72,6.75-2.3,10.2-2.87.48-5.74.48-8.62,0ZM413.48,142.28c-5.94,0-10.73-1.1-14.36-3.3-3.54-2.3-5.98-5.94-7.32-10.92.29-1.44.48-3.11.57-5.03.1-1.92.14-3.59.14-5.03v-13.79c0-8.52-.48-15.85-1.44-21.98h-6.03c-.38-1.82-.38-3.59,0-5.31,5.55,0,10.53-.14,14.94-.43,4.4-.38,8.86-.96,13.36-1.72-.57,2.11-1.01,4.93-1.29,8.47-.29,3.54-.53,7.23-.72,11.06-.1,3.73-.14,7.04-.14,9.91v15.51c0,3.83.72,7.13,2.15,9.91,1.53,2.68,4.07,4.02,7.61,4.02,3.06,0,5.74-.81,8.04-2.44,2.3-1.72,4.5-4.02,6.61-6.89v8.19c-1.34,1.44-2.92,2.92-4.74,4.45-1.82,1.53-4.12,2.83-6.9,3.88-2.78.96-6.27,1.44-10.48,1.44ZM428.13,76.93c5.55,0,10.53-.14,14.94-.43,4.4-.38,8.86-.96,13.36-1.72-.57,2.11-1,4.93-1.29,8.47-.29,3.54-.53,7.23-.72,11.06-.1,3.73-.14,7.04-.14,9.91v25.14c0,8.9-1.92,16.81-5.74,23.7-3.83,6.99-9.05,12.45-15.66,16.38-6.51,3.93-13.98,5.89-22.41,5.89s-14.55-1.58-18.96-4.74c-4.31-3.06-6.46-7.28-6.46-12.64,0-4.31,1.44-7.95,4.31-10.92,2.97-2.97,7.9-5.75,14.79-8.33l5.03,2.44c-3.64,1.63-6.18,3.93-7.61,6.89-1.44,2.97-2.15,6.08-2.15,9.34,0,3.54,1.05,6.46,3.16,8.76,2.2,2.3,5.79,3.45,10.77,3.45s8.81-1.44,12.07-4.31c3.35-2.78,5.89-6.46,7.61-11.06,1.72-4.6,2.58-9.53,2.58-14.79v-35.19c0-8.52-.48-15.85-1.44-21.98h-6.03c-.38-1.82-.38-3.59,0-5.31ZM499.82,143.29c-.38-1.82-.38-3.59,0-5.31h9.62c.48-3.93.81-8,1-12.21.29-4.31.43-8.62.43-12.93v-40.22c0-4.31-.14-8.57-.43-12.78-.19-4.31-.53-8.43-1-12.35h-9.62c-.38-1.82-.38-3.59,0-5.31,3.35.1,6.99.19,10.92.29h33.47c6.99,0,13.36.96,19.1,2.87,5.74,1.92,10.34,4.98,13.79,9.19,3.45,4.12,5.17,9.53,5.17,16.23s-1.77,12.5-5.32,17.09c-3.54,4.5-8.23,7.9-14.08,10.2-5.75,2.2-11.97,3.3-18.67,3.3h-21.55v-5.75h18.67c4.69,0,8.71-1.82,12.07-5.46,3.45-3.73,5.17-9.91,5.17-18.53s-1.68-14.32-5.03-17.95c-3.35-3.64-7.9-5.46-13.65-5.46h-6.03c-.48,4.31-.86,8.38-1.15,12.21-.19,3.83-.29,7.9-.29,12.21v40.22c0,4.31.1,8.62.29,12.93.29,4.21.67,8.28,1.15,12.21h13.93c.38,1.72.38,3.49,0,5.31-5.46-.19-10.34-.29-14.65-.29h-22.41c-3.93,0-7.56.1-10.92.29ZM609.61,145.15c-6.99,0-12.64-1.68-16.95-5.03-4.31-3.35-6.46-8.19-6.46-14.51,0-4.69,1.24-8.52,3.73-11.49,2.49-3.06,5.89-5.36,10.2-6.89s9.14-2.3,14.51-2.3c3.16,0,5.94.24,8.33.72,2.39.48,4.64,1.1,6.75,1.87v6.03c-2.97-1.44-6.42-2.15-10.34-2.15s-7.47,1.2-10.34,3.59c-2.78,2.39-4.16,5.84-4.16,10.34,0,4.02.96,7.13,2.87,9.34,2.01,2.2,4.64,3.3,7.9,3.3,2.59,0,5.12-.62,7.61-1.87,2.49-1.34,4.64-3.11,6.46-5.32l1.44,6.46c-2.49,2.3-5.55,4.21-9.19,5.74-3.64,1.44-7.76,2.15-12.35,2.15ZM648.39,98.62v30.74c0,3.54.67,5.89,2.01,7.04,1.44,1.05,3.64,1.58,6.61,1.58.29,1.72.29,3.49,0,5.31-2.2.38-4.31.67-6.32.86-1.92.19-3.69.29-5.31.29-4.12,0-7.37-.57-9.77-1.72-2.3-1.24-3.78-3.06-4.45-5.46l-1.44-6.46v-32.89c0-4.88-.77-9.05-2.3-12.5-1.53-3.54-4.31-5.31-8.33-5.31s-6.99,1.58-8.9,4.74c-1.82,3.16-2.39,7.23-1.72,12.21h-18.67c0-4.4,1.05-8.24,3.16-11.49,2.2-3.35,5.51-5.98,9.91-7.9,4.5-1.92,10.15-2.87,16.95-2.87,10.63,0,18.05,2.15,22.26,6.46,4.21,4.21,6.32,10.01,6.32,17.38ZM692.47,145.15c-6.42,0-11.39-1.15-14.94-3.45-3.54-2.39-5.31-6.94-5.31-13.65v-29.59c0-3.35-.05-6.7-.14-10.05,0-3.35-.1-6.7-.29-10.05-.19-3.35-.53-6.7-1.01-10.05,2.11-.48,4.31-1.29,6.61-2.44,2.3-1.24,4.36-2.68,6.18-4.31,1.82-1.72,2.97-3.54,3.45-5.46,1.53-.29,3.06-.29,4.6,0-.38,6.99-.62,14.03-.72,21.11v50.85c0,3.54.57,5.99,1.72,7.32,1.15,1.25,2.78,1.87,4.88,1.87,1.34,0,2.73-.34,4.17-1.01,1.44-.67,2.78-1.68,4.02-3.02.77.48,1.44,1.1,2.01,1.87.67.67,1.24,1.39,1.72,2.15-1.72,2.11-3.93,3.97-6.61,5.6-2.68,1.53-6.13,2.3-10.34,2.3ZM662.16,83.39c-.38-2.2-.38-4.36,0-6.46h45.24c.38,2.11.38,4.26,0,6.46h-45.24ZM716.22,143.29c-.38-1.82-.38-3.59,0-5.31h7.47c.48-3.26.81-6.7,1.01-10.34.29-3.64.43-7.61.43-11.92v-11.49c0-8.52-.48-15.85-1.44-21.98h-6.75c-.38-1.82-.38-3.59,0-5.31,5.55,0,10.29-.14,14.22-.43,3.93-.38,8.14-.96,12.64-1.72-.38,1.24-.67,3.06-.86,5.46-.19,2.3-.38,5.03-.57,8.19l1.44,7.9v19.39c0,4.31.1,8.28.29,11.92.29,3.64.67,7.09,1.15,10.34h11.78c.38,1.72.38,3.49,0,5.31-5.46-.19-9.96-.29-13.5-.29h-17.67c-3.07,0-6.27.1-9.62.29ZM759.45,97.04c.38-3.93.19-6.94-.57-9.05-.67-2.11-2.06-3.16-4.17-3.16-1.82,0-3.64.86-5.46,2.59-1.72,1.63-3.54,4.6-5.46,8.91l-1.44-7.9c2.3-4.4,5.03-7.76,8.19-10.05,3.26-2.39,7.37-3.59,12.35-3.59s8.33,1.1,10.63,3.3c2.3,2.11,3.73,4.84,4.31,8.19.58,3.35.67,6.94.29,10.77h-18.67ZM819.59,80.52c-3.54,0-6.32,1.2-8.33,3.59-1.91,2.3-3.3,5.51-4.16,9.62-.77,4.02-1.15,8.71-1.15,14.08s.43,10.63,1.29,15.51c.86,4.79,2.35,8.67,4.45,11.63,2.2,2.97,5.32,4.45,9.34,4.45l-.72,5.75c-6.7,0-12.73-1.34-18.1-4.02-5.27-2.68-9.43-6.65-12.5-11.92-3.06-5.27-4.6-11.68-4.6-19.25s1.53-13.65,4.6-18.82c3.06-5.27,7.23-9.29,12.5-12.07,5.36-2.87,11.39-4.31,18.1-4.31l-.72,5.75ZM821.03,139.41c3.54,0,6.27-1.15,8.19-3.45,2.01-2.39,3.4-5.65,4.17-9.77.86-4.12,1.29-8.81,1.29-14.08,0-5.55-.43-10.73-1.29-15.51-.86-4.79-2.39-8.67-4.6-11.63-2.11-2.97-5.17-4.45-9.19-4.45l.72-5.75c6.7,0,12.69,1.34,17.95,4.02,5.36,2.68,9.58,6.66,12.64,11.92,3.07,5.17,4.6,11.59,4.6,19.25s-1.53,13.55-4.6,18.82c-3.06,5.27-7.28,9.34-12.64,12.21-5.27,2.78-11.25,4.17-17.95,4.17l.72-5.75ZM865.89,143.29c-.38-1.82-.38-3.59,0-5.31h7.47c.48-3.26.81-6.7,1.01-10.34.29-3.64.43-7.61.43-11.92v-11.49c0-8.52-.48-15.85-1.44-21.98h-6.75c-.38-1.82-.38-3.59,0-5.31,5.55,0,10.29-.14,14.22-.43,3.93-.38,8.14-.96,12.64-1.72-.38,1.24-.67,2.97-.86,5.17-.19,2.11-.38,4.21-.57,6.32l1.44,6.46v22.98c0,4.31.1,8.28.29,11.92.29,3.64.67,7.09,1.15,10.34h7.47c.38,1.72.38,3.49,0,5.31-3.26-.19-6.46-.29-9.62-.29h-17.24c-3.06,0-6.27.1-9.62.29ZM910.41,143.29c-.38-1.82-.38-3.59,0-5.31h7.47c.48-3.26.81-6.7,1.01-10.34.29-3.64.43-7.61.43-11.92v-18.38c0-3.93-.77-7.23-2.3-9.91-1.53-2.68-4.26-4.02-8.19-4.02-3.35,0-6.22.86-8.62,2.59-2.3,1.63-4.55,3.88-6.75,6.75l-1.44-6.46c2.11-2.97,5.22-5.6,9.34-7.9,4.12-2.39,9.34-3.59,15.66-3.59,5.94,0,10.63,1.2,14.08,3.59,3.45,2.39,5.99,5.94,7.61,10.63-.29,1.44-.48,3.11-.58,5.03-.09,1.92-.14,3.59-.14,5.03v16.66c0,4.31.1,8.28.29,11.92.29,3.64.67,7.09,1.15,10.34h7.47c.38,1.72.38,3.49,0,5.31-3.26-.19-6.46-.29-9.62-.29h-17.24c-3.06,0-6.27.1-9.62.29ZM983.24,145.15c-3.64,0-7.85-.43-12.64-1.29-4.69-.77-8.95-1.77-12.78-3.02v-21.26c1.53-.29,3.07-.29,4.6,0,1.34,5.94,3.69,10.72,7.04,14.36,3.35,3.64,8.09,5.46,14.22,5.46,3.93,0,7.13-.72,9.62-2.15,2.59-1.44,3.88-3.78,3.88-7.04,0-2.68-.96-4.79-2.87-6.32-1.82-1.53-4.21-2.78-7.18-3.74-2.87-.96-5.98-1.96-9.34-3.02-3.26-1.05-6.37-2.35-9.34-3.88-2.87-1.63-5.27-3.78-7.18-6.46-1.82-2.78-2.73-6.42-2.73-10.92,0-6.7,2.49-11.87,7.47-15.51,4.98-3.73,11.83-5.6,20.54-5.6,4.5,0,8.52.43,12.07,1.29,3.64.86,6.99,2.01,10.06,3.45v19.68c-1.53.29-3.07.29-4.6,0-1.24-6.32-3.45-11.01-6.6-14.08-3.16-3.06-6.99-4.6-11.49-4.6-3.93,0-6.85.77-8.76,2.3-1.91,1.53-2.87,3.69-2.87,6.46s.96,4.79,2.87,6.32c1.92,1.53,4.41,2.82,7.47,3.88,3.06,1.05,6.27,2.11,9.62,3.16,3.45.96,6.71,2.25,9.77,3.88,3.07,1.63,5.56,3.78,7.47,6.46,1.92,2.68,2.87,6.22,2.87,10.63,0,6.7-2.73,11.97-8.18,15.8-5.37,3.83-13.03,5.75-22.98,5.75Z"/>
  <path class="cls-1" d="M248.74,202.03v26.31h-4.32v-26.31h4.32ZM265.38,207.14c1.51,0,2.88.34,4.09,1.02,1.24.68,2.21,1.69,2.91,3.03.73,1.34,1.1,2.95,1.1,4.85v12.3h-4.28v-11.66c0-1.87-.47-3.29-1.4-4.28-.93-1.01-2.21-1.51-3.82-1.51s-2.9.51-3.86,1.51c-.93.98-1.4,2.41-1.4,4.28v11.66h-4.31v-20.86h4.31v3.29c.68-1.19,1.59-2.08,2.73-2.69,1.16-.63,2.47-.95,3.94-.95ZM287.05,224.48l5.9-16.99h4.66l-7.95,20.86h-5.22l-7.91-20.86h4.62l5.9,16.99ZM300.22,201.96c0-.78.27-1.44.8-1.97.53-.53,1.19-.8,1.97-.8s1.4.26,1.93.8c.53.53.8,1.18.8,1.97s-.26,1.44-.8,1.97c-.53.53-1.17.79-1.93.79s-1.44-.26-1.97-.79-.8-1.19-.8-1.97ZM305.11,207.48v20.86h-4.31v-20.86h4.31ZM315.8,211v11.54c0,.78.18,1.35.53,1.7.38.33,1.01.49,1.89.49h2.65v3.6h-3.41c-1.94,0-3.43-.45-4.47-1.36-1.04-.91-1.55-2.38-1.55-4.43v-11.54h-2.46v-3.52h2.46v-5.19h4.35v5.19h5.07v3.52h-5.07ZM343.97,217.32c0,.73-.05,1.41-.15,2.04h-15.97c.1,1.74.68,3.13,1.74,4.16,1.08,1.01,2.43,1.51,4.05,1.51,2.35,0,4-.97,4.96-2.91h4.65c-.63,1.92-1.78,3.49-3.44,4.73-1.67,1.21-3.72,1.82-6.17,1.82-1.99,0-3.76-.44-5.3-1.32-1.54-.91-2.75-2.17-3.63-3.79-.86-1.64-1.29-3.53-1.29-5.68s.43-4.02,1.29-5.64c.88-1.64,2.11-2.9,3.67-3.79,1.59-.88,3.41-1.32,5.45-1.32s3.72.43,5.26,1.29c1.54.86,2.74,2.06,3.6,3.6.86,1.54,1.29,3.3,1.29,5.3ZM339.46,216.41c-.03-1.72-.59-3.08-1.7-4.09-1.11-1.03-2.49-1.55-4.13-1.55-1.54,0-2.85.52-3.94,1.55-1.06,1.01-1.67,2.37-1.82,4.09h11.58ZM380.57,202.03v26.31h-4.32v-11.62h-12.38v11.62h-4.32v-26.31h4.32v11.35h12.38v-11.35h4.32ZM405.36,217.32c0,.73-.05,1.41-.15,2.04h-15.97c.1,1.74.68,3.13,1.74,4.16,1.08,1.01,2.43,1.51,4.05,1.51,2.35,0,4-.97,4.96-2.91h4.65c-.63,1.92-1.78,3.49-3.44,4.73-1.67,1.21-3.72,1.82-6.17,1.82-1.99,0-3.76-.44-5.3-1.32-1.54-.91-2.75-2.17-3.63-3.79-.86-1.64-1.29-3.53-1.29-5.68s.43-4.02,1.29-5.64c.88-1.64,2.11-2.9,3.67-3.79,1.59-.88,3.41-1.32,5.45-1.32s3.72.43,5.26,1.29c1.54.86,2.74,2.06,3.6,3.6.86,1.54,1.29,3.3,1.29,5.3ZM400.86,216.41c-.02-1.72-.59-3.08-1.7-4.09-1.11-1.03-2.49-1.55-4.13-1.55-1.54,0-2.85.52-3.94,1.55-1.06,1.01-1.67,2.37-1.82,4.09h11.58ZM418.01,207.14c1.64,0,3.08.38,4.32,1.14,1.26.73,2.23,1.7,2.91,2.91v-3.71h4.35v20.86h-4.35v-3.9c-.71,1.29-1.68,2.32-2.91,3.1-1.24.76-2.67,1.14-4.32,1.14-1.82,0-3.48-.45-5-1.36-1.49-.93-2.68-2.22-3.56-3.86-.86-1.66-1.29-3.54-1.29-5.64s.43-3.95,1.29-5.56c.88-1.62,2.07-2.86,3.56-3.75,1.51-.91,3.18-1.36,5-1.36ZM418.92,210.89c-1.11,0-2.14.28-3.1.83-.96.53-1.74,1.33-2.35,2.38-.58,1.04-.87,2.27-.87,3.71s.29,2.7.87,3.79c.61,1.08,1.39,1.92,2.35,2.5.98.55,2.02.83,3.1.83s2.14-.28,3.1-.83c.96-.56,1.73-1.36,2.31-2.42.61-1.09.91-2.35.91-3.79s-.3-2.69-.91-3.75c-.58-1.06-1.35-1.87-2.31-2.42-.96-.55-1.99-.83-3.1-.83ZM443.32,224.48l5.9-16.99h4.65l-7.95,20.86h-5.22l-7.91-20.86h4.62l5.9,16.99ZM476.18,217.32c0,.73-.05,1.41-.15,2.04h-15.97c.1,1.74.68,3.13,1.74,4.16,1.09,1.01,2.43,1.51,4.05,1.51,2.35,0,4-.97,4.96-2.91h4.65c-.63,1.92-1.78,3.49-3.44,4.73-1.67,1.21-3.72,1.82-6.17,1.82-1.99,0-3.76-.44-5.3-1.32-1.54-.91-2.75-2.17-3.63-3.79-.86-1.64-1.29-3.53-1.29-5.68s.43-4.02,1.29-5.64c.88-1.64,2.11-2.9,3.67-3.79,1.59-.88,3.41-1.32,5.45-1.32s3.72.43,5.26,1.29c1.54.86,2.74,2.06,3.6,3.6.86,1.54,1.29,3.3,1.29,5.3ZM471.68,216.41c-.02-1.72-.59-3.08-1.7-4.09-1.11-1.03-2.49-1.55-4.13-1.55-1.54,0-2.85.52-3.94,1.55-1.06,1.01-1.67,2.37-1.82,4.09h11.58ZM491.4,207.14c1.51,0,2.88.34,4.09,1.02,1.24.68,2.21,1.69,2.91,3.03.73,1.34,1.1,2.95,1.1,4.85v12.3h-4.28v-11.66c0-1.87-.47-3.29-1.4-4.28-.93-1.01-2.21-1.51-3.82-1.51s-2.9.51-3.86,1.51c-.93.98-1.4,2.41-1.4,4.28v11.66h-4.32v-20.86h4.32v3.29c.68-1.19,1.59-2.08,2.73-2.69,1.16-.63,2.47-.95,3.94-.95ZM509.32,200.33v28.01h-4.32v-28.01h4.32ZM517.34,207.48l5.87,15.9,6.09-15.9h4.47l-12.79,30.66h-4.47l4.24-10.14-8.21-20.51h4.81ZM566.12,220.84c0,1.34-.36,2.6-1.1,3.79-.71,1.19-1.75,2.14-3.14,2.88s-3.02,1.1-4.88,1.1c-2.7,0-4.91-.64-6.62-1.93-1.72-1.29-2.57-3.07-2.57-5.34h4.62c.1,1.16.53,2.08,1.29,2.76.76.68,1.85,1.02,3.29,1.02s2.65-.38,3.48-1.14c.86-.76,1.29-1.73,1.29-2.91,0-.93-.27-1.67-.8-2.2-.5-.55-1.15-.97-1.93-1.25-.78-.3-1.85-.62-3.22-.95-1.72-.4-3.1-.82-4.16-1.25-1.06-.45-1.97-1.16-2.72-2.12-.76-.98-1.14-2.31-1.14-3.98,0-1.51.38-2.85,1.14-4.01.76-1.16,1.82-2.06,3.18-2.69,1.36-.63,2.93-.95,4.69-.95,2.57,0,4.64.61,6.21,1.82,1.59,1.21,2.47,2.96,2.65,5.26h-4.77c-.1-1.01-.53-1.85-1.29-2.54-.76-.68-1.77-1.02-3.03-1.02s-2.37.33-3.18.98c-.81.66-1.21,1.63-1.21,2.91,0,.93.25,1.69.76,2.27.53.55,1.19.98,1.97,1.29.78.28,1.87.58,3.26.91,1.69.4,3.07.83,4.13,1.29,1.06.43,1.96,1.12,2.69,2.08.76.93,1.14,2.23,1.14,3.9ZM590.1,207.48v20.86h-4.32v-3.29c-.68,1.19-1.6,2.08-2.76,2.69-1.14.61-2.43.91-3.9.91s-2.89-.34-4.12-1.02c-1.21-.68-2.18-1.68-2.92-2.99-.71-1.34-1.06-2.95-1.06-4.85v-12.3h4.28v11.66c0,1.87.47,3.31,1.4,4.31.93.98,2.21,1.48,3.82,1.48s2.89-.49,3.82-1.48c.96-1.01,1.44-2.45,1.44-4.31v-11.66h4.32ZM607.37,207.14c1.82,0,3.47.45,4.96,1.36,1.51.88,2.7,2.13,3.56,3.75.86,1.61,1.29,3.47,1.29,5.56s-.43,3.97-1.29,5.64c-.86,1.64-2.04,2.93-3.56,3.86-1.49.91-3.14,1.36-4.96,1.36-1.64,0-3.08-.38-4.31-1.14-1.24-.78-2.22-1.82-2.95-3.1v13.82h-4.32v-30.77h4.32v3.71c.71-1.21,1.68-2.18,2.91-2.91,1.26-.76,2.71-1.14,4.35-1.14ZM606.42,210.89c-1.08,0-2.12.28-3.1.83-.96.56-1.74,1.36-2.35,2.42-.58,1.06-.87,2.31-.87,3.75s.29,2.7.87,3.79c.61,1.06,1.39,1.87,2.35,2.42.98.55,2.02.83,3.1.83s2.14-.28,3.1-.83c.98-.58,1.77-1.41,2.35-2.5.61-1.09.91-2.35.91-3.79s-.3-2.68-.91-3.71c-.58-1.06-1.36-1.85-2.35-2.38-.96-.55-1.99-.83-3.1-.83ZM633.02,207.14c1.82,0,3.47.45,4.96,1.36,1.51.88,2.7,2.13,3.56,3.75.86,1.61,1.29,3.47,1.29,5.56s-.43,3.97-1.29,5.64c-.86,1.64-2.04,2.93-3.56,3.86-1.49.91-3.14,1.36-4.96,1.36-1.64,0-3.08-.38-4.32-1.14-1.24-.78-2.22-1.82-2.95-3.1v13.82h-4.32v-30.77h4.32v3.71c.71-1.21,1.68-2.18,2.91-2.91,1.26-.76,2.71-1.14,4.35-1.14ZM632.08,210.89c-1.09,0-2.12.28-3.1.83-.96.56-1.74,1.36-2.35,2.42-.58,1.06-.87,2.31-.87,3.75s.29,2.7.87,3.79c.61,1.06,1.39,1.87,2.35,2.42.98.55,2.02.83,3.1.83s2.14-.28,3.1-.83c.98-.58,1.77-1.41,2.35-2.5.61-1.09.91-2.35.91-3.79s-.3-2.68-.91-3.71c-.58-1.06-1.36-1.85-2.35-2.38-.96-.55-1.99-.83-3.1-.83ZM656.33,207.14c1.99,0,3.8.44,5.41,1.32,1.61.88,2.89,2.14,3.82,3.79.93,1.64,1.4,3.52,1.4,5.64s-.48,4-1.44,5.64-2.27,2.91-3.94,3.82c-1.64.88-3.46,1.32-5.45,1.32s-3.75-.44-5.34-1.32c-1.59-.91-2.84-2.17-3.75-3.79-.91-1.64-1.36-3.53-1.36-5.68s.47-4,1.4-5.64c.93-1.64,2.21-2.9,3.82-3.79,1.61-.88,3.42-1.32,5.41-1.32ZM656.25,210.77c-1.11,0-2.13.28-3.07.83-.93.53-1.69,1.34-2.27,2.42-.55,1.06-.83,2.35-.83,3.86s.27,2.81.79,3.9c.55,1.08,1.29,1.9,2.2,2.46.93.53,1.96.8,3.07.8s2.15-.28,3.1-.83c.98-.55,1.78-1.36,2.38-2.42.61-1.09.91-2.38.91-3.9s-.29-2.8-.87-3.86c-.58-1.08-1.35-1.89-2.31-2.42-.96-.55-1.99-.83-3.1-.83ZM675.54,211.12c.63-1.26,1.46-2.23,2.5-2.91,1.06-.71,2.31-1.06,3.75-1.06v4.47h-1.1c-1.69,0-2.98.43-3.86,1.29-.86.86-1.29,2.35-1.29,4.47v10.98h-4.32v-20.86h4.32v3.63ZM690.79,211v11.54c0,.78.18,1.35.53,1.7.38.33,1.01.49,1.89.49h2.65v3.6h-3.41c-1.94,0-3.43-.45-4.47-1.36-1.04-.91-1.55-2.38-1.55-4.43v-11.54h-2.46v-3.52h2.46v-5.19h4.35v5.19h5.07v3.52h-5.07Z"/>
</svg>