<?xml version="1.0" encoding="utf-8"?>
<!-- Generator: Adobe Illustrator 28.4.1, SVG Export Plug-In . SVG Version: 6.00 Build 0)  -->
<svg version="1.1" id="Warstwa_1" xmlns="http://www.w3.org/2000/svg" xmlns:xlink="http://www.w3.org/1999/xlink" x="0px" y="0px"
	 viewBox="0 0 11.7 11.7" style="enable-background:new 0 0 11.7 11.7;" xml:space="preserve">
<style type="text/css">
	.st0{fill:#FFFFFF;}
</style>
<path class="st0" d="M5,11.3c0.2,0.2,0.5,0.3,0.8,0.3s0.6-0.1,0.8-0.3C6.9,11.1,7,10.8,7,10.5V7h3.5c0.3,0,0.6-0.1,0.8-0.3
	c0.2-0.2,0.3-0.5,0.3-0.8S11.5,5.2,11.3,5c-0.2-0.2-0.5-0.3-0.8-0.3H7V1.2c0-0.3-0.1-0.6-0.3-0.8S6.1,0,5.8,0S5.2,0.1,5,0.3
	C4.8,0.6,4.7,0.9,4.7,1.2v3.5H1.2C0.9,4.7,0.6,4.8,0.3,5C0.1,5.2,0,5.5,0,5.8s0.1,0.6,0.3,0.8C0.6,6.9,0.9,7,1.2,7h3.5v3.5
	C4.7,10.8,4.8,11.1,5,11.3z"/>
</svg>
