<svg width="19" height="13" viewBox="0 0 19 13" fill="none" xmlns="http://www.w3.org/2000/svg">
<path d="M10.8495 11.6562C10.9456 11.5607 11.0267 11.4551 11.0972 11.3454L18.4611 3.98112C19.1792 3.26239 19.1795 2.09755 18.4608 1.37847C17.7424 0.659735 16.5772 0.659735 15.8581 1.37847L9.51628 7.72101L3.14103 1.34644C2.42298 0.627359 1.25746 0.627359 0.538383 1.34644C0.179527 1.70597 -7.25391e-05 2.17661 -7.25597e-05 2.64725C-7.25803e-05 3.11789 0.179527 3.58955 0.539066 3.94806L7.93534 11.3454C8.00588 11.4551 8.08665 11.5604 8.18309 11.6562C8.55115 12.0242 9.0344 12.2008 9.51628 12.1926C9.99851 12.2011 10.4824 12.0242 10.8495 11.6562Z" fill="#1B143B"/>
</svg>
