<svg width="19" height="17" viewBox="0 0 19 17" fill="none" xmlns="http://www.w3.org/2000/svg">
<path d="M1.14201 9.83368C1.21975 9.8463 1.29843 9.85212 1.37715 9.8511L14.7813 9.8511L14.489 9.98704C14.2033 10.1223 13.9434 10.3063 13.7209 10.5308L9.96205 14.2897C9.467 14.7622 9.38382 15.5225 9.76493 16.0909C10.2085 16.6967 11.0591 16.8282 11.6649 16.3847C11.7139 16.3488 11.7604 16.3097 11.8041 16.2677L18.6013 9.47046C19.1325 8.93985 19.133 8.07911 18.6024 7.54791C18.602 7.54757 18.6016 7.54719 18.6013 7.54685L11.8041 0.749649C11.2725 0.21951 10.4117 0.220698 9.88154 0.752325C9.83983 0.79417 9.80087 0.838692 9.76493 0.885592C9.38382 1.45405 9.467 2.21427 9.96205 2.68685L13.7141 6.4525C13.9136 6.65217 14.1429 6.81959 14.3938 6.94869L14.8017 7.13222L1.45196 7.13222C0.757495 7.10643 0.148212 7.59154 0.0177471 8.27415C-0.102435 9.01526 0.400897 9.71346 1.14201 9.83368Z" fill="white"/>
</svg>
