<?xml version="1.0" encoding="utf-8"?>
<!-- Generator: Adobe Illustrator 28.4.1, SVG Export Plug-In . SVG Version: 6.00 Build 0)  -->
<svg version="1.1" id="Warstwa_1" xmlns="http://www.w3.org/2000/svg" xmlns:xlink="http://www.w3.org/1999/xlink" x="0px" y="0px"
	 viewBox="0 0 14 16" style="enable-background:new 0 0 14 16;" xml:space="preserve">
<style type="text/css">
	.st0{fill:#FFFFFF;}
</style>
<path class="st0" d="M6.3,15.7l-6-6C0.2,9.6,0.1,9.5,0.1,9.4S0,9.1,0,9s0-0.3,0.1-0.4c0.1-0.1,0.1-0.2,0.2-0.3
	c0.1-0.1,0.2-0.2,0.3-0.2C0.7,8,0.9,8,1,8s0.3,0,0.4,0.1c0.1,0.1,0.2,0.1,0.3,0.2L6,12.6V1c0-0.3,0.1-0.5,0.3-0.7C6.5,0.1,6.7,0,7,0
	s0.5,0.1,0.7,0.3C7.9,0.5,8,0.7,8,1v11.6l4.3-4.3C12.5,8.1,12.7,8,13,8s0.5,0.1,0.7,0.3S14,8.7,14,9s-0.1,0.5-0.3,0.7l-6,6
	c-0.1,0.1-0.2,0.2-0.3,0.2C7.3,16,7.1,16,7,16s-0.3,0-0.4-0.1C6.5,15.8,6.4,15.8,6.3,15.7z"/>
</svg>
