<svg width="198" height="29" viewBox="0 0 198 29" fill="none" xmlns="http://www.w3.org/2000/svg">
<g clip-path="url(#clip0_10627_468)">
<path d="M13.5782 22.8988C6.78302 22.8988 3.48104 19.2596 1.90551 16.2063C0.185666 12.8742 -0.00195312 9.31132 -0.00195312 7.9328C-0.00195312 4.88552 2.42507 2.75704 5.89724 2.75704H15.4526C15.9311 2.75704 16.3899 2.94698 16.7283 3.28506C17.0666 3.62315 17.2566 4.08169 17.2566 4.55981C17.2566 5.03794 17.0666 5.49648 16.7283 5.83457C16.3899 6.17265 15.9311 6.36259 15.4526 6.36259H5.89724C5.18104 6.36259 4.53459 6.53505 4.12267 6.83611C3.76667 7.09631 3.60792 7.43704 3.60792 7.9328C3.60792 10.5979 4.32953 19.2933 13.5782 19.2933C21.5707 19.2933 23.6327 12.9325 24.489 8.14793C24.5287 7.92799 24.5624 7.7381 24.5955 7.57585C24.854 6.3067 25.0994 5.2677 25.6893 4.41259C26.4476 3.3141 27.6268 2.75704 29.1933 2.75704C29.5095 2.7598 29.822 2.82534 30.1126 2.94986C30.4032 3.07438 30.6661 3.25538 30.8861 3.48236C31.4989 4.0977 32.1658 5.24246 32.4701 9.07095C32.6204 10.9669 32.6144 12.6795 32.6144 12.7516C32.6122 13.2283 32.4211 13.6847 32.083 14.0209C31.7449 14.3572 31.2874 14.546 30.8104 14.546H30.8019C30.3238 14.5437 29.8661 14.3519 29.5294 14.0126C29.1927 13.6734 29.0046 13.2144 29.0063 12.7366C29.0063 12.7071 29.0105 11.2373 28.8921 9.60157C28.7892 8.18699 28.6437 7.29522 28.518 6.74658C28.3563 7.19186 28.2005 7.95564 28.1308 8.29756C28.1067 8.41775 28.076 8.58721 28.0406 8.78431C27.7489 10.4152 27.1415 13.8092 25.1433 16.8968C23.9809 18.6917 22.5154 20.1099 20.7883 21.1105C18.7366 22.2961 16.3107 22.8988 13.5782 22.8988Z" fill="#1E3932"/>
<path d="M22.2527 5.13747C22.6057 4.20641 22.1365 3.16567 21.2048 2.81293C20.2731 2.46018 19.2316 2.92899 18.8787 3.86005C18.5257 4.79112 18.9948 5.83185 19.9265 6.1846C20.8582 6.53734 21.8997 6.06853 22.2527 5.13747Z" fill="#00A862"/>
<path d="M48.9158 19.2512V19.4435C48.9072 19.9185 48.7123 20.3712 48.373 20.7041C48.0338 21.037 47.5773 21.2235 47.1019 21.2235C46.6264 21.2235 46.17 21.037 45.8308 20.7041C45.4915 20.3712 45.2966 19.9185 45.2879 19.4435V1.81299C45.2854 1.57515 45.3317 1.33932 45.4238 1.12002C45.516 0.900716 45.6521 0.702585 45.8237 0.537825C45.9904 0.368086 46.1892 0.233252 46.4086 0.141208C46.6281 0.0491631 46.8636 0.00175476 47.1016 0.00175476C47.3396 0.00175476 47.5751 0.0491631 47.7945 0.141208C48.0139 0.233252 48.2128 0.368086 48.3795 0.537825C48.5514 0.702742 48.6878 0.901142 48.78 1.12077C48.8723 1.34041 48.9185 1.57661 48.9158 1.81479V9.74939C49.9778 8.41294 51.4892 7.74471 53.45 7.74471C55.2636 7.74471 56.7981 8.39451 58.0533 9.69411C59.3085 10.9937 59.9359 12.5962 59.9355 14.5015C59.9355 16.406 59.3081 18.0085 58.0533 19.3089C56.7985 20.6093 55.264 21.2593 53.45 21.2589C51.4908 21.2569 49.9794 20.5877 48.9158 19.2512ZM50.0422 12.0287C49.3458 12.6513 48.9978 13.4751 48.9982 14.5003C48.9986 15.5255 49.3512 16.354 50.056 16.9857C50.7616 17.6175 51.6273 17.9332 52.6532 17.9328C53.6791 17.9324 54.5446 17.6167 55.2498 16.9857C55.9554 16.3544 56.3082 15.5259 56.3082 14.5003C56.3082 13.4747 55.9554 12.6464 55.2498 12.0155C54.5446 11.3837 53.6791 11.0678 52.6532 11.0678C51.6273 11.0678 50.757 11.3881 50.0422 12.0287Z" fill="#1E3932"/>
<path d="M69.6642 19.4435C68.7113 20.6522 67.4563 21.2563 65.8992 21.2559C64.6352 21.2559 63.5728 20.821 62.7121 19.9513C61.8514 19.0815 61.4208 17.9328 61.4204 16.505V9.55709C61.4204 9.07642 61.6115 8.61543 61.9516 8.27554C62.2917 7.93565 62.7531 7.74471 63.2341 7.74471C63.7151 7.74471 64.1764 7.93565 64.5165 8.27554C64.8566 8.61543 65.0477 9.07642 65.0477 9.55709V15.6535C65.0477 16.3862 65.263 16.9767 65.6936 17.425C66.1241 17.8733 66.6784 18.0976 67.3563 18.098C68.0342 18.098 68.5884 17.8737 69.019 17.425C69.4496 16.9763 69.6649 16.3858 69.6649 15.6535V9.55709C69.6649 9.07642 69.8559 8.61543 70.1961 8.27554C70.5362 7.93565 70.9975 7.74471 71.4785 7.74471C71.9595 7.74471 72.4208 7.93565 72.761 8.27554C73.1011 8.61543 73.2922 9.07642 73.2922 9.55709V19.4435C73.2922 19.9242 73.1011 20.3852 72.761 20.725C72.4208 21.0649 71.9595 21.2559 71.4785 21.2559C70.9975 21.2559 70.5362 21.0649 70.1961 20.725C69.8559 20.3852 69.6649 19.9242 69.6649 19.4435H69.6642Z" fill="#1E3932"/>
<path d="M83.6243 8.87024C83.9358 8.12029 84.477 7.74511 85.2479 7.74471C85.4873 7.74065 85.725 7.78475 85.9469 7.87438C86.1688 7.96401 86.3704 8.09735 86.5397 8.26646C86.7089 8.43556 86.8424 8.63697 86.9322 8.8587C87.022 9.08043 87.0662 9.31794 87.0622 9.5571C87.0646 9.74347 87.0365 9.92898 86.9792 10.1063L80.2177 27.8468C79.9246 28.616 79.3475 29.0006 78.4864 29.0006C78.2546 29.0035 78.0246 28.96 77.8099 28.8727C77.5952 28.7854 77.4001 28.6561 77.2362 28.4923C77.0723 28.3285 76.9428 28.1335 76.8555 27.919C76.7681 27.7044 76.7246 27.4745 76.7275 27.2429C76.7268 26.9893 76.7735 26.7378 76.8652 26.5014L79.2008 20.542L74.9962 10.161C74.9162 9.96037 74.8788 9.74532 74.8862 9.52946C74.882 9.29577 74.9248 9.06362 75.0122 8.84683C75.0996 8.63003 75.2298 8.43302 75.3949 8.26752C75.5513 8.10036 75.7408 7.96763 75.9514 7.87782C76.162 7.78801 76.3891 7.74308 76.618 7.74591C77.4427 7.74591 78.0106 8.15775 78.3217 8.98141L80.9321 16.2316L83.6243 8.87024Z" fill="#1E3932"/>
<path d="M98.7389 7.74471C100.479 7.74471 102 8.27552 103.301 9.33715C103.813 9.74017 104.069 10.2163 104.07 10.7656C104.072 10.9857 104.03 11.204 103.945 11.4071C103.86 11.6102 103.734 11.7937 103.575 11.9464C103.418 12.1068 103.23 12.2334 103.022 12.3183C102.814 12.4033 102.591 12.4448 102.366 12.4403C101.944 12.4403 101.551 12.2849 101.185 11.974C100.47 11.3695 99.6639 11.0672 98.7659 11.0672C98.32 11.0604 97.8773 11.1432 97.4641 11.3108C97.0509 11.4783 96.6756 11.7272 96.3605 12.0425C95.691 12.6927 95.3567 13.512 95.3575 14.5003C95.3583 15.4886 95.6926 16.3079 96.3605 16.9581C96.6756 17.2735 97.0509 17.5223 97.4641 17.6897C97.8773 17.8572 98.3201 17.9398 98.7659 17.9328C99.6639 17.9328 100.47 17.6307 101.185 17.0266C101.551 16.7161 101.944 16.5605 102.366 16.5597C102.591 16.5553 102.814 16.5969 103.022 16.682C103.23 16.767 103.418 16.8937 103.575 17.0542C103.734 17.2069 103.86 17.3904 103.945 17.5935C104.03 17.7966 104.072 18.0149 104.07 18.235C104.07 18.7843 103.813 19.2604 103.301 19.6634C101.999 20.7251 100.479 21.2559 98.7389 21.2559C96.7965 21.2559 95.1384 20.6015 93.7645 19.2927C92.3907 17.9839 91.7035 16.3864 91.7031 14.5003C91.7031 12.6146 92.3901 11.0171 93.7639 9.70793C95.1378 8.39871 96.7961 7.7443 98.7389 7.74471Z" fill="#1E3932"/>
<path d="M106.324 19.3059C104.95 18.0067 104.263 16.4042 104.263 14.4985C104.264 12.5928 104.951 10.9903 106.324 9.69111C107.698 8.39191 109.383 7.74211 111.381 7.74171C113.378 7.74131 115.064 8.39111 116.437 9.69111C117.812 10.9915 118.499 12.594 118.498 14.4985C118.498 16.403 117.811 18.0055 116.437 19.3059C115.064 20.6063 113.378 21.2563 111.381 21.2559C109.383 21.2555 107.698 20.6055 106.324 19.3059ZM108.91 12.0563C108.231 12.715 107.892 13.5296 107.893 14.5003C107.893 15.471 108.236 16.2852 108.921 16.9431C109.583 17.5774 110.464 17.9316 111.381 17.9316C112.297 17.9316 113.179 17.5774 113.84 16.9431C114.527 16.284 114.871 15.4694 114.871 14.4991C114.871 13.5288 114.527 12.7142 113.84 12.0551C113.517 11.7353 113.132 11.4832 112.71 11.3133C112.288 11.1435 111.836 11.0594 111.381 11.066C110.924 11.0603 110.47 11.1449 110.045 11.3148C109.621 11.4847 109.234 11.7367 108.907 12.0563H108.91Z" fill="#1E3932"/>
<path d="M120.971 8.07402V6.04169C120.971 4.30262 121.434 2.93411 122.359 1.93618C123.285 0.938242 124.535 0.439475 126.111 0.439876C127.282 0.439876 128.272 0.668628 129.078 1.12613C129.628 1.43741 129.903 1.89511 129.903 2.49924C129.906 2.69948 129.868 2.89822 129.789 3.08266C129.711 3.2671 129.595 3.43314 129.449 3.57009C129.307 3.71226 129.138 3.82445 128.951 3.90001C128.765 3.97557 128.565 4.01296 128.364 4.00997C128.163 4.00997 127.907 3.94587 127.595 3.81767C127.32 3.68967 126.98 3.62537 126.578 3.62537C125.973 3.62537 125.492 3.85413 125.135 4.31163C124.777 4.76913 124.599 5.41012 124.599 6.23459V8.07462H130.123V5.49064C130.123 3.77 130.549 2.42893 131.401 1.46746C132.252 0.505977 133.448 0.025238 134.987 0.025238C136.507 0.025238 137.735 0.510384 138.67 1.48068C138.822 1.63104 138.942 1.81094 139.023 2.00934C139.103 2.20775 139.142 2.42047 139.137 2.63445C139.141 2.84206 139.101 3.04819 139.021 3.23964C138.94 3.43108 138.821 3.60361 138.67 3.74616C138.526 3.89202 138.355 4.00766 138.166 4.08621C137.978 4.16477 137.775 4.20464 137.57 4.20346C137.204 4.20346 136.855 4.06625 136.526 3.79183C136.159 3.49938 135.765 3.35296 135.344 3.35256C134.282 3.35256 133.75 4.13977 133.75 5.71419V8.07582H135.975C136.192 8.07202 136.408 8.11271 136.609 8.19539C136.81 8.27807 136.991 8.40099 137.143 8.55656C137.449 8.8727 137.621 9.29468 137.624 9.7346C137.626 10.1745 137.459 10.5985 137.157 10.9182C136.845 11.2387 136.451 11.3989 135.975 11.3989H133.75V19.4453C133.75 19.926 133.559 20.387 133.219 20.7269C132.879 21.0667 132.417 21.2577 131.936 21.2577C131.455 21.2577 130.994 21.0667 130.654 20.7269C130.314 20.387 130.123 19.926 130.123 19.4453V11.3971H124.597V19.4435C124.597 19.9242 124.406 20.3852 124.066 20.7251C123.726 21.0649 123.264 21.2559 122.783 21.2559C122.302 21.2559 121.841 21.0649 121.501 20.7251C121.161 20.3852 120.97 19.9242 120.97 19.4435V11.3971H120.228C120.011 11.3974 119.797 11.3549 119.597 11.2721C119.397 11.1893 119.216 11.0679 119.063 10.9148C118.91 10.7616 118.789 10.5799 118.707 10.3799C118.625 10.1799 118.583 9.96562 118.584 9.74939C118.578 9.528 118.618 9.30779 118.7 9.10234C118.783 8.89688 118.907 8.71053 119.065 8.55476C119.216 8.3991 119.398 8.27612 119.599 8.19344C119.8 8.11075 120.015 8.07011 120.232 8.07402H120.971Z" fill="#1E3932"/>
<path d="M149.992 15.5711H141.307C141.527 16.3323 141.948 16.916 142.57 17.3222C143.192 17.7285 143.915 17.932 144.741 17.9328C145.877 17.9328 146.793 17.5943 147.489 16.9172C147.946 16.4962 148.414 16.2854 148.891 16.285C149.115 16.2832 149.337 16.326 149.545 16.411C149.753 16.496 149.941 16.6214 150.1 16.78C150.258 16.9386 150.384 17.1271 150.469 17.3346C150.554 17.5422 150.596 17.7645 150.594 17.9887C150.599 18.204 150.561 18.4182 150.48 18.6181C150.4 18.818 150.28 18.9995 150.127 19.1515C148.771 20.5536 146.948 21.2547 144.658 21.2547C142.643 21.2547 140.948 20.6093 139.574 19.3185C138.2 18.0277 137.513 16.4213 137.513 14.4991C137.513 12.5954 138.191 10.9929 139.546 9.6917C140.902 8.3905 142.551 7.7407 144.494 7.7423C146.362 7.7423 147.951 8.36026 149.261 9.59616C150.571 10.8321 151.281 12.3562 151.391 14.1686C151.409 14.5896 151.29 14.9284 151.034 15.1848C150.778 15.4411 150.43 15.5699 149.992 15.5711ZM141.389 12.9625H147.82C147.637 12.34 147.247 11.8502 146.652 11.4933C146.057 11.1363 145.366 10.9578 144.578 10.9578C143.893 10.9545 143.221 11.1449 142.64 11.5071C142.044 11.8733 141.627 12.3584 141.389 12.9625Z" fill="#1E3932"/>
<path d="M164.556 15.5711H155.872C156.091 16.3323 156.512 16.916 157.135 17.3222C157.757 17.7285 158.481 17.932 159.306 17.9328C160.442 17.9328 161.358 17.5943 162.054 16.9172C162.511 16.4962 162.978 16.2854 163.456 16.285C163.68 16.2831 163.902 16.3259 164.11 16.4108C164.318 16.4958 164.506 16.6212 164.665 16.7798C164.824 16.9384 164.949 17.127 165.034 17.3345C165.119 17.5421 165.161 17.7645 165.159 17.9887C165.164 18.204 165.126 18.4182 165.045 18.6181C164.965 18.8181 164.845 18.9995 164.692 19.1515C163.336 20.5536 161.513 21.2547 159.223 21.2547C157.208 21.2547 155.513 20.6093 154.14 19.3185C152.766 18.0277 152.079 16.4217 152.078 14.5003C152.078 12.5966 152.756 10.9941 154.112 9.69291C155.468 8.39171 157.117 7.74191 159.059 7.74351C160.927 7.74351 162.516 8.36146 163.827 9.59736C165.137 10.8333 165.847 12.3574 165.957 14.1698C165.975 14.5908 165.856 14.9296 165.599 15.186C165.343 15.4423 164.995 15.5707 164.556 15.5711ZM155.957 12.9625H162.385C162.202 12.34 161.812 11.8502 161.217 11.4933C160.621 11.1363 159.93 10.9579 159.142 10.9579C158.457 10.9547 157.786 11.1451 157.205 11.5071C156.609 11.8733 156.193 12.3584 155.954 12.9625H155.957Z" fill="#1E3932"/>
<path d="M168.238 20.5696C168.026 20.3567 167.858 20.1035 167.744 19.8249C167.631 19.5463 167.574 19.2479 167.577 18.9471C167.578 18.4984 167.713 18.0602 167.963 17.6877C168.214 17.3153 168.569 17.0253 168.984 16.8543C169.399 16.6833 169.856 16.639 170.296 16.727C170.737 16.8149 171.141 17.0312 171.458 17.3486C171.776 17.6659 171.992 18.0701 172.08 18.5101C172.168 18.9502 172.124 19.4064 171.952 19.8213C171.781 20.2361 171.491 20.591 171.118 20.8412C170.745 21.0913 170.307 21.2256 169.858 21.227C169.558 21.2302 169.26 21.1738 168.982 21.0609C168.704 20.948 168.451 20.781 168.238 20.5696Z" fill="#00A862"/>
<path d="M179.861 8.07402H181.537C181.754 8.07021 181.97 8.1109 182.171 8.19358C182.372 8.27627 182.554 8.39918 182.705 8.55475C182.863 8.71053 182.986 8.89688 183.069 9.10234C183.152 9.30779 183.192 9.528 183.186 9.74939C183.187 9.96602 183.145 10.1807 183.062 10.381C182.98 10.5813 182.858 10.7633 182.705 10.9165C182.552 11.0696 182.37 11.191 182.169 11.2735C181.969 11.356 181.754 11.398 181.537 11.3971H179.861V19.4435C179.861 19.9242 179.67 20.3852 179.329 20.7251C178.989 21.0649 178.528 21.2559 178.047 21.2559C177.566 21.2559 177.105 21.0649 176.765 20.7251C176.424 20.3852 176.233 19.9242 176.233 19.4435V11.3971H175.491C175.275 11.3974 175.061 11.3549 174.861 11.2721C174.661 11.1893 174.479 11.0679 174.327 10.9148C174.174 10.7616 174.053 10.5799 173.97 10.3799C173.888 10.1799 173.846 9.96561 173.847 9.74939C173.842 9.528 173.881 9.30779 173.964 9.10234C174.047 8.89688 174.171 8.71053 174.328 8.55475C174.48 8.3991 174.661 8.27612 174.862 8.19344C175.063 8.11075 175.279 8.0701 175.496 8.07402H176.238V5.93232C176.238 5.45165 176.429 4.99066 176.769 4.65077C177.109 4.31088 177.571 4.11993 178.052 4.11993C178.533 4.11993 178.994 4.31088 179.334 4.65077C179.674 4.99066 179.865 5.45165 179.865 5.93232L179.861 8.07402Z" fill="#00A862"/>
<path d="M185.827 19.3059C184.453 18.0067 183.766 16.4042 183.765 14.4985C183.765 12.5928 184.452 10.9903 185.827 9.69111C187.2 8.39191 188.886 7.74211 190.883 7.74171C192.88 7.74131 194.565 8.39111 195.939 9.69111C197.313 10.9915 198 12.594 198.001 14.4985C198.001 16.403 197.314 18.0055 195.939 19.3059C194.565 20.6063 192.88 21.2563 190.883 21.2559C188.885 21.2555 187.2 20.6055 185.827 19.3059ZM188.409 12.0563C187.732 12.715 187.393 13.5296 187.393 14.5003C187.393 15.471 187.736 16.2852 188.423 16.9431C189.085 17.5774 189.966 17.9316 190.883 17.9316C191.8 17.9316 192.681 17.5774 193.343 16.9431C194.029 16.284 194.373 15.4694 194.373 14.4991C194.373 13.5288 194.029 12.7142 193.343 12.0551C193.019 11.7353 192.635 11.483 192.212 11.3132C191.79 11.1434 191.338 11.0594 190.883 11.066C190.425 11.0604 189.972 11.145 189.547 11.3149C189.123 11.4849 188.736 11.7368 188.409 12.0563Z" fill="#00A862"/>
</g>
<defs>
<clipPath id="clip0_10627_468">
<rect width="198" height="29" fill="white"/>
</clipPath>
</defs>
</svg>
