<?xml version="1.0" encoding="utf-8"?>
<!-- Generator: Adobe Illustrator 28.4.1, SVG Export Plug-In . SVG Version: 6.00 Build 0)  -->
<svg version="1.1" id="Capa_1" xmlns="http://www.w3.org/2000/svg" xmlns:xlink="http://www.w3.org/1999/xlink" x="0px" y="0px"
	 viewBox="0 0 512 512" style="enable-background:new 0 0 512 512;" xml:space="preserve">
<style type="text/css">
	.st0{fill:#FFFFFF;}
</style>
<g>
	<path class="st0" d="M504.3,467.9c4.8,4.8,7.7,11.5,7.7,18.2c0,6.7-2.9,13.4-7.7,18.2c-4.8,4.8-11.5,7.7-18.2,7.7
		c-6.7,0-13.4-2.9-18.2-7.7L256,292.5L44.2,504.3c-4.8,4.8-11.5,7.7-18.2,7.7s-13.4-2.9-18.2-7.7c-4.8-4.8-7.7-11.5-7.7-18.2
		c0-6.7,2.9-13.4,7.7-18.2l211.8-211.8L7.7,44.2C1,37.5-0.9,27.9,1,19.3S10.6,4,19.2,1.1s18.2,0,24.9,6.7L256,219.7L467.8,7.8
		c9.6-9.6,25.9-9.6,36.4,0c9.6,9.6,9.6,25.9,0,36.4L292.4,256.1L504.3,467.9z"/>
</g>
</svg>
