<svg width="37" height="37" viewBox="0 0 37 37" fill="none" xmlns="http://www.w3.org/2000/svg">
<g clip-path="url(#clip0_12606_68)">
<path d="M30.3924 18.5C29.6626 18.5 29.071 19.0916 29.071 19.8215V33.0355C29.071 33.7654 28.4794 34.357 27.7496 34.357H3.96423C3.23441 34.357 2.6428 33.7654 2.6428 33.0355V6.60733C2.6428 5.87751 3.23441 5.28589 3.96423 5.28589H19.8212C20.551 5.28589 21.1426 4.69428 21.1426 3.96446C21.1426 3.23463 20.551 2.6431 19.8212 2.6431H3.96423C1.77485 2.6431 0 4.41794 0 6.60733V33.0355C0 35.2249 1.77485 36.9998 3.96423 36.9998H27.7496C29.939 36.9998 31.7139 35.2249 31.7139 33.0355V19.8214C31.7139 19.0916 31.1223 18.5 30.3924 18.5Z" fill="black"/>
<path d="M35.5188 1.48208C34.57 0.533144 33.2831 0.000140711 31.9413 0.000295564C30.5986 -0.00357576 29.3104 0.530357 28.3642 1.48293L10.9585 18.8872C10.8141 19.0326 10.7052 19.2095 10.6401 19.4038L7.99729 27.3323C7.76663 28.0247 8.14099 28.773 8.83341 29.0035C8.96775 29.0483 9.10843 29.0711 9.24997 29.0713C9.39181 29.0711 9.53281 29.0483 9.66753 29.0039L17.596 26.3611C17.7907 26.2961 17.9676 26.1866 18.1127 26.0414L35.5183 8.63574C37.4938 6.66044 37.494 3.45762 35.5188 1.48208ZM33.6498 6.76853L16.4715 23.9469L11.3391 25.6607L13.0477 20.5349L30.2326 3.35665C31.1774 2.41375 32.7077 2.4153 33.6506 3.36006C34.101 3.81138 34.3548 4.42235 34.3567 5.05996C34.3584 5.70097 34.1038 6.31605 33.6498 6.76853Z" fill="black"/>
</g>
<defs>
<clipPath id="clip0_12606_68">
<rect width="37" height="37" fill="white"/>
</clipPath>
</defs>
</svg>
