<svg width="30" height="30" viewBox="0 0 30 30" fill="none" xmlns="http://www.w3.org/2000/svg">
<path d="M14.9997 0.333008C12.0989 0.333008 9.26324 1.19319 6.85132 2.80479C4.4394 4.41638 2.55953 6.707 1.44945 9.38698C0.339363 12.067 0.0489137 15.0159 0.61483 17.861C1.18075 20.7061 2.57761 23.3194 4.62878 25.3706C6.67995 27.4217 9.2933 28.8186 12.1384 29.3845C14.9834 29.9504 17.9324 29.66 20.6124 28.5499C23.2924 27.4398 25.583 25.56 27.1946 23.148C28.8062 20.7361 29.6664 17.9005 29.6664 14.9997C29.6618 11.1112 28.1151 7.38338 25.3655 4.63384C22.616 1.8843 18.8881 0.337595 14.9997 0.333008ZM20.6557 18.7717C20.783 18.8947 20.8846 19.0418 20.9545 19.2045C21.0244 19.3671 21.0611 19.5421 21.0627 19.7191C21.0642 19.8962 21.0305 20.0718 20.9634 20.2356C20.8964 20.3995 20.7974 20.5483 20.6722 20.6735C20.547 20.7987 20.3981 20.8977 20.2343 20.9648C20.0704 21.0318 19.8949 21.0655 19.7178 21.064C19.5408 21.0625 19.3658 21.0257 19.2031 20.9558C19.0405 20.8859 18.8933 20.7844 18.7703 20.657L14.9997 16.885L11.229 20.657C10.9775 20.8999 10.6407 21.0343 10.2911 21.0312C9.94155 21.0282 9.60713 20.888 9.35992 20.6408C9.11271 20.3936 8.97249 20.0591 8.96945 19.7095C8.96641 19.3599 9.1008 19.0231 9.34368 18.7717L13.1143 14.9997L9.34368 11.2277C9.21634 11.1047 9.11476 10.9576 9.04488 10.7949C8.975 10.6322 8.93822 10.4573 8.93668 10.2802C8.93514 10.1032 8.96888 9.9276 9.03592 9.76374C9.10296 9.59987 9.20197 9.45101 9.32716 9.32582C9.45235 9.20063 9.60122 9.10162 9.76508 9.03458C9.92894 8.96754 10.1045 8.9338 10.2816 8.93534C10.4586 8.93688 10.6335 8.97366 10.7962 9.04354C10.9589 9.11342 11.106 9.215 11.229 9.34234L14.9997 13.1143L18.7703 9.34234C18.8933 9.215 19.0405 9.11342 19.2031 9.04354C19.3658 8.97366 19.5408 8.93688 19.7178 8.93534C19.8949 8.9338 20.0704 8.96754 20.2343 9.03458C20.3981 9.10162 20.547 9.20063 20.6722 9.32582C20.7974 9.45101 20.8964 9.59987 20.9634 9.76374C21.0305 9.9276 21.0642 10.1032 21.0627 10.2802C21.0611 10.4573 21.0244 10.6322 20.9545 10.7949C20.8846 10.9576 20.783 11.1047 20.6557 11.2277L16.885 14.9997L20.6557 18.7717Z" fill="#1B143B"/>
</svg>
