<svg width="36" height="36" viewBox="0 0 36 36" fill="none" xmlns="http://www.w3.org/2000/svg">
<circle cx="18" cy="18" r="18" fill="white"/>
<path d="M18 30.3784C17.8786 30.3784 17.7572 30.347 17.6485 30.2842C17.5304 30.2161 14.7239 28.5866 11.8772 26.1314C10.19 24.6763 8.84318 23.233 7.87427 21.8417C6.62046 20.0415 5.98995 18.3098 6.00012 16.6948C6.01203 14.8156 6.6851 13.0483 7.89551 11.7185C9.12635 10.3662 10.7689 9.62158 12.5208 9.62158C14.766 9.62158 16.8187 10.8792 18.0001 12.8715C19.1814 10.8793 21.2341 9.62158 23.4793 9.62158C25.1344 9.62158 26.7134 10.2935 27.9258 11.5135C29.2563 12.8524 30.0123 14.7442 29.9999 16.7037C29.9897 18.3159 29.3473 20.0449 28.0908 21.8427C27.1189 23.2333 25.7739 24.6759 24.0933 26.1306C21.257 28.5856 18.4707 30.215 18.3535 30.2831C18.2442 30.3466 18.1221 30.3784 18 30.3784Z" fill="#44B5BE"/>
</svg>
