<svg width="19" height="19" viewBox="0 0 19 19" fill="none" xmlns="http://www.w3.org/2000/svg">
<path d="M18.762 9.27751C19.1064 8.89872 19.0732 8.31814 18.6877 7.98109L10.1964 0.55111C9.81096 0.214059 9.19303 0.22112 8.81572 0.567027L0.295504 8.37722C-0.081804 8.72313 -0.100323 9.30297 0.254503 9.67179L0.468117 9.89426C0.82251 10.2631 1.39535 10.3071 1.74677 9.99218L2.38352 9.42194V17.7703C2.38352 18.2825 2.79855 18.6971 3.31038 18.6971H6.63158C7.14341 18.6971 7.55844 18.2825 7.55844 17.7703V11.9298H11.7947V17.7703C11.7873 18.2821 12.1535 18.6968 12.6654 18.6968H16.185C16.6968 18.6968 17.1119 18.2821 17.1119 17.7699V9.5395C17.1119 9.5395 17.2878 9.69359 17.5047 9.88429C17.7213 10.0746 18.1762 9.92201 18.5206 9.54284L18.762 9.27751Z" fill="#F08719"/>
</svg>
