<svg width="29" height="29" viewBox="0 0 29 29" fill="none" xmlns="http://www.w3.org/2000/svg">
<path d="M14.5 0C6.48586 0 0 6.48513 0 14.5C0 22.514 6.48513 29 14.5 29C22.5141 29 29 22.5149 29 14.5C29 6.48597 22.5149 0 14.5 0ZM15.989 20.2559C15.989 20.714 15.321 21.172 14.5003 21.172C13.6414 21.172 13.0307 20.714 13.0307 20.2559V12.984C13.0307 12.4496 13.6414 12.0868 14.5003 12.0868C15.321 12.0868 15.989 12.4496 15.989 12.984V20.2559ZM14.5003 10.331C13.6224 10.331 12.9353 9.68209 12.9353 8.95675C12.9353 8.23147 13.6224 7.60162 14.5003 7.60162C15.3592 7.60162 16.0464 8.23147 16.0464 8.95675C16.0464 9.68209 15.3592 10.331 14.5003 10.331Z" fill="#1B143B"/>
</svg>
