<?xml version="1.0" encoding="utf-8"?>
<!-- Generator: Adobe Illustrator 28.4.1, SVG Export Plug-In . SVG Version: 6.00 Build 0)  -->
<svg version="1.1" id="Layer_1" xmlns="http://www.w3.org/2000/svg" xmlns:xlink="http://www.w3.org/1999/xlink" x="0px" y="0px"
	 viewBox="0 0 512 512" style="enable-background:new 0 0 512 512;" xml:space="preserve">
<style type="text/css">
	.st0{fill:#FFFFFF;}
</style>
<g>
	<g>
		<path class="st0" d="M195.7,268.1c-0.8-4.1-29.1-145.5-30-150c-1.4-7-7.6-12.1-14.7-12.1h-30c-7.2,0-13.3,5-14.7,12.1
			c-0.9,4.6-29.2,146.1-30,150c-1.6,8.1,3.6,16,11.8,17.6c8.1,1.6,16-3.6,17.7-11.8l9.6-47.9h41.4l9.6,47.9
			c1.6,8.1,9.5,13.4,17.6,11.8C192.1,284.1,197.3,276.2,195.7,268.1z M121.3,196l12-60h5.4l12,60H121.3z"/>
	</g>
</g>
<g>
	<g>
		<path class="st0" d="M436,226h-45v-15c0-8.3-6.7-15-15-15s-15,6.7-15,15v15h-45c-8.3,0-15,6.7-15,15s6.7,15,15,15h3.6
			c8.5,27.6,21.4,48.8,35.6,65.8c-11.5,10.5-23.2,19.2-33.6,27.5c-6.5,5.2-7.5,14.6-2.3,21.1c5.2,6.5,14.6,7.5,21.1,2.3
			c10.4-8.4,23-17.6,35.6-29.3c12.7,11.6,25.2,20.9,35.6,29.3c6.5,5.2,15.9,4.1,21.1-2.3c5.2-6.5,4.1-15.9-2.3-21.1
			c-10.4-8.3-22-16.9-33.6-27.5c14.2-17,27-38.2,35.6-65.8h3.6c8.3,0,15-6.7,15-15S444.3,226,436,226z M376,299.7
			c-9.6-12-18.2-26.4-24.7-43.8h49.4C394.2,273.4,385.6,287.7,376,299.7z"/>
	</g>
</g>
<g>
	<g>
		<path class="st0" d="M467,91H250.6l-6.4-51.6C241.4,16.9,222.2,0,199.5,0H45C20.2,0,0,20.2,0,45v331c0,24.8,20.2,45,45,45h126.5
			l6.3,51.6c2.8,22.4,22,39.4,44.7,39.4H467c24.8,0,45-20.2,45-45V136C512,111.2,491.8,91,467,91z M45,391c-8.3,0-15-6.7-15-15V45
			c0-8.3,6.7-15,15-15h154.5c7.5,0,13.9,5.6,14.9,13.1c2.2,17.4,41.2,330.6,43.4,347.9H45z M206.7,461.8l-5-40.8H242L206.7,461.8z
			 M482,467c0,8.3-6.7,15-15,15H228.9l57.1-66.1c2.9-3.3,4.2-7.7,3.6-12L254.3,121H467c8.3,0,15,6.7,15,15V467z"/>
	</g>
</g>
</svg>
