<?xml version="1.0" encoding="utf-8"?>
<!-- Generator: Adobe Illustrator 28.4.1, SVG Export Plug-In . SVG Version: 6.00 Build 0)  -->
<svg version="1.1" id="Warstwa_1" xmlns="http://www.w3.org/2000/svg" xmlns:xlink="http://www.w3.org/1999/xlink" x="0px" y="0px"
	 viewBox="0 0 19.5 21.8" style="enable-background:new 0 0 19.5 21.8;" xml:space="preserve">
<style type="text/css">
	.st0{fill:#FFFFFF;}
	.st1{display:none;}
	.st2{display:inline;}
</style>
<g>
	<path class="st0" d="M15.1,17l-0.1-3.8c0-0.7-0.5-1.2-1.2-1.2l-8.2,0c-0.7,0-1.3,0.6-1.3,1.3l0,3.6c0,2.9-4.5,2.9-4.5-0.2v-14
		C0,1.2,1.2,0,2.8,0h11.2c0.7,0,1.4,0.3,1.9,0.8l2.8,2.8c0.5,0.5,0.8,1.2,0.8,1.9v11.2C19.5,20.3,15.1,19.5,15.1,17z M2.8,1.5
		c-0.7,0-1.2,0.6-1.2,1.2v14c0,0.7,1.5,0.8,1.5,0.1l0-4.2C3,11.2,4.2,10,5.7,10H14c1.4,0,2.5,1.1,2.6,2.5l0.1,4.4
		c0,0.5,1.3,0.7,1.3-0.1V5.6c0-0.3-0.1-0.6-0.4-0.9l-2.8-2.8c-0.2-0.2-0.6-0.4-0.9-0.4H2.8z"/>
</g>
<g>
	<path class="st0" d="M13.2,7.5H6.4C5.6,7.5,5,6.9,5,6.1V1.4C5,0.6,5.6,0,6.4,0h6.8c0.7,0,1.3,0.6,1.3,1.4v4.8
		C14.5,6.9,13.9,7.5,13.2,7.5z M6.5,6H13V1.5H6.5V6z"/>
</g>
<g class="st1">
	<path class="st2" d="M16.5,19.5H3v-8.2C3,10.6,3.6,10,4.4,10h10.8c0.7,0,1.3,0.6,1.3,1.3V19.5z M4.5,18H15v-6.5H4.5V18z"/>
</g>
<path class="st0" d="M6.7,18.8c-0.3,0.3-0.3,0.8,0,1.1L8,21.1c0.9,0.9,2.6,0.9,3.5,0l1.3-1.2c0.3-0.3,0.3-0.8,0-1.1
	c-0.2-0.1-0.4-0.2-0.6-0.2c-0.2,0-0.4,0.1-0.6,0.2l-1.1,1v-5.7c0-0.4-0.4-0.8-0.8-0.8s-0.8,0.3-0.8,0.8v5.7l-1.1-1
	C7.5,18.5,7,18.5,6.7,18.8z"/>
</svg>
