<svg width="186" height="49" viewBox="0 0 186 49" fill="none" xmlns="http://www.w3.org/2000/svg">
<path d="M80.9304 20.153H86.6268V34.3611H87.8112V20.153H93.5076V18.9611H80.9116V20.153H80.9304Z" fill="black"/>
<path d="M58.5769 28.2209H52.3917V20.6911L54.8357 20.4641V20.483L55.1177 20.4641C55.2869 20.4452 55.5125 20.4263 55.7757 20.3884H55.8133C56.7157 20.2939 58.0505 20.1425 58.5957 20.1425C60.7201 20.1425 62.4497 21.7506 62.4497 23.7182C62.4497 26.4047 61.0021 28.1074 58.5769 28.2209ZM58.5769 18.9506C57.9753 18.9506 56.6593 19.083 55.6817 19.1966L51.1885 19.6128V34.3884H52.3729V29.4506H58.5957C60.2689 29.356 61.6225 28.6939 62.5061 27.502C63.2205 26.5182 63.6153 25.1939 63.6153 23.756C63.6341 21.0884 61.3593 18.9506 58.5769 18.9506Z" fill="black"/>
<path d="M70.1956 27.288C70.1956 27.288 73.0344 20.6474 73.072 20.6096C73.1284 20.4772 73.1284 20.3637 73.1284 20.3637C73.1284 20.3637 73.1284 20.4772 73.1848 20.6096C73.2036 20.6474 78.242 31.7907 78.3172 31.961C78.3924 32.1312 78.4864 32.2637 78.5616 32.3772C78.5616 32.3772 78.2984 32.1312 78.1856 32.0745C77.9224 31.8853 70.1956 27.288 70.1956 27.288ZM72.7712 18.2447L65.8716 34.3826H67.1688L69.7256 28.4042L79.746 34.3826H80.7236L73.4292 18.2637L72.7712 18.2447Z" fill="black"/>
<path d="M98.7901 25.174V20.7092L101.234 20.4821V20.501L101.516 20.4821C101.685 20.4632 101.911 20.4443 102.174 20.4065H102.212C103.114 20.3119 104.449 20.1605 104.994 20.1605C107.119 20.1605 108.848 21.7686 108.848 23.7362C108.848 26.4416 107.401 28.1254 104.994 28.2578H102.776L98.7901 25.174ZM104.205 29.3551C104.393 29.4119 104.468 29.4308 104.581 29.4497C104.769 29.4497 105.013 29.4497 105.013 29.4497C106.686 29.3551 108.04 28.6929 108.923 27.501C109.638 26.5173 110.033 25.1929 110.033 23.7551C110.033 21.1254 107.758 18.9875 104.975 18.9875C104.374 18.9875 103.058 19.12 102.08 19.2335L97.5869 19.6497V34.4254H98.7713V26.7254L100.802 28.2767L102.362 29.4686L108.811 34.4065H110.653C110.653 34.4065 104.543 29.6956 104.411 29.5632C104.299 29.4119 104.205 29.3551 104.205 29.3551Z" fill="black"/>
<path d="M144.286 32.3633L133.702 18.9687H132.574V34.3876H133.758V20.9741L144.343 34.3876H145.471V18.9876H144.286V32.3633Z" fill="black"/>
<path d="M152.784 18.9705H151.6V34.3705H152.784V18.9705Z" fill="black"/>
<path d="M156.732 20.1623H162.297V34.3515H163.481V20.1623H169.328V18.9704H156.732V20.1623Z" fill="black"/>
<path d="M173.972 33.1482V27.6995H182.582V26.6968C182.582 26.6968 175.363 20.4725 175.231 20.3779C174.968 20.1509 174.874 20.1319 174.874 20.1319C174.874 20.1319 175.119 20.1509 175.382 20.1509H184.462V18.959H172.769V19.8103C172.769 19.8103 180.195 26.2238 180.307 26.3373C180.42 26.4509 180.646 26.5644 180.646 26.5644C180.646 26.5644 180.477 26.5076 180.251 26.5076H172.769V34.3779H185.609V33.1482H173.972Z" fill="black"/>
<path d="M126.652 27.6795C126.652 29.8552 125.562 31.1984 125.167 31.6336L124.922 31.8984C123.87 32.939 122.478 33.5065 121.031 33.5254H120.937H120.843C119.376 33.5065 118.004 32.939 116.951 31.8984L116.707 31.6336C116.312 31.1984 115.222 29.8552 115.222 27.6795V25.6363C115.222 22.3822 117.76 19.7146 120.899 19.6579H120.937H120.974C124.114 19.7146 126.652 22.3822 126.652 25.6363V27.6795ZM121.426 18.5038L121.238 18.4849H120.993H120.956H120.918H120.674L120.486 18.5038C116.876 18.7876 114.075 21.8903 114.075 25.6552V27.6984C114.075 29.3254 114.62 30.9146 115.635 32.1633L115.88 32.4281C117.196 33.866 119.019 34.7363 120.937 34.7363C120.956 34.7363 120.974 34.7363 120.993 34.7363C121.012 34.7363 121.031 34.7363 121.05 34.7363C122.967 34.7363 124.791 33.866 126.107 32.4281L126.351 32.1633C127.348 30.9146 127.912 29.3444 127.912 27.6984V25.6552C127.836 21.8903 125.035 18.7687 121.426 18.5038Z" fill="black"/>
<path d="M31.6743 16.1946L18.5519 0.98378L5.63631 16.5541L0.391113 29.7595L5.95591 42.7568L19.0407 48.0162L31.9939 42.4162L37.2203 29.2486L31.6743 16.1946ZM24.7559 35.6054L18.7963 38.1784L12.7991 35.7757L10.2611 29.8351L12.6863 23.7622L18.5895 21.2081L24.5491 23.6108L27.1059 29.627L24.7559 35.6054Z" fill="#F23E17"/>
<path d="M18.5522 0.98378L31.6746 16.1946L32.0506 17.1027L27.1062 29.627L16.127 3.87837L18.5522 0.98378Z" fill="url(#paint0_linear_10627_512)"/>
<path d="M32.0503 17.1027L37.2391 29.2486L36.7879 30.3838L24.7559 35.6054L32.0503 17.1027Z" fill="url(#paint1_linear_10627_512)"/>
<path d="M36.788 30.3838L24.756 35.6054L18.7776 38.1784L12.7992 35.7757L10.2612 29.8351V44.4784L19.0596 48.0162L32.0128 42.4162L36.788 30.3838Z" fill="url(#paint2_linear_10627_512)"/>
<path d="M12.6863 23.7622L0.541513 29.3811L0.391113 29.7595L5.95591 42.7568L10.2611 44.4784V29.8351L12.6863 23.7622Z" fill="url(#paint3_linear_10627_512)"/>
<path d="M5.6363 16.5541L18.5895 21.2081L12.6863 23.7622L0.541504 29.3811L5.6363 16.5541Z" fill="url(#paint4_linear_10627_512)"/>
<path d="M5.63623 16.554L18.5894 21.2081L24.549 23.6108L16.1266 3.87837L5.63623 16.554Z" fill="url(#paint5_linear_10627_512)"/>
<defs>
<linearGradient id="paint0_linear_10627_512" x1="17.2446" y1="1.74143" x2="31.8461" y2="26.8729" gradientUnits="userSpaceOnUse">
<stop stop-color="#F15A29"/>
<stop offset="0.2278" stop-color="#F15428"/>
<stop offset="0.5464" stop-color="#EF4127"/>
<stop offset="0.9172" stop-color="#ED2425"/>
<stop offset="1" stop-color="#ED1C24"/>
</linearGradient>
<linearGradient id="paint1_linear_10627_512" x1="30.9905" y1="17.1089" x2="30.9905" y2="35.5974" gradientUnits="userSpaceOnUse">
<stop stop-color="#F15A29"/>
<stop offset="1" stop-color="#ED1C24"/>
</linearGradient>
<linearGradient id="paint2_linear_10627_512" x1="36.7821" y1="38.9277" x2="10.2538" y2="38.9277" gradientUnits="userSpaceOnUse">
<stop stop-color="#F15A29"/>
<stop offset="0.2594" stop-color="#F04F28"/>
<stop offset="0.714" stop-color="#EE3226"/>
<stop offset="1" stop-color="#ED1C24"/>
</linearGradient>
<linearGradient id="paint3_linear_10627_512" x1="3.31662" y1="38.141" x2="16.5669" y2="30.539" gradientUnits="userSpaceOnUse">
<stop stop-color="#F15A29"/>
<stop offset="0.0769471" stop-color="#F15328"/>
<stop offset="0.4514" stop-color="#EF3526"/>
<stop offset="0.7722" stop-color="#ED2325"/>
<stop offset="1" stop-color="#ED1C24"/>
</linearGradient>
<linearGradient id="paint4_linear_10627_512" x1="9.56509" y1="29.3773" x2="9.56509" y2="16.5503" gradientUnits="userSpaceOnUse">
<stop stop-color="#F15A29"/>
<stop offset="1" stop-color="#ED1C24"/>
</linearGradient>
<linearGradient id="paint5_linear_10627_512" x1="8.1023" y1="20.8575" x2="21.4726" y2="13.1867" gradientUnits="userSpaceOnUse">
<stop stop-color="#F15A29"/>
<stop offset="1" stop-color="#ED1C24"/>
</linearGradient>
</defs>
</svg>
