<svg width="32" height="34" viewBox="0 0 32 34" fill="none" xmlns="http://www.w3.org/2000/svg">
<g clip-path="url(#clip0_10613_271)">
<path d="M31.6261 31.6011L23.6739 23.152C25.8409 20.336 26.9064 16.7428 26.6499 13.1154C26.3934 9.48818 24.8345 6.10442 22.2958 3.66407C19.757 1.22373 16.4327 -0.0864862 13.0102 0.00443419C9.58772 0.0953545 6.32909 1.58045 3.90829 4.15255C1.48749 6.72465 0.0897455 10.187 0.00417335 13.8233C-0.0813987 17.4597 1.15175 20.9918 3.44854 23.6893C5.74533 26.3867 8.93005 28.043 12.344 28.3156C15.7578 28.588 19.1398 27.4561 21.7901 25.1536L29.7423 33.6027C29.9935 33.8605 30.3301 34.0032 30.6793 34C31.0287 33.9967 31.3627 33.8478 31.6098 33.5854C31.8568 33.3229 31.9969 32.9679 32 32.5969C32.003 32.2257 31.8687 31.8681 31.6261 31.6011ZM13.365 25.5244C11.2571 25.5244 9.19649 24.8602 7.44382 23.6159C5.69113 22.3716 4.32507 20.6031 3.5184 18.5339C2.71174 16.4647 2.50067 14.1877 2.91191 11.9911C3.32314 9.79449 4.33822 7.77674 5.82875 6.19304C7.31928 4.60936 9.21834 3.53084 11.2858 3.09391C13.3533 2.65696 15.4961 2.88122 17.4437 3.7383C19.3911 4.59539 21.0557 6.04682 22.2267 7.90905C23.3978 9.77127 24.023 11.9606 24.023 14.2004C24.0198 17.2026 22.8959 20.081 20.8978 22.2039C18.8998 24.3269 16.1907 25.521 13.365 25.5244Z" fill="#1B143B"/>
</g>
<defs>
<clipPath id="clip0_10613_271">
<rect width="32" height="34" fill="white"/>
</clipPath>
</defs>
</svg>
