<?xml version="1.0" encoding="utf-8"?>
<!-- Generator: Adobe Illustrator 28.4.1, SVG Export Plug-In . SVG Version: 6.00 Build 0)  -->
<svg version="1.1" id="Warstwa_1" xmlns="http://www.w3.org/2000/svg" xmlns:xlink="http://www.w3.org/1999/xlink" x="0px" y="0px"
	 viewBox="0 0 32 34" style="enable-background:new 0 0 32 34;" xml:space="preserve">
<style type="text/css">
	.st0{clip-path:url(#SVGID_00000031207028984998006780000014354086024965027986_);}
	.st1{fill:#FFFFFF;}
</style>
<g>
	<defs>
		<rect id="SVGID_1_" width="32" height="34"/>
	</defs>
	<clipPath id="SVGID_00000090991723034781375890000005552866718746606762_">
		<use xlink:href="#SVGID_1_"  style="overflow:visible;"/>
	</clipPath>
	<g style="clip-path:url(#SVGID_00000090991723034781375890000005552866718746606762_);">
		<path class="st1" d="M31.6,31.6l-8-8.4c2.2-2.8,3.2-6.4,3-10c-0.3-3.6-1.8-7-4.4-9.5C19.8,1.2,16.4-0.1,13,0
			C9.6,0.1,6.3,1.6,3.9,4.2s-3.8,6-3.9,9.7c-0.1,3.6,1.1,7.2,3.4,9.9c2.3,2.7,5.5,4.4,8.9,4.6c3.4,0.3,6.8-0.9,9.4-3.2l8,8.4
			c0.3,0.3,0.6,0.4,0.9,0.4c0.3,0,0.7-0.2,0.9-0.4c0.2-0.3,0.4-0.6,0.4-1C32,32.2,31.9,31.9,31.6,31.6z M13.4,25.5
			c-2.1,0-4.2-0.7-5.9-1.9c-1.8-1.2-3.1-3-3.9-5.1c-0.8-2.1-1-4.3-0.6-6.5c0.4-2.2,1.4-4.2,2.9-5.8c1.5-1.6,3.4-2.7,5.5-3.1
			c2.1-0.4,4.2-0.2,6.2,0.6c1.9,0.9,3.6,2.3,4.8,4.2C23.4,9.8,24,12,24,14.2c0,3-1.1,5.9-3.1,8C18.9,24.3,16.2,25.5,13.4,25.5z"/>
	</g>
</g>
</svg>
