<svg width="29" height="29" viewBox="0 0 29 29" fill="none" xmlns="http://www.w3.org/2000/svg">
<path d="M14.5 0C6.50501 0 0 6.50501 0 14.5C0 22.495 6.50501 29 14.5 29C22.495 29 29 22.495 29 14.5C29 6.50501 22.495 0 14.5 0ZM22.604 10.6842L13.3371 19.8784C12.792 20.4236 11.9198 20.4599 11.3383 19.9148L6.43233 15.4449C5.85088 14.8998 5.81454 13.9912 6.32331 13.4098C6.86842 12.8283 7.77694 12.792 8.3584 13.3371L12.2469 16.8985L20.5326 8.61278C21.114 8.03133 22.0226 8.03133 22.604 8.61278C23.1855 9.19424 23.1855 10.1028 22.604 10.6842Z" fill="#1B143B"/>
</svg>
