<?xml version="1.0" encoding="utf-8"?>
<!-- Generator: Adobe Illustrator 28.4.1, SVG Export Plug-In . SVG Version: 6.00 Build 0)  -->
<svg version="1.1" id="Warstwa_1" xmlns="http://www.w3.org/2000/svg" xmlns:xlink="http://www.w3.org/1999/xlink" x="0px" y="0px"
	 viewBox="0 0 14 16" style="enable-background:new 0 0 14 16;" xml:space="preserve">
<style type="text/css">
	.st0{fill:#FFFFFF;}
</style>
<path class="st0" d="M7.7,0.3l6,6c0.1,0.1,0.2,0.2,0.2,0.3S14,6.9,14,7c0,0.1,0,0.3-0.1,0.4s-0.1,0.2-0.2,0.3
	c-0.1,0.1-0.2,0.2-0.3,0.2C13.3,8,13.1,8,13,8c-0.1,0-0.3,0-0.4-0.1c-0.1-0.1-0.2-0.1-0.3-0.2L8,3.4V15c0,0.3-0.1,0.5-0.3,0.7
	C7.5,15.9,7.3,16,7,16s-0.5-0.1-0.7-0.3C6.1,15.5,6,15.3,6,15V3.4L1.7,7.7C1.5,7.9,1.3,8,1,8S0.5,7.9,0.3,7.7C0.1,7.5,0,7.3,0,7
	s0.1-0.5,0.3-0.7l6-6c0.1-0.1,0.2-0.2,0.3-0.2C6.7,0,6.9,0,7,0s0.3,0,0.4,0.1S7.6,0.2,7.7,0.3z"/>
</svg>
