<svg width="29" height="29" viewBox="0 0 29 29" fill="none" xmlns="http://www.w3.org/2000/svg">
<path fill-rule="evenodd" clip-rule="evenodd" d="M28.5 14.5C28.5 22.232 22.232 28.5 14.5 28.5C6.76801 28.5 0.5 22.232 0.5 14.5C0.5 6.76801 6.76801 0.5 14.5 0.5C22.232 0.5 28.5 6.76801 28.5 14.5ZM16.25 21.5C16.25 22.4665 15.4665 23.25 14.5 23.25C13.5335 23.25 12.75 22.4665 12.75 21.5C12.75 20.5335 13.5335 19.75 14.5 19.75C15.4665 19.75 16.25 20.5335 16.25 21.5ZM14.5 5.75C13.5335 5.75 12.75 6.53351 12.75 7.5V14.5C12.75 15.4665 13.5335 16.25 14.5 16.25C15.4665 16.25 16.25 15.4665 16.25 14.5V7.5C16.25 6.53351 15.4665 5.75 14.5 5.75Z" fill="#1B143B"/>
</svg>
